<svg width="112.281250" height="121.750000" viewBox="0 0 112.281 121.75" fill="none" xmlns="http://www.w3.org/2000/svg" xmlns:xlink="http://www.w3.org/1999/xlink">
	<desc>
			Created with Pixso.
	</desc>
	<defs>
		<filter id="filter_846_31670_dd" x="0.000000" y="0.000000" width="112.281250" height="121.750000" filterUnits="userSpaceOnUse" color-interpolation-filters="sRGB">
			<feFlood flood-opacity="0" result="BackgroundImageFix"/>
			<feColorMatrix in="SourceAlpha" type="matrix" values="0 0 0 0 0 0 0 0 0 0 0 0 0 0 0 0 0 0 127 0" result="hardAlpha"/>
			<feOffset dx="4" dy="4"/>
			<feGaussianBlur stdDeviation="6.83333"/>
			<feComposite in2="hardAlpha" operator="out" k2="-1" k3="1"/>
			<feColorMatrix type="matrix" values="0 0 0 0 0 0 0 0 0 0 0 0 0 0 0 0 0 0 0.051 0"/>
			<feBlend mode="normal" in2="BackgroundImageFix" result="effect_dropShadow_1"/>
			<feBlend mode="normal" in="SourceGraphic" in2="effect_dropShadow_1" result="shape"/>
		</filter>
		<clipPath id="clip846_31671">
			<rect id="Language" width="24.000000" height="24.000000" transform="translate(40.140625 44.875000)" fill="white" fill-opacity="0"/>
		</clipPath>
		<radialGradient gradientTransform="translate(52.1406 56.875) rotate(90) scale(50 50)" cx="0.000000" cy="0.000000" r="1.000000" id="paint_angular_846_31669_0" gradientUnits="userSpaceOnUse">
			<stop stop-color="#17BAE6"/>
			<stop offset="1.000000" stop-color="#17BAE6" stop-opacity="0.400000"/>
		</radialGradient>
	</defs>
	<path id="Polygon 13" d="M48.14 9.18L12.83 29.56C10.36 30.99 8.83 33.63 8.83 36.49L8.83 77.25C8.83 80.11 10.36 82.75 12.83 84.18L48.14 104.56C50.61 105.99 53.66 105.99 56.14 104.56L91.44 84.18C93.91 82.75 95.44 80.11 95.44 77.25L95.44 36.49C95.44 33.63 93.91 30.99 91.44 29.56L56.14 9.18C53.66 7.75 50.61 7.75 48.14 9.18Z" fill="url(#paint_angular_846_31669_0)" fill-opacity="1.000000" fill-rule="evenodd"/>
	<path id="Polygon 13" d="M12.83 29.56C10.36 30.99 8.83 33.63 8.83 36.49L8.83 77.25C8.83 80.11 10.36 82.75 12.83 84.18L48.14 104.56C50.61 105.99 53.66 105.99 56.14 104.56L91.44 84.18C93.91 82.75 95.44 80.11 95.44 77.25L95.44 36.49C95.44 33.63 93.91 30.99 91.44 29.56L56.14 9.18C53.66 7.75 50.61 7.75 48.14 9.18L12.83 29.56ZM14.83 33.03C13.6 33.74 12.83 35.06 12.83 36.49L12.83 77.25C12.83 78.68 13.6 80 14.83 80.71L50.14 101.1C51.37 101.81 52.9 101.81 54.14 101.1L89.44 80.71C90.67 80 91.44 78.68 91.44 77.25L91.44 36.49C91.44 35.06 90.67 33.74 89.44 33.03L54.14 12.64C52.9 11.93 51.37 11.93 50.14 12.64L14.83 33.03Z" fill="#17BAE6" fill-opacity="1.000000" fill-rule="evenodd"/>
	<g filter="url(#filter_846_31670_dd)">
		<path id="Polygon 14" d="M50.14 18.03L19.5 35.71C18.26 36.43 17.5 37.75 17.5 39.18L17.5 74.56C17.5 75.99 18.26 77.31 19.5 78.03L50.14 95.71C51.37 96.43 52.9 96.43 54.14 95.71L84.78 78.03C86.01 77.31 86.78 75.99 86.78 74.56L86.78 39.18C86.78 37.75 86.01 36.43 84.78 35.71L54.14 18.03C52.9 17.31 51.37 17.31 50.14 18.03Z" fill="#FFFFFF" fill-opacity="0.500000" fill-rule="evenodd"/>
		<path id="Polygon 14" d="M19.5 35.71C18.26 36.43 17.5 37.75 17.5 39.18L17.5 74.56C17.5 75.99 18.26 77.31 19.5 78.03L50.14 95.71C51.37 96.43 52.9 96.43 54.14 95.71L84.78 78.03C86.01 77.31 86.78 75.99 86.78 74.56L86.78 39.18C86.78 37.75 86.01 36.43 84.78 35.71L54.14 18.03C52.9 17.31 51.37 17.31 50.14 18.03L19.5 35.71ZM19 34.85C17.45 35.75 16.5 37.39 16.5 39.18L16.5 74.56C16.5 76.35 17.45 78 19 78.89L49.64 96.58C51.18 97.47 53.09 97.47 54.64 96.58L85.28 78.89C86.82 78 87.78 76.35 87.78 74.56L87.78 39.18C87.78 37.39 86.82 35.75 85.28 34.85L54.64 17.16C53.09 16.27 51.18 16.27 49.64 17.16L19 34.85Z" fill="#FFFFFF" fill-opacity="1.000000" fill-rule="evenodd"/>
	</g>
	<g style="mix-blend-mode:multiply">
		<rect id="Language" width="24.000000" height="24.000000" transform="translate(40.140625 44.875000)" fill="#FFFFFF" fill-opacity="0"/>
		<g clip-path="url(#clip846_31671)">
			<path id="Vector" d="M49.14 47.12C49.33 47.12 49.53 47.2 49.67 47.34C49.81 47.48 49.89 47.67 49.89 47.87L49.89 49.38C51.67 49.4 53.46 49.53 55.23 49.75C55.33 49.76 55.42 49.79 55.51 49.84C55.59 49.89 55.67 49.96 55.73 50.03C55.79 50.11 55.83 50.2 55.86 50.29C55.89 50.39 55.89 50.49 55.88 50.58C55.87 50.68 55.84 50.78 55.79 50.86C55.74 50.95 55.67 51.03 55.6 51.08C55.52 51.14 55.43 51.19 55.33 51.21C55.24 51.24 55.14 51.25 55.04 51.24C54.38 51.15 53.72 51.09 53.05 51.03C52.47 53.31 51.46 55.45 50.08 57.35C50.4 57.74 50.73 58.1 51.08 58.46C51.22 58.6 51.3 58.79 51.3 59C51.3 59.19 51.22 59.38 51.07 59.52C50.93 59.66 50.74 59.74 50.54 59.74C50.34 59.74 50.15 59.65 50.01 59.51C49.71 59.21 49.42 58.89 49.14 58.56C47.56 60.4 45.64 61.92 43.48 63.04C43.3 63.13 43.1 63.15 42.91 63.09C42.72 63.03 42.56 62.89 42.47 62.71C42.38 62.54 42.36 62.33 42.42 62.14C42.48 61.96 42.62 61.8 42.79 61.71C44.87 60.64 46.7 59.15 48.19 57.35C47.32 56.15 46.59 54.85 46.03 53.47C45.96 53.28 45.96 53.08 46.04 52.9C46.11 52.72 46.26 52.58 46.44 52.5C46.62 52.43 46.83 52.43 47.01 52.5C47.19 52.58 47.34 52.72 47.41 52.9C47.87 54.03 48.45 55.1 49.14 56.1C50.22 54.52 51.02 52.77 51.53 50.93C48.76 50.79 45.98 50.89 43.23 51.24C43.03 51.26 42.83 51.21 42.67 51.08C42.52 50.96 42.42 50.78 42.39 50.58C42.37 50.39 42.42 50.19 42.54 50.03C42.66 49.87 42.84 49.77 43.04 49.75C44.82 49.53 46.6 49.4 48.39 49.38L48.39 47.87C48.39 47.67 48.47 47.48 48.61 47.34C48.75 47.2 48.94 47.12 49.14 47.12ZM55.89 53.87C56.03 53.87 56.17 53.91 56.29 53.99C56.41 54.07 56.5 54.17 56.57 54.3L61.82 65.55C61.86 65.64 61.88 65.74 61.89 65.84C61.89 65.93 61.87 66.03 61.84 66.13C61.81 66.22 61.75 66.31 61.69 66.38C61.62 66.45 61.54 66.51 61.45 66.55C61.27 66.64 61.07 66.64 60.88 66.57C60.69 66.51 60.54 66.37 60.46 66.19L59.26 63.62L52.51 63.62L51.32 66.19C51.23 66.37 51.08 66.51 50.89 66.57C50.71 66.64 50.5 66.64 50.32 66.55C50.14 66.46 50 66.32 49.93 66.13C49.86 65.94 49.87 65.74 49.96 65.55L55.21 54.3C55.27 54.17 55.36 54.07 55.48 53.99C55.6 53.91 55.74 53.87 55.89 53.87ZM53.21 62.12L58.56 62.12L55.89 56.39L53.21 62.12Z" fill="#16B9E5" fill-opacity="1.000000" fill-rule="evenodd"/>
		</g>
	</g>
</svg>
