<svg width="55.421875" height="61.515625" viewBox="0 0 55.4219 61.5156" fill="none" xmlns="http://www.w3.org/2000/svg" xmlns:xlink="http://www.w3.org/1999/xlink">
	<desc>
			Created with Pixso.
	</desc>
	<defs/>
	<path id="Polygon 7" d="M23.71 1.07L4 12.44C1.52 13.87 0 16.51 0 19.37L0 42.14C0 45 1.52 47.64 4 49.07L23.71 60.44C26.18 61.87 29.23 61.87 31.71 60.44L51.42 49.07C53.89 47.64 55.42 45 55.42 42.14L55.42 19.37C55.42 16.51 53.89 13.87 51.42 12.44L31.71 1.07C29.23 -0.36 26.18 -0.36 23.71 1.07Z" fill="#F5F8FA" fill-opacity="1.000000" fill-rule="evenodd"/>
	<path id="Polygon 7" d="M4 12.44C1.52 13.87 0 16.51 0 19.37L0 42.14C0 45 1.52 47.64 4 49.07L23.71 60.44C26.18 61.87 29.23 61.87 31.71 60.44L51.42 49.07C53.89 47.64 55.42 45 55.42 42.14L55.42 19.37C55.42 16.51 53.89 13.87 51.42 12.44L31.71 1.07C29.23 -0.36 26.18 -0.36 23.71 1.07L4 12.44ZM5 14.17C3.14 15.25 2 17.23 2 19.37L2 42.14C2 44.28 3.14 46.26 5 47.33L24.71 58.71C26.56 59.78 28.85 59.78 30.71 58.71L50.42 47.33C52.28 46.26 53.42 44.28 53.42 42.14L53.42 19.37C53.42 17.23 52.28 15.25 50.42 14.17L30.71 2.79C28.85 1.72 26.56 1.72 24.71 2.79L5 14.17Z" fill="#7D41FD" fill-opacity="0" fill-rule="evenodd"/>
</svg>
