<svg width="40.000000" height="40.000000" viewBox="0 0 40 40" fill="none" xmlns="http://www.w3.org/2000/svg" xmlns:xlink="http://www.w3.org/1999/xlink">
	<desc>
			Created with Pixso.
	</desc>
	<defs>
		<clipPath id="clip80_36896">
			<rect id="Grid" width="24.000000" height="24.000000" transform="translate(8.000000 8.000000)" fill="white" fill-opacity="0"/>
		</clipPath>
	</defs>
	<rect id="Grid" width="24.000000" height="24.000000" transform="translate(8.000000 8.000000)" fill="#FFFFFF" fill-opacity="0"/>
	<g clip-path="url(#clip80_36896)">
		<path id="Vector" d="M28.25 13.25L28.25 18.87C28.25 18.97 28.21 19.07 28.14 19.14C28.07 19.21 27.97 19.25 27.87 19.25L20.75 19.25L20.75 12.12C20.75 12.02 20.78 11.92 20.85 11.85C20.92 11.78 21.02 11.75 21.12 11.75L26.75 11.75C27.14 11.75 27.53 11.9 27.81 12.18C28.09 12.46 28.25 12.85 28.25 13.25ZM18.87 11.75L13.25 11.75C12.85 11.75 12.46 11.9 12.18 12.18C11.9 12.46 11.75 12.85 11.75 13.25L11.75 18.87C11.75 18.97 11.78 19.07 11.85 19.14C11.92 19.21 12.02 19.25 12.12 19.25L19.25 19.25L19.25 12.12C19.25 12.02 19.21 11.92 19.14 11.85C19.07 11.78 18.97 11.75 18.87 11.75ZM27.87 20.75L20.75 20.75L20.75 27.87C20.75 27.97 20.78 28.07 20.85 28.14C20.92 28.21 21.02 28.25 21.12 28.25L26.75 28.25C27.14 28.25 27.53 28.09 27.81 27.81C28.09 27.53 28.25 27.14 28.25 26.75L28.25 21.12C28.25 21.02 28.21 20.92 28.14 20.85C28.07 20.78 27.97 20.75 27.87 20.75ZM11.75 21.12L11.75 26.75C11.75 27.14 11.9 27.53 12.18 27.81C12.46 28.09 12.85 28.25 13.25 28.25L18.87 28.25C18.97 28.25 19.07 28.21 19.14 28.14C19.21 28.07 19.25 27.97 19.25 27.87L19.25 20.75L12.12 20.75C12.02 20.75 11.92 20.78 11.85 20.85C11.78 20.92 11.75 21.02 11.75 21.12Z" fill="#B9BCCB" fill-opacity="1.000000" fill-rule="nonzero"/>
	</g>
</svg>
