<svg width="282.000000" height="48.000000" viewBox="0 0 282 48" fill="none" xmlns="http://www.w3.org/2000/svg" xmlns:xlink="http://www.w3.org/1999/xlink">
	<desc>
			Created with Pixso.
	</desc>
	<defs>
		<clipPath id="clip3_32687">
			<rect id="Question" width="24.000000" height="24.000000" transform="translate(24.000000 12.000000)" fill="white" fill-opacity="0"/>
		</clipPath>
		<clipPath id="clip3_32690">
			<rect id="Frame" width="24.000000" height="24.000000" transform="translate(258.000000 12.000000)" fill="white" fill-opacity="0"/>
		</clipPath>
		<clipPath id="clip3_32691">
			<rect id="Log in" width="24.000000" height="24.000000" transform="translate(258.000000 12.000000)" fill="white" fill-opacity="0"/>
		</clipPath>
	</defs>
	<rect id="Question" width="24.000000" height="24.000000" transform="translate(24.000000 12.000000)" fill="#FFFFFF" fill-opacity="0"/>
	<g clip-path="url(#clip3_32687)">
		<path id="Vector" d="M27 24C27 19.03 31.03 15 36 15C40.96 15 45 19.03 45 24C45 28.96 40.96 33 36 33C34.44 33 32.98 32.6 31.7 31.91L28.16 32.57C27.95 32.6 27.75 32.54 27.6 32.39C27.45 32.25 27.39 32.03 27.42 31.83L28.08 28.29C27.39 27.01 27 25.55 27 24ZM34.61 20.32C34.32 20.56 34.11 20.93 34.11 21.49C34.11 21.83 33.83 22.11 33.48 22.11C33.14 22.11 32.85 21.83 32.85 21.49C32.85 20.57 33.22 19.85 33.8 19.35C34.36 18.88 35.08 18.66 35.78 18.66C36.49 18.66 37.21 18.88 37.78 19.35C38.35 19.85 38.72 20.57 38.72 21.49C38.72 22.13 38.55 22.61 38.28 23.02C38.06 23.35 37.76 23.61 37.53 23.82C37.51 23.85 37.48 23.86 37.46 23.89C37.21 24.12 37.01 24.31 36.87 24.56C36.73 24.8 36.62 25.14 36.62 25.67C36.62 26.02 36.34 26.3 36 26.3C35.65 26.3 35.37 26.02 35.37 25.67C35.37 24.95 35.52 24.39 35.78 23.94C36.03 23.5 36.35 23.19 36.62 22.96L36.68 22.9C36.93 22.67 37.11 22.52 37.24 22.32C37.36 22.14 37.46 21.89 37.46 21.49C37.46 20.93 37.25 20.56 36.96 20.32C36.66 20.06 36.23 19.92 35.78 19.92C35.33 19.92 34.91 20.06 34.61 20.32ZM36.47 29.44C36.7 29.18 36.68 28.78 36.42 28.55C36.17 28.32 35.77 28.34 35.54 28.6L35.53 28.6C35.3 28.86 35.32 29.26 35.57 29.5C35.83 29.72 36.23 29.71 36.46 29.45L36.47 29.44Z" fill="#8E35FF" fill-opacity="1.000000" fill-rule="evenodd"/>
		<path id="Vector" d="M31.7 31.91C32.98 32.6 34.44 33 36 33C40.96 33 45 28.96 45 24C45 19.03 40.96 15 36 15C31.03 15 27 19.03 27 24C27 25.55 27.39 27.01 28.08 28.29L27.42 31.83C27.39 32.03 27.45 32.25 27.6 32.39C27.75 32.54 27.95 32.6 28.16 32.57L31.7 31.91ZM34.21 16.19Q35.08 16 36 16Q36.91 16 37.78 16.19Q38.46 16.35 39.11 16.62Q39.78 16.91 40.37 17.3Q41.06 17.75 41.65 18.34Q42.25 18.93 42.69 19.62Q43.08 20.21 43.37 20.88Q43.64 21.53 43.8 22.21Q44 23.08 44 24Q44 24.91 43.8 25.78Q43.64 26.46 43.37 27.11Q43.08 27.78 42.69 28.37Q42.25 29.06 41.65 29.65Q41.06 30.25 40.37 30.69Q39.78 31.08 39.11 31.37Q38.46 31.64 37.78 31.8Q36.91 32 36 32Q35.32 32 34.67 31.89Q34.33 31.83 34 31.75Q33.55 31.63 33.12 31.46Q32.64 31.28 32.18 31.03L31.87 30.85L28.51 31.49L29.13 28.12L28.96 27.82Q28.71 27.35 28.53 26.87Q28.36 26.44 28.25 26Q28.16 25.66 28.1 25.32Q28 24.67 28 24Q28 23.08 28.19 22.21Q28.35 21.53 28.62 20.88Q28.91 20.21 29.3 19.62Q29.75 18.93 30.34 18.34Q30.93 17.75 31.62 17.3Q32.21 16.91 32.88 16.62Q33.53 16.35 34.21 16.19ZM35.08 21.82Q35.11 21.66 35.11 21.49Q35.11 21.31 35.16 21.2Q35.17 21.18 35.18 21.17Q35.21 21.12 35.26 21.07Q35.34 21.01 35.46 20.96Q35.61 20.92 35.78 20.92Q35.96 20.92 36.11 20.96Q36.23 21.01 36.32 21.07Q36.36 21.12 36.39 21.17Q36.4 21.18 36.41 21.2Q36.46 21.31 36.46 21.49Q36.46 21.68 36.41 21.76Q36.37 21.82 36.3 21.89Q36.23 21.96 36.01 22.15L36.01 22.15L35.95 22.21Q35.64 22.49 35.45 22.7Q35.13 23.06 34.91 23.45Q34.37 24.4 34.37 25.67Q34.37 25.84 34.4 26Q34.43 26.16 34.5 26.3Q34.56 26.45 34.64 26.57Q34.73 26.71 34.84 26.82Q34.96 26.93 35.09 27.03Q35.22 27.11 35.36 27.17Q35.51 27.23 35.66 27.26Q35.82 27.3 36 27.3Q36.17 27.3 36.33 27.26Q36.48 27.23 36.63 27.17Q36.77 27.11 36.9 27.03Q37.03 26.93 37.15 26.82Q37.26 26.71 37.35 26.57Q37.43 26.45 37.5 26.3Q37.56 26.16 37.59 26Q37.62 25.84 37.62 25.67Q37.62 25.25 37.74 25.05Q37.78 24.98 37.86 24.89Q37.95 24.79 38.13 24.64L38.2 24.57L38.2 24.57Q38.47 24.32 38.63 24.17Q38.92 23.87 39.12 23.57Q39.26 23.36 39.36 23.14Q39.72 22.39 39.72 21.49Q39.72 20.74 39.47 20.08Q39.42 19.96 39.37 19.85Q39.21 19.5 39 19.21Q38.75 18.87 38.42 18.6Q38.28 18.47 38.13 18.37Q37.69 18.07 37.16 17.88Q36.94 17.81 36.71 17.76Q36.26 17.66 35.78 17.66Q35.31 17.66 34.86 17.76Q34.64 17.81 34.42 17.88Q33.89 18.07 33.44 18.37Q33.29 18.47 33.15 18.6Q32.82 18.87 32.58 19.21Q32.36 19.5 32.2 19.85Q32.15 19.96 32.1 20.08Q31.85 20.74 31.85 21.49Q31.85 21.66 31.89 21.82Q31.92 21.97 31.98 22.12Q32.05 22.26 32.13 22.39Q32.22 22.52 32.33 22.64Q32.45 22.75 32.58 22.84Q32.71 22.92 32.85 22.98Q33 23.04 33.15 23.07Q33.31 23.11 33.48 23.11Q33.66 23.11 33.82 23.07Q33.97 23.04 34.12 22.98Q34.26 22.92 34.39 22.84Q34.52 22.75 34.64 22.64Q34.75 22.52 34.84 22.39Q34.92 22.26 34.98 22.12Q35.05 21.97 35.08 21.82ZM34.61 20.32C34.32 20.56 34.11 20.93 34.11 21.49C34.11 21.83 33.83 22.11 33.48 22.11C33.14 22.11 32.85 21.83 32.85 21.49C32.85 20.57 33.22 19.85 33.8 19.35C34.36 18.88 35.08 18.66 35.78 18.66C36.49 18.66 37.21 18.88 37.78 19.35C38.35 19.85 38.72 20.57 38.72 21.49C38.72 22.13 38.55 22.61 38.28 23.02C38.06 23.35 37.76 23.61 37.53 23.82C37.51 23.85 37.48 23.86 37.46 23.89C37.21 24.12 37.01 24.31 36.87 24.56C36.73 24.8 36.62 25.14 36.62 25.67C36.62 26.02 36.34 26.3 36 26.3C35.65 26.3 35.37 26.02 35.37 25.67C35.37 24.95 35.52 24.39 35.78 23.94C36.03 23.5 36.35 23.19 36.62 22.96L36.68 22.9C36.93 22.67 37.11 22.52 37.24 22.32C37.36 22.14 37.46 21.89 37.46 21.49C37.46 20.93 37.25 20.56 36.96 20.32C36.66 20.06 36.23 19.92 35.78 19.92C35.33 19.92 34.91 20.06 34.61 20.32ZM37.32 28.06Q37.22 27.92 37.09 27.81L37.09 27.81Q36.96 27.69 36.82 27.6Q36.69 27.53 36.53 27.48Q36.39 27.42 36.24 27.41Q36.08 27.39 35.92 27.39Q35.76 27.4 35.6 27.44Q35.45 27.48 35.32 27.54Q35.17 27.61 35.05 27.7Q34.91 27.8 34.8 27.92L34.78 27.94Q34.67 28.07 34.58 28.21Q34.51 28.35 34.46 28.5Q34.41 28.64 34.39 28.79Q34.36 28.95 34.37 29.11Q34.38 29.28 34.42 29.42Q34.46 29.57 34.52 29.71Q34.59 29.86 34.68 29.99Q34.78 30.12 34.91 30.24Q35.03 30.35 35.18 30.44Q35.32 30.51 35.46 30.57Q35.61 30.61 35.76 30.64Q35.92 30.66 36.08 30.65Q36.24 30.64 36.4 30.6Q36.55 30.57 36.69 30.5Q36.83 30.43 36.95 30.35Q37.09 30.25 37.21 30.12L37.21 30.1Q37.33 29.98 37.41 29.84Q37.49 29.7 37.54 29.55Q37.59 29.4 37.62 29.25Q37.64 29.1 37.63 28.93Q37.62 28.77 37.58 28.61Q37.54 28.47 37.48 28.33Q37.41 28.18 37.32 28.06ZM36.47 29.44C36.7 29.18 36.68 28.78 36.42 28.55C36.17 28.32 35.77 28.34 35.54 28.6L35.53 28.6C35.3 28.86 35.32 29.26 35.57 29.5C35.83 29.72 36.23 29.71 36.46 29.45L36.47 29.44Z" fill="#8E35FF" fill-opacity="1.000000" fill-rule="evenodd"/>
	</g>
	<path id="Зарегистрироваться" d="M82.96 27.36Q83.54 26.04 83.54 24.27Q83.54 22.49 82.96 21.17Q82.61 20.39 82.05 19.81Q81.67 19.42 81.18 19.12Q79.99 18.39 78.18 18.39Q76.34 18.39 75.15 19.12Q74.67 19.42 74.29 19.81Q73.72 20.38 73.37 21.17Q72.79 22.49 72.79 24.25Q72.79 26.03 73.37 27.35Q73.73 28.15 74.3 28.74Q74.68 29.13 75.15 29.42Q76.34 30.16 78.17 30.16Q79.98 30.16 81.18 29.42Q81.69 29.1 82.09 28.68Q82.63 28.11 82.96 27.36ZM157.59 26.97L158.63 30L160.81 30L156.61 18.52L154.28 18.52L150.14 29.86L145.56 24.09L150.02 18.57L147.8 18.57L143.35 24.11L143.35 18.57L141.3 18.57L141.3 30L143.35 30L143.35 24.2L147.88 30L152.26 30L153.29 26.97L157.59 26.97ZM61.66 18.57L61.66 30L63.7 30L63.7 20.3L68.47 20.3L68.47 30L70.52 30L70.52 18.57L61.66 18.57ZM93.96 28.25L93.96 18.57L87.83 18.57Q87.53 21.5 86.75 23.95Q85.98 26.39 84.97 28.25L84.09 28.25L84.09 33.19L86.07 33.19L86.07 30L93.48 30L93.48 33.19L95.46 33.19L95.46 28.25L93.96 28.25ZM105.58 28.25L105.58 18.57L99.45 18.57Q99.14 21.5 98.37 23.95Q97.59 26.39 96.58 28.25L95.7 28.25L95.7 33.19L97.69 33.19L97.69 30L105.1 30L105.1 33.19L107.08 33.19L107.08 28.25L105.58 28.25ZM108.73 30L115.22 30L115.22 28.27L110.77 28.27L110.77 24.91L114.93 24.91L114.93 23.19L110.77 23.19L110.77 20.28L115.22 20.28L115.22 18.57L108.73 18.57L108.73 30ZM124.14 19.5Q123.13 18.57 120.9 18.57L117.5 18.57L117.5 30L119.54 30L119.54 25.79L120.68 25.79Q122.36 25.79 123.34 25.27Q124.21 24.81 124.64 24.09Q124.69 23.99 124.74 23.89Q124.91 23.56 125.01 23.2Q125.16 22.65 125.16 22.06Q125.16 20.84 124.59 20.01Q124.4 19.73 124.14 19.5ZM125.64 18.57L129.7 24.09L125.43 30L127.67 30L131.75 24.2L131.75 30L133.67 30L133.67 24.2L137.74 30L139.97 30L135.72 24.07L139.78 18.57L137.62 18.57L133.67 24.11L133.67 18.57L131.75 18.57L131.75 24.11L127.8 18.57L125.64 18.57ZM75.72 27.31Q74.95 26.2 74.95 24.27Q74.95 22.33 75.73 21.23Q75.92 20.95 76.18 20.74Q76.93 20.12 78.18 20.12Q79.47 20.12 80.21 20.76Q80.45 20.96 80.63 21.23Q81.38 22.33 81.38 24.27Q81.38 26.2 80.62 27.31Q80.44 27.57 80.2 27.77Q79.46 28.41 78.17 28.41Q76.91 28.41 76.16 27.79Q75.91 27.58 75.72 27.31ZM155.88 21.66Q156.01 22.04 156.07 22.27L157.06 25.21L153.85 25.21L154.86 22.27Q154.9 22.07 155.01 21.71Q155.13 21.34 155.25 20.92Q155.37 20.51 155.45 20.19Q155.51 20.46 155.63 20.87Q155.75 21.28 155.88 21.66ZM119.54 20.27L120.78 20.27Q121.96 20.27 122.52 20.73Q122.61 20.81 122.69 20.9Q123.08 21.35 123.08 22.14Q123.08 22.92 122.69 23.38Q122.56 23.52 122.4 23.64Q121.72 24.09 120.47 24.09L119.54 24.09L119.54 20.27ZM89.18 22.2Q89.4 21.18 89.5 20.32L91.93 20.32L91.93 28.25L87.13 28.25Q87.56 27.4 87.94 26.39Q88.33 25.37 88.65 24.3Q88.97 23.23 89.18 22.2ZM100.8 22.2Q101.01 21.18 101.11 20.32L103.55 20.32L103.55 28.25L98.74 28.25Q99.17 27.4 99.56 26.39Q99.94 25.37 100.26 24.3Q100.58 23.23 100.8 22.2Z" fill="#8E35FF" fill-opacity="1.000000" fill-rule="evenodd"/>
</svg>
