<svg width="24.000000" height="24.000000" viewBox="0 0 24 24" fill="none" xmlns="http://www.w3.org/2000/svg" xmlns:xlink="http://www.w3.org/1999/xlink">
	<desc>
			Created with Pixso.
	</desc>
	<defs>
		<clipPath id="clip143_25195">
			<rect id="Chat" width="24.000000" height="24.000000" fill="white" fill-opacity="0"/>
		</clipPath>
	</defs>
	<rect id="Chat" width="24.000000" height="24.000000" fill="#FFFFFF" fill-opacity="0"/>
	<g clip-path="url(#clip143_25195)">
		<path id="Vector" d="M11.25 2.25C9.1 2.25 6.98 2.39 4.91 2.65C2.9 2.92 1.5 4.67 1.5 6.64L1.5 12.85C1.5 14.83 2.9 16.57 4.91 16.84C5.27 16.89 5.63 16.92 6 16.96L6 21C6 21.14 6.04 21.29 6.12 21.41C6.21 21.53 6.32 21.63 6.46 21.69C6.6 21.75 6.75 21.76 6.89 21.73C7.04 21.7 7.17 21.63 7.28 21.53L9.93 18.87C9.19 18.5 8.58 17.92 8.15 17.22C7.72 16.52 7.5 15.71 7.5 14.89L7.5 10.6C7.5 8.36 9.18 6.36 11.53 6.17C14.34 5.94 17.15 5.94 19.96 6.17C20.31 6.2 20.65 6.27 20.99 6.38C20.87 4.51 19.5 2.9 17.58 2.65C15.51 2.39 13.39 2.25 11.25 2.25ZM11.66 7.67C13.01 7.55 14.37 7.5 15.75 7.5C17.11 7.5 18.47 7.55 19.83 7.67C21.37 7.79 22.5 9.1 22.5 10.6L22.5 14.89C22.5 16.39 21.37 17.71 19.82 17.83L19.5 17.85L19.5 20.25C19.5 20.39 19.45 20.54 19.37 20.66C19.28 20.78 19.17 20.88 19.03 20.94C18.89 21 18.75 21.01 18.6 20.98C18.45 20.95 18.32 20.88 18.21 20.78L15.43 18C14.17 17.99 12.91 17.93 11.67 17.83C10.12 17.71 9 16.39 9 14.89L9 10.6C9 9.1 10.12 7.79 11.66 7.67Z" fill="#B9BCCB" fill-opacity="1.000000" fill-rule="evenodd"/>
	</g>
</svg>
