<svg
    version="1.0" 
    id="Layer_1" 
    xmlns="http://www.w3.org/2000/svg" 
    xmlns:xlink="http://www.w3.org/1999/xlink" 
    viewBox="0 0 64 64" 
    enable-background="new 0 0 64 64" 
    xml:space="preserve">
    <g>
        <path fill="#FFD700" d="M32,4c-3.3,0-6,2.7-6,6c0,1.3,0.4,2.5,1.2,3.5L8,20L0,44h64L56,20L38.8,13.5C39.6,12.5,40,11.3,40,10 C40,6.7,37.3,4,34,4H32z"/>
        <path fill="#FFA500" d="M32,0c-3.9,0-7,3.1-7,7c0,1.7,0.6,3.2,1.6,4.4L6.3,18L0,40h64L57.7,18L39.4,11.4C40.4,10.2,41,8.7,41,7 C41,3.1,37.9,0,34,0H32z"/>
        <polygon fill="#FFD700" points="0,44 8,64 56,64 64,44 "/>
        <circle fill="#FFD700" cx="32" cy="12" r="4"/>
        <circle fill="#FFD700" cx="12" cy="24" r="4"/>
        <circle fill="#FFD700" cx="52" cy="24" r="4"/>
        <circle fill="#FFD700" cx="32" cy="52" r="4"/>
        <circle fill="#FFD700" cx="20" cy="44" r="4"/>
        <circle fill="#FFD700" cx="44" cy="44" r="4"/>
    </g>
</svg>
