<svg width="24.000000" height="24.000000" viewBox="0 0 24 24" fill="none" xmlns="http://www.w3.org/2000/svg" xmlns:xlink="http://www.w3.org/1999/xlink">
	<desc>
			Created with Pixso.
	</desc>
	<defs>
		<clipPath id="clip20_28446">
			<rect id="EYE" width="24.000000" height="24.000000" fill="white" fill-opacity="0"/>
		</clipPath>
	</defs>
	<rect id="EYE" width="24.000000" height="24.000000" fill="#FFFFFF" fill-opacity="0"/>
	<g clip-path="url(#clip20_28446)">
		<path id="Vector" d="M12 15C12.79 15 13.55 14.68 14.12 14.12C14.68 13.56 15 12.79 15 12C15 11.2 14.68 10.43 14.12 9.87C13.55 9.31 12.79 9 12 9C11.2 9 10.44 9.31 9.87 9.87C9.31 10.43 9 11.2 9 12C9 12.79 9.31 13.56 9.87 14.12C10.44 14.68 11.2 15 12 15Z" fill="#B9BCCB" fill-opacity="1.000000" fill-rule="nonzero"/>
		<path id="Vector" d="M1.32 11.44C2.81 6.97 7.02 3.75 12 3.75C16.97 3.75 21.18 6.97 22.67 11.43C22.79 11.8 22.79 12.19 22.67 12.55C21.19 17.02 16.97 20.25 12 20.25C7.03 20.25 2.81 17.02 1.32 12.56C1.2 12.19 1.2 11.8 1.32 11.44L1.32 11.44ZM17.25 12C17.25 13.39 16.69 14.72 15.71 15.71C14.72 16.69 13.39 17.25 12 17.25C10.6 17.25 9.27 16.69 8.28 15.71C7.3 14.72 6.75 13.39 6.75 12C6.75 10.6 7.3 9.27 8.28 8.28C9.27 7.3 10.6 6.75 12 6.75C13.39 6.75 14.72 7.3 15.71 8.28C16.69 9.27 17.25 10.6 17.25 12Z" fill="#B9BCCB" fill-opacity="1.000000" fill-rule="evenodd"/>
	</g>
</svg>
