<svg width="20.000000" height="20.000000" viewBox="0 0 20 20" fill="none" xmlns="http://www.w3.org/2000/svg" xmlns:xlink="http://www.w3.org/1999/xlink">
	<desc>
			Created with Pixso.
	</desc>
	<defs/>
	<path id="Vector" d="M8.35 20C3.6 19.14 0 15.02 0 10.04C0 4.52 4.5 0 10 0C15.5 0 20 4.52 20 10.04C20 15.02 16.39 19.14 11.64 20L11.39 19.78L11.39 12.84L13.44 12.84L13.85 10.06L11.39 10.06L11.39 8.12C11.39 7.32 11.67 6.73 12.78 6.73L14 6.73L14 4.19C13.34 4.1 12.6 4 11.95 4C9.81 4 8.32 5.39 8.32 7.87L8.32 10.06L6 10.06L6 12.84L8.32 12.84L8.32 19.85C8.38 19.85 8.43 19.87 8.49 19.88L8.35 20Z" fill="#8B8E9A" fill-opacity="1.000000" fill-rule="evenodd"/>
</svg>
