<svg width="24.000000" height="24.000000" viewBox="0 0 24 24" fill="none" xmlns="http://www.w3.org/2000/svg" xmlns:xlink="http://www.w3.org/1999/xlink">
	<desc>
			Created with Pixso.
	</desc>
	<defs>
		<clipPath id="clip846_33973">
			<rect id="Frame" width="24.000000" height="24.000000" fill="white" fill-opacity="0"/>
		</clipPath>
	</defs>
	<rect id="Frame" width="24.000000" height="24.000000" fill="#FFFFFF" fill-opacity="0"/>
	<g clip-path="url(#clip846_33973)">
		<path id="Vector" d="M12.96 2.28C12.9 2.2 12.82 2.14 12.73 2.08C12.65 2.03 12.55 2 12.45 1.99C12.35 1.97 12.25 1.98 12.15 2.01C12.05 2.03 11.96 2.08 11.89 2.14C9.97 3.68 8.71 5.89 8.35 8.32C7.69 7.85 7.11 7.27 6.64 6.6C6.58 6.52 6.5 6.44 6.4 6.39C6.3 6.33 6.19 6.3 6.08 6.29C5.98 6.28 5.87 6.3 5.76 6.34C5.66 6.39 5.57 6.44 5.49 6.53C4.17 7.91 3.32 9.67 3.07 11.57C2.82 13.46 3.18 15.39 4.1 17.07C5.02 18.74 6.44 20.08 8.17 20.89C9.91 21.71 11.85 21.94 13.73 21.57C15.6 21.21 17.31 20.25 18.61 18.85C19.91 17.44 20.72 15.67 20.94 13.77C21.16 11.86 20.76 9.95 19.82 8.28C18.87 6.63 17.42 5.31 15.67 4.53C14.6 4.01 13.67 3.24 12.96 2.28ZM15.75 14.25C15.74 14.78 15.62 15.32 15.4 15.82C15.17 16.31 14.84 16.75 14.42 17.1C14.01 17.45 13.53 17.71 13.01 17.85C12.48 18 11.94 18.03 11.4 17.95C10.87 17.86 10.35 17.66 9.91 17.35C9.45 17.05 9.07 16.66 8.79 16.19C8.51 15.73 8.33 15.21 8.27 14.67C8.21 14.14 8.26 13.59 8.43 13.07C9.06 13.53 9.78 13.89 10.56 14.07C10.78 12.71 11.46 11.45 12.49 10.53C13.39 10.64 14.22 11.09 14.82 11.78C15.41 12.46 15.75 13.34 15.75 14.25Z" fill="#FC3A20" fill-opacity="1.000000" fill-rule="evenodd"/>
	</g>
</svg>
