<svg width="65.765625" height="25.515625" viewBox="0 0 65.7656 25.5156" fill="none" xmlns="http://www.w3.org/2000/svg" xmlns:xlink="http://www.w3.org/1999/xlink">
	<desc>
			Created with Pixso.
	</desc>
	<defs/>
	<circle id="Ellipse 12" cx="12.765625" cy="12.750000" r="11.250000" stroke="#DEE3E8" stroke-opacity="1.000000" stroke-width="1.500000"/>
	<path id="Ellipse 13" d="M12.76 1.5Q8.78 1.5 5.68 4Q2.58 6.51 1.76 10.41Q0.93 14.3 2.74 17.85Q4.55 21.4 8.19 23.02Q11.82 24.64 15.67 23.61Q19.52 22.58 21.86 19.35L23.08 20.24Q20.42 23.89 16.06 25.06Q11.7 26.23 7.58 24.39Q3.45 22.56 1.4 18.53Q-0.65 14.51 0.29 10.1Q1.23 5.67 4.74 2.84Q8.25 0 12.76 0L12.76 1.5Z" fill="#8E35FF" fill-opacity="1.000000" fill-rule="evenodd"/>
	<path id="65%" d="M56.24 12.32C54.7 12.32 53.87 11.22 53.87 9.91L53.87 9.29C53.87 7.97 54.73 6.87 56.24 6.87C57.78 6.87 58.59 7.97 58.59 9.29L58.59 9.91C58.59 11.22 57.76 12.32 56.24 12.32ZM41.98 14.94C41.99 17.18 40.37 18.93 37.94 18.91C35.87 18.89 33.69 17.6 33.7 13.32C33.7 9.27 35.39 6.95 38.09 6.95C40.17 6.95 41.62 8.29 41.89 10.13L40.15 10.13C39.91 9.17 39.21 8.48 38.09 8.48C36.39 8.48 35.39 10.05 35.38 12.69L35.46 12.69C36.06 11.71 37.12 11.12 38.35 11.12C40.37 11.12 41.99 12.72 41.98 14.94ZM51.74 14.98C51.74 17.25 50.07 18.91 47.73 18.91C45.6 18.91 43.99 17.56 43.92 15.71L45.62 15.71C45.71 16.71 46.61 17.43 47.73 17.43C49.07 17.43 50.04 16.42 50.04 15.02C50.04 13.6 49.04 12.56 47.66 12.55C46.95 12.55 46.17 12.82 45.73 13.21L44.12 12.97L44.78 7.11L51.17 7.11L51.17 8.62L46.24 8.62L45.87 11.87L45.94 11.87C46.39 11.43 47.19 11.1 48.06 11.1C50.17 11.1 51.74 12.73 51.74 14.98ZM55.77 18.75L54.41 18.75L62.41 7.11L63.77 7.11L55.77 18.75ZM56.24 8.01C55.48 8.01 55.2 8.64 55.2 9.29L55.2 9.91C55.2 10.56 55.47 11.19 56.24 11.19C57 11.19 57.27 10.56 57.27 9.91L57.27 9.29C57.27 8.64 57.03 8.01 56.24 8.01ZM35.6 14.98C35.6 16.29 36.58 17.43 37.94 17.43C39.26 17.43 40.28 16.34 40.28 14.97C40.28 13.62 39.31 12.55 37.98 12.55C36.64 12.55 35.6 13.68 35.6 14.98ZM62.09 18.98C60.56 18.98 59.72 17.87 59.72 16.56L59.72 15.95C59.72 14.64 60.58 13.53 62.09 13.53C63.64 13.53 64.45 14.63 64.45 15.95L64.45 16.56C64.45 17.87 63.62 18.98 62.09 18.98ZM62.09 14.67C61.34 14.67 61.05 15.3 61.05 15.95L61.05 16.56C61.05 17.21 61.32 17.85 62.09 17.85C62.86 17.85 63.12 17.22 63.12 16.56L63.12 15.95C63.12 15.3 62.88 14.67 62.09 14.67Z" fill="#8E35FF" fill-opacity="1.000000" fill-rule="evenodd"/>
</svg>
