<svg width="24.000000" height="24.000000" viewBox="0 0 24 24" fill="none" xmlns="http://www.w3.org/2000/svg" xmlns:xlink="http://www.w3.org/1999/xlink">
	<desc>
			Created with Pixso.
	</desc>
	<defs>
		<clipPath id="clip846_33979">
			<rect id="Frame" width="24.000000" height="24.000000" fill="white" fill-opacity="0"/>
		</clipPath>
	</defs>
	<rect id="Frame" width="24.000000" height="24.000000" fill="#FFFFFF" fill-opacity="0"/>
	<g clip-path="url(#clip846_33979)">
		<path id="Vector" d="M5.56 4.65C5.95 4.55 6.35 4.5 6.75 4.5L17.25 4.5C17.66 4.5 18.05 4.55 18.43 4.65C18.18 4.15 17.8 3.74 17.32 3.44C16.85 3.15 16.3 3 15.75 3L8.25 3C7.69 3 7.14 3.15 6.67 3.44C6.19 3.74 5.81 4.15 5.56 4.65ZM2.25 12C2.25 11.2 2.56 10.43 3.12 9.87C3.69 9.31 4.45 9 5.25 9L18.75 9C19.54 9 20.3 9.31 20.87 9.87C21.43 10.43 21.75 11.2 21.75 12L21.75 18C21.75 18.79 21.43 19.56 20.87 20.12C20.3 20.68 19.54 21 18.75 21L5.25 21C4.45 21 3.69 20.68 3.12 20.12C2.56 19.56 2.25 18.79 2.25 18L2.25 12ZM5.25 7.5C4.83 7.5 4.44 7.55 4.06 7.65C4.31 7.15 4.69 6.74 5.17 6.44C5.64 6.15 6.19 6 6.75 6L17.25 6C17.8 6 18.35 6.15 18.82 6.44C19.3 6.74 19.68 7.15 19.93 7.65C19.54 7.55 19.14 7.5 18.75 7.5L5.25 7.5Z" fill="#8E35FF" fill-opacity="1.000000" fill-rule="nonzero"/>
	</g>
</svg>
