<svg width="24.000000" height="24.000000" viewBox="0 0 24 24" fill="none" xmlns="http://www.w3.org/2000/svg" xmlns:xlink="http://www.w3.org/1999/xlink">
	<desc>
			Created with Pixso.
	</desc>
	<defs>
		<clipPath id="clip143_25198">
			<rect id="Group" width="24.000000" height="24.000000" fill="white" fill-opacity="0"/>
		</clipPath>
	</defs>
	<rect id="Group" width="24.000000" height="24.000000" fill="#FFFFFF" fill-opacity="0"/>
	<g clip-path="url(#clip143_25198)">
		<path id="Vector" d="M9.34 4.1C8.64 4.8 8.25 5.75 8.25 6.75C8.25 7.74 8.64 8.69 9.34 9.39C10.05 10.1 11 10.5 12 10.5C12.99 10.5 13.94 10.1 14.65 9.39C15.35 8.69 15.75 7.74 15.75 6.75C15.75 5.75 15.35 4.8 14.65 4.1C13.94 3.39 12.99 3 12 3C11 3 10.05 3.39 9.34 4.1ZM3.12 7.62C2.56 8.18 2.25 8.95 2.25 9.75C2.25 10.54 2.56 11.31 3.12 11.87C3.69 12.43 4.45 12.75 5.25 12.75C6.04 12.75 6.8 12.43 7.37 11.87C7.93 11.31 8.25 10.54 8.25 9.75C8.25 8.95 7.93 8.18 7.37 7.62C6.8 7.06 6.04 6.75 5.25 6.75C4.45 6.75 3.69 7.06 3.12 7.62ZM16.62 7.62C16.06 8.18 15.75 8.95 15.75 9.75C15.75 10.54 16.06 11.31 16.62 11.87C17.19 12.43 17.95 12.75 18.75 12.75C19.54 12.75 20.3 12.43 20.87 11.87C21.43 11.31 21.75 10.54 21.75 9.75C21.75 8.95 21.43 8.18 20.87 7.62C20.3 7.06 19.54 6.75 18.75 6.75C17.95 6.75 17.19 7.06 16.62 7.62ZM8.75 12.82C7.76 13.37 6.92 14.16 6.3 15.11L6.3 15.11C5.48 16.42 5.12 17.96 5.29 19.5C5.3 19.61 5.34 19.72 5.41 19.82C5.47 19.92 5.56 20 5.66 20.06C7.53 21.14 9.69 21.75 12 21.75C14.22 21.75 16.41 21.17 18.33 20.06C18.43 20 18.52 19.92 18.58 19.82C18.65 19.72 18.69 19.61 18.71 19.5C18.81 18.55 18.71 17.6 18.43 16.69C18.14 15.78 17.66 14.95 17.03 14.25C16.39 13.53 15.62 12.97 14.75 12.58C13.89 12.19 12.94 12 12 12C10.86 12 9.75 12.28 8.75 12.82ZM3.77 19.39C3.63 17.57 4.09 15.77 5.08 14.25C4.57 14.27 4.08 14.39 3.63 14.61C3.17 14.83 2.76 15.14 2.43 15.51C2.1 15.89 1.85 16.33 1.69 16.81C1.53 17.29 1.47 17.79 1.51 18.3L1.52 18.42C1.53 18.53 1.57 18.63 1.63 18.71C1.7 18.8 1.79 18.87 1.89 18.9L2.01 18.94C2.58 19.14 3.17 19.29 3.77 19.39ZM18.91 14.25C19.9 15.77 20.36 17.57 20.22 19.39C20.83 19.29 21.42 19.14 21.98 18.94L22.1 18.9C22.2 18.87 22.29 18.8 22.36 18.71C22.42 18.63 22.46 18.53 22.47 18.42L22.48 18.3C22.52 17.79 22.46 17.29 22.3 16.81C22.14 16.33 21.89 15.89 21.56 15.51C21.23 15.14 20.82 14.83 20.36 14.61C19.91 14.39 19.42 14.27 18.91 14.25Z" fill="#B9BCCB" fill-opacity="1.000000" fill-rule="evenodd"/>
		<path id="Vector" d="M15.73 7.12C15.74 7 15.75 6.87 15.75 6.75C15.75 5.75 15.35 4.8 14.65 4.1C13.94 3.39 12.99 3 12 3C11 3 10.05 3.39 9.34 4.1C8.64 4.8 8.25 5.75 8.25 6.75C8.25 6.87 8.25 7 8.26 7.12C8.34 7.92 8.68 8.67 9.22 9.26C9.26 9.31 9.3 9.35 9.34 9.39C10.05 10.1 11 10.5 12 10.5C12.99 10.5 13.94 10.1 14.65 9.39C14.69 9.35 14.73 9.31 14.77 9.26C15.31 8.67 15.65 7.92 15.73 7.12ZM8.25 9.66C8.22 8.89 7.91 8.17 7.37 7.62C7.35 7.6 7.33 7.59 7.32 7.57C6.76 7.04 6.02 6.75 5.25 6.75C4.45 6.75 3.69 7.06 3.12 7.62C2.56 8.18 2.25 8.95 2.25 9.75C2.25 10.54 2.56 11.31 3.12 11.87C3.69 12.43 4.45 12.75 5.25 12.75C6.04 12.75 6.8 12.43 7.37 11.87C7.93 11.31 8.25 10.54 8.25 9.75C8.25 9.71 8.25 9.69 8.25 9.66ZM3.75 14.56C4.17 14.38 4.62 14.27 5.08 14.25C4.85 14.6 4.65 14.97 4.48 15.35C4.05 16.31 3.8 17.33 3.75 18.37C3.74 18.71 3.75 19.04 3.77 19.39C3.43 19.33 3.09 19.26 2.75 19.17C2.5 19.1 2.25 19.03 2.01 18.94L1.89 18.9C1.79 18.87 1.7 18.8 1.63 18.71C1.57 18.63 1.53 18.53 1.52 18.42L1.51 18.3C1.47 17.79 1.53 17.29 1.69 16.81C1.85 16.33 2.1 15.89 2.43 15.51C2.76 15.14 3.17 14.83 3.63 14.61C3.67 14.6 3.71 14.57 3.75 14.56ZM3.07 16.31Q2.96 16.46 2.86 16.62Q2.73 16.86 2.64 17.13Q2.54 17.41 2.51 17.69Q2.49 17.87 2.5 18.06Q2.63 18.1 2.76 18.14Q2.77 18.04 2.78 17.95Q2.84 17.2 3.03 16.46Q3.05 16.39 3.07 16.31ZM6.3 15.11C5.48 16.42 5.12 17.96 5.29 19.5C5.3 19.61 5.34 19.72 5.41 19.82C5.47 19.92 5.56 20 5.66 20.06C7.53 21.14 9.69 21.75 12 21.75C14.22 21.75 16.41 21.17 18.33 20.06C18.43 20 18.52 19.92 18.58 19.82C18.65 19.72 18.69 19.61 18.71 19.5C18.81 18.55 18.71 17.6 18.43 16.69C18.14 15.78 17.66 14.95 17.03 14.25C16.39 13.53 15.62 12.97 14.75 12.58C13.89 12.19 12.94 12 12 12C10.86 12 9.75 12.28 8.75 12.82C7.76 13.37 6.92 14.16 6.3 15.11L6.3 15.11ZM7.19 15.59L7.15 15.65Q6.89 16.07 6.7 16.51Q6.51 16.96 6.4 17.44Q6.28 17.93 6.25 18.42Q6.23 18.84 6.27 19.26Q6.9 19.61 7.57 19.89Q8.23 20.15 8.92 20.34Q9.44 20.48 9.96 20.57Q10.96 20.75 12 20.75Q12.76 20.75 13.52 20.65Q14.28 20.55 15.02 20.35Q15.76 20.15 16.47 19.86Q17.11 19.6 17.72 19.26Q17.77 18.71 17.72 18.17Q17.66 17.58 17.48 17Q17.29 16.41 16.99 15.89Q16.69 15.37 16.28 14.91Q15.87 14.45 15.39 14.1Q14.91 13.75 14.34 13.5Q13.79 13.25 13.21 13.12Q12.62 13 12 13Q11.63 13 11.28 13.04Q10.92 13.08 10.57 13.17Q10.22 13.26 9.88 13.39Q9.55 13.53 9.23 13.7Q8.91 13.88 8.62 14.09Q8.33 14.3 8.07 14.54Q7.8 14.79 7.57 15.07Q7.37 15.32 7.19 15.59ZM19.51 15.35C19.94 16.31 20.19 17.33 20.24 18.37C20.25 18.71 20.25 19.04 20.22 19.39C20.57 19.33 20.91 19.26 21.24 19.17C21.49 19.1 21.74 19.03 21.98 18.94L22.1 18.9C22.2 18.87 22.29 18.8 22.36 18.71C22.42 18.63 22.46 18.53 22.47 18.42L22.48 18.3C22.52 17.79 22.46 17.29 22.3 16.81C22.14 16.33 21.89 15.89 21.56 15.51C21.23 15.14 20.82 14.83 20.36 14.61C20.32 14.6 20.28 14.57 20.25 14.56C19.82 14.38 19.37 14.27 18.91 14.25C19.14 14.6 19.34 14.97 19.51 15.35ZM20.92 16.31Q20.94 16.39 20.96 16.46Q21.15 17.2 21.21 17.95Q21.22 18.04 21.23 18.14Q21.36 18.1 21.5 18.06Q21.5 17.85 21.48 17.67Q21.44 17.39 21.35 17.13Q21.26 16.86 21.13 16.62Q21.03 16.46 20.92 16.31ZM15.75 9.66C15.75 9.69 15.75 9.71 15.75 9.75C15.75 10.54 16.06 11.31 16.62 11.87C17.19 12.43 17.95 12.75 18.75 12.75C19.54 12.75 20.3 12.43 20.87 11.87C21.43 11.31 21.75 10.54 21.75 9.75C21.75 8.95 21.43 8.18 20.87 7.62C20.3 7.06 19.54 6.75 18.75 6.75C17.97 6.75 17.23 7.04 16.67 7.57C16.66 7.59 16.64 7.6 16.62 7.62C16.08 8.17 15.77 8.89 15.75 9.66ZM9.71 5.21Q9.86 5 10.05 4.8Q10.25 4.6 10.47 4.46Q10.69 4.31 10.94 4.21Q11.19 4.1 11.46 4.05Q11.72 4 12 4Q12.27 4 12.53 4.05Q12.8 4.1 13.05 4.21Q13.3 4.31 13.52 4.46Q13.75 4.6 13.94 4.8Q14.13 5 14.28 5.21Q14.43 5.44 14.53 5.69Q14.64 5.95 14.69 6.21Q14.75 6.47 14.75 6.75Q14.75 7.02 14.69 7.28Q14.64 7.54 14.53 7.8Q14.43 8.05 14.28 8.28Q14.13 8.5 13.94 8.69Q13.75 8.89 13.52 9.03Q13.3 9.18 13.05 9.28Q12.8 9.39 12.53 9.44Q12.27 9.5 12 9.5Q11.72 9.5 11.46 9.44Q11.19 9.39 10.94 9.28Q10.69 9.18 10.47 9.03Q10.25 8.89 10.05 8.69Q9.86 8.5 9.71 8.28Q9.56 8.05 9.46 7.8Q9.35 7.54 9.3 7.28Q9.25 7.02 9.25 6.75Q9.25 6.47 9.3 6.21Q9.35 5.95 9.46 5.69Q9.56 5.44 9.71 5.21ZM3.58 8.64Q3.69 8.47 3.83 8.33Q3.97 8.19 4.14 8.08Q4.3 7.97 4.48 7.89Q4.66 7.82 4.85 7.78Q5.05 7.75 5.25 7.75Q5.44 7.75 5.64 7.78Q5.83 7.82 6.01 7.89Q6.19 7.97 6.36 8.08Q6.52 8.19 6.66 8.33Q6.8 8.47 6.91 8.64Q7.02 8.8 7.09 8.98Q7.17 9.17 7.21 9.35Q7.25 9.55 7.25 9.75Q7.25 9.94 7.21 10.14Q7.17 10.32 7.09 10.51Q7.02 10.69 6.91 10.85Q6.8 11.02 6.66 11.16Q6.52 11.3 6.36 11.41Q6.19 11.52 6.01 11.6Q5.83 11.67 5.64 11.71Q5.44 11.75 5.25 11.75Q5.05 11.75 4.85 11.71Q4.66 11.67 4.48 11.6Q4.3 11.52 4.14 11.41Q3.97 11.3 3.83 11.16Q3.69 11.02 3.58 10.85Q3.47 10.69 3.4 10.51Q3.32 10.32 3.28 10.14Q3.25 9.94 3.25 9.75Q3.25 9.55 3.28 9.35Q3.32 9.17 3.4 8.98Q3.47 8.8 3.58 8.64ZM17.08 8.64Q17.19 8.47 17.33 8.33Q17.47 8.19 17.64 8.08Q17.8 7.97 17.98 7.89Q18.16 7.82 18.35 7.78Q18.55 7.75 18.75 7.75Q18.94 7.75 19.14 7.78Q19.33 7.82 19.51 7.89Q19.69 7.97 19.86 8.08Q20.02 8.19 20.16 8.33Q20.3 8.47 20.41 8.64Q20.52 8.8 20.59 8.98Q20.67 9.17 20.71 9.35Q20.75 9.55 20.75 9.75Q20.75 9.94 20.71 10.14Q20.67 10.32 20.59 10.51Q20.52 10.69 20.41 10.85Q20.3 11.02 20.16 11.16Q20.02 11.3 19.86 11.41Q19.69 11.52 19.51 11.6Q19.33 11.67 19.14 11.71Q18.94 11.75 18.75 11.75Q18.55 11.75 18.35 11.71Q18.16 11.67 17.98 11.6Q17.8 11.52 17.64 11.41Q17.47 11.3 17.33 11.16Q17.19 11.02 17.08 10.85Q16.97 10.69 16.9 10.51Q16.82 10.32 16.78 10.14Q16.75 9.94 16.75 9.75Q16.75 9.55 16.78 9.35Q16.82 9.17 16.9 8.98Q16.97 8.8 17.08 8.64Z" fill="#B9BCCB" fill-opacity="1.000000" fill-rule="evenodd"/>
	</g>
</svg>
