<svg width="112.281250" height="121.750000" viewBox="0 0 112.281 121.75" fill="none" xmlns="http://www.w3.org/2000/svg" xmlns:xlink="http://www.w3.org/1999/xlink">
	<desc>
			Created with Pixso.
	</desc>
	<defs>
		<filter id="filter_846_34039_dd" x="0.000000" y="0.000000" width="112.281250" height="121.750000" filterUnits="userSpaceOnUse" color-interpolation-filters="sRGB">
			<feFlood flood-opacity="0" result="BackgroundImageFix"/>
			<feColorMatrix in="SourceAlpha" type="matrix" values="0 0 0 0 0 0 0 0 0 0 0 0 0 0 0 0 0 0 127 0" result="hardAlpha"/>
			<feOffset dx="4" dy="4"/>
			<feGaussianBlur stdDeviation="6.83333"/>
			<feComposite in2="hardAlpha" operator="out" k2="-1" k3="1"/>
			<feColorMatrix type="matrix" values="0 0 0 0 0 0 0 0 0 0 0 0 0 0 0 0 0 0 0.051 0"/>
			<feBlend mode="normal" in2="BackgroundImageFix" result="effect_dropShadow_1"/>
			<feBlend mode="normal" in="SourceGraphic" in2="effect_dropShadow_1" result="shape"/>
		</filter>
		<clipPath id="clip846_34040">
			<rect id="Frame" width="24.000000" height="24.000000" transform="translate(40.140625 44.875000)" fill="white" fill-opacity="0"/>
		</clipPath>
		<radialGradient gradientTransform="translate(52.1406 56.875) rotate(90) scale(50 50)" cx="0.000000" cy="0.000000" r="1.000000" id="paint_angular_846_34038_0" gradientUnits="userSpaceOnUse">
			<stop stop-color="#FAC602"/>
			<stop offset="1.000000" stop-color="#FAC602" stop-opacity="0.400000"/>
		</radialGradient>
	</defs>
	<path id="Polygon 13" d="M48.14 9.18L12.83 29.56C10.36 30.99 8.83 33.63 8.83 36.49L8.83 77.25C8.83 80.11 10.36 82.75 12.83 84.18L48.14 104.56C50.61 105.99 53.66 105.99 56.14 104.56L91.44 84.18C93.91 82.75 95.44 80.11 95.44 77.25L95.44 36.49C95.44 33.63 93.91 30.99 91.44 29.56L56.14 9.18C53.66 7.75 50.61 7.75 48.14 9.18Z" fill="url(#paint_angular_846_34038_0)" fill-opacity="1.000000" fill-rule="evenodd"/>
	<path id="Polygon 13" d="M12.83 29.56C10.36 30.99 8.83 33.63 8.83 36.49L8.83 77.25C8.83 80.11 10.36 82.75 12.83 84.18L48.14 104.56C50.61 105.99 53.66 105.99 56.14 104.56L91.44 84.18C93.91 82.75 95.44 80.11 95.44 77.25L95.44 36.49C95.44 33.63 93.91 30.99 91.44 29.56L56.14 9.18C53.66 7.75 50.61 7.75 48.14 9.18L12.83 29.56ZM14.83 33.03C13.6 33.74 12.83 35.06 12.83 36.49L12.83 77.25C12.83 78.68 13.6 80 14.83 80.71L50.14 101.1C51.37 101.81 52.9 101.81 54.14 101.1L89.44 80.71C90.67 80 91.44 78.68 91.44 77.25L91.44 36.49C91.44 35.06 90.67 33.74 89.44 33.03L54.14 12.64C52.9 11.93 51.37 11.93 50.14 12.64L14.83 33.03Z" fill="#FAC602" fill-opacity="1.000000" fill-rule="evenodd"/>
	<g filter="url(#filter_846_34039_dd)">
		<path id="Polygon 14" d="M50.14 18.03L19.5 35.71C18.26 36.43 17.5 37.75 17.5 39.18L17.5 74.56C17.5 75.99 18.26 77.31 19.5 78.03L50.14 95.71C51.37 96.43 52.9 96.43 54.14 95.71L84.78 78.03C86.01 77.31 86.78 75.99 86.78 74.56L86.78 39.18C86.78 37.75 86.01 36.43 84.78 35.71L54.14 18.03C52.9 17.31 51.37 17.31 50.14 18.03Z" fill="#FFFFFF" fill-opacity="0.500000" fill-rule="evenodd"/>
		<path id="Polygon 14" d="M19.5 35.71C18.26 36.43 17.5 37.75 17.5 39.18L17.5 74.56C17.5 75.99 18.26 77.31 19.5 78.03L50.14 95.71C51.37 96.43 52.9 96.43 54.14 95.71L84.78 78.03C86.01 77.31 86.78 75.99 86.78 74.56L86.78 39.18C86.78 37.75 86.01 36.43 84.78 35.71L54.14 18.03C52.9 17.31 51.37 17.31 50.14 18.03L19.5 35.71ZM19 34.85C17.45 35.75 16.5 37.39 16.5 39.18L16.5 74.56C16.5 76.35 17.45 78 19 78.89L49.64 96.58C51.18 97.47 53.09 97.47 54.64 96.58L85.28 78.89C86.82 78 87.78 76.35 87.78 74.56L87.78 39.18C87.78 37.39 86.82 35.75 85.28 34.85L54.64 17.16C53.09 16.27 51.18 16.27 49.64 17.16L19 34.85Z" fill="#FFFFFF" fill-opacity="1.000000" fill-rule="evenodd"/>
	</g>
	<g style="mix-blend-mode:multiply">
		<rect id="Frame" width="24.000000" height="24.000000" transform="translate(40.140625 44.875000)" fill="#FFFFFF" fill-opacity="0"/>
		<g clip-path="url(#clip846_34040)">
			<path id="Vector" d="M54.14 48.87L54.14 51.44C54.14 51.7 54.3 51.92 54.55 52.02C63.07 55.24 61.04 66.87 55.14 66.87L49.14 66.87C43.23 66.87 41.2 55.24 49.72 52.02C49.96 51.92 50.14 51.7 50.14 51.44L50.14 48.87L54.14 48.87Z" stroke="#FAC602" stroke-opacity="1.000000" stroke-width="1.500000" stroke-linejoin="round"/>
			<path id="Vector" d="M46.14 54.87L58.14 54.87" stroke="#FAC602" stroke-opacity="1.000000" stroke-width="1.500000"/>
			<path id="Vector" d="M49.14 46.87L55.14 46.87" stroke="#FAC602" stroke-opacity="1.000000" stroke-width="1.500000" stroke-linecap="round"/>
			<path id="Vector" d="M51.8 57.87L50.14 60.87L54.14 60.87L52.47 63.87" stroke="#FAC602" stroke-opacity="1.000000" stroke-width="1.500000" stroke-linejoin="round" stroke-linecap="round"/>
		</g>
	</g>
</svg>
