<svg width="35.929688" height="38.976562" viewBox="0 0 35.9297 38.9766" fill="none" xmlns="http://www.w3.org/2000/svg" xmlns:xlink="http://www.w3.org/1999/xlink">
	<desc>
			Created with Pixso.
	</desc>
	<defs>
		<filter id="filter_846_33932_dd" x="0.000000" y="0.000000" width="35.929688" height="38.976562" filterUnits="userSpaceOnUse" color-interpolation-filters="sRGB">
			<feFlood flood-opacity="0" result="BackgroundImageFix"/>
			<feColorMatrix in="SourceAlpha" type="matrix" values="0 0 0 0 0 0 0 0 0 0 0 0 0 0 0 0 0 0 127 0" result="hardAlpha"/>
			<feOffset dx="1.28" dy="1.28"/>
			<feGaussianBlur stdDeviation="2.18667"/>
			<feComposite in2="hardAlpha" operator="out" k2="-1" k3="1"/>
			<feColorMatrix type="matrix" values="0 0 0 0 0 0 0 0 0 0 0 0 0 0 0 0 0 0 0.051 0"/>
			<feBlend mode="normal" in2="BackgroundImageFix" result="effect_dropShadow_1"/>
			<feBlend mode="normal" in="SourceGraphic" in2="effect_dropShadow_1" result="shape"/>
		</filter>
		<clipPath id="clip846_33933">
			<rect id="Language" width="16.000000" height="16.000000" transform="translate(8.683594 10.203125)" fill="white" fill-opacity="0"/>
		</clipPath>
		<radialGradient gradientTransform="translate(16.6836 18.2031) rotate(90) scale(16 16)" cx="0.000000" cy="0.000000" r="1.000000" id="paint_angular_846_33931_0" gradientUnits="userSpaceOnUse">
			<stop stop-color="#F16DFD"/>
			<stop offset="1.000000" stop-color="#F16DFD" stop-opacity="0.400000"/>
		</radialGradient>
	</defs>
	<path id="Polygon 13" d="M15.4 2.94L4.1 9.46C3.31 9.92 2.82 10.76 2.82 11.67L2.82 24.72C2.82 25.64 3.31 26.48 4.1 26.94L15.4 33.46C16.19 33.92 17.17 33.92 17.96 33.46L29.26 26.94C30.05 26.48 30.53 25.64 30.53 24.72L30.53 11.67C30.53 10.76 30.05 9.92 29.26 9.46L17.96 2.94C17.17 2.48 16.19 2.48 15.4 2.94Z" fill="url(#paint_angular_846_33931_0)" fill-opacity="1.000000" fill-rule="evenodd"/>
	<path id="Polygon 13" d="M4.1 9.46C3.31 9.92 2.82 10.76 2.82 11.67L2.82 24.72C2.82 25.64 3.31 26.48 4.1 26.94L15.4 33.46C16.19 33.92 17.17 33.92 17.96 33.46L29.26 26.94C30.05 26.48 30.53 25.64 30.53 24.72L30.53 11.67C30.53 10.76 30.05 9.92 29.26 9.46L17.96 2.94C17.17 2.48 16.19 2.48 15.4 2.94L4.1 9.46ZM4.74 10.57C4.35 10.8 4.1 11.22 4.1 11.67L4.1 24.72C4.1 25.17 4.35 25.6 4.74 25.83L16.04 32.35C16.44 32.58 16.92 32.58 17.32 32.35L28.62 25.83C29.01 25.6 29.26 25.17 29.26 24.72L29.26 11.67C29.26 11.22 29.01 10.8 28.62 10.57L17.32 4.04C16.92 3.82 16.44 3.82 16.04 4.04L4.74 10.57Z" fill="#F36DFF" fill-opacity="1.000000" fill-rule="evenodd"/>
	<g filter="url(#filter_846_33932_dd)">
		<path id="Polygon 14" d="M16.04 5.77L6.23 11.43C5.83 11.66 5.59 12.08 5.59 12.54L5.59 23.86C5.59 24.32 5.83 24.75 6.23 24.97L16.04 30.64C16.43 30.86 16.92 30.86 17.32 30.64L27.12 24.97C27.52 24.75 27.76 24.32 27.76 23.86L27.76 12.54C27.76 12.08 27.52 11.66 27.12 11.43L17.32 5.77C16.92 5.54 16.43 5.54 16.04 5.77Z" fill="#FFFFFF" fill-opacity="0.500000" fill-rule="evenodd"/>
		<path id="Polygon 14" d="M6.23 11.43C5.83 11.66 5.59 12.08 5.59 12.54L5.59 23.86C5.59 24.32 5.83 24.75 6.23 24.97L16.04 30.64C16.43 30.86 16.92 30.86 17.32 30.64L27.12 24.97C27.52 24.75 27.76 24.32 27.76 23.86L27.76 12.54C27.76 12.08 27.52 11.66 27.12 11.43L17.32 5.77C16.92 5.54 16.43 5.54 16.04 5.77L6.23 11.43ZM6.07 11.15C5.58 11.44 5.27 11.97 5.27 12.54L5.27 23.86C5.27 24.43 5.58 24.96 6.07 25.25L15.88 30.91C16.37 31.2 16.98 31.2 17.48 30.91L27.28 25.25C27.78 24.96 28.08 24.43 28.08 23.86L28.08 12.54C28.08 11.97 27.78 11.44 27.28 11.15L17.48 5.5C16.98 5.21 16.37 5.21 15.88 5.5L6.07 11.15Z" fill="#FFFFFF" fill-opacity="1.000000" fill-rule="evenodd"/>
	</g>
	<g style="mix-blend-mode:multiply">
		<rect id="Language" width="16.000000" height="16.000000" transform="translate(8.683594 10.203125)" fill="#FFFFFF" fill-opacity="0"/>
		<g clip-path="url(#clip846_33933)">
			<path id="Vector" d="M14.68 11.7C14.81 11.7 14.94 11.75 15.03 11.85C15.13 11.94 15.18 12.07 15.18 12.2L15.18 13.21C16.37 13.22 17.56 13.3 18.74 13.45C18.81 13.46 18.87 13.48 18.92 13.51C18.98 13.54 19.03 13.59 19.07 13.64C19.11 13.69 19.14 13.75 19.16 13.82C19.18 13.88 19.18 13.94 19.17 14.01C19.17 14.07 19.15 14.14 19.11 14.19C19.08 14.25 19.04 14.3 18.99 14.34C18.93 14.38 18.87 14.41 18.81 14.42C18.75 14.45 18.68 14.45 18.62 14.44C18.18 14.39 17.73 14.34 17.29 14.31C16.9 15.82 16.23 17.25 15.31 18.52C15.52 18.78 15.75 19.02 15.98 19.26C16.07 19.35 16.12 19.48 16.12 19.61C16.12 19.75 16.07 19.87 15.97 19.96C15.88 20.06 15.75 20.11 15.62 20.11C15.48 20.1 15.36 20.06 15.26 19.96C15.06 19.75 14.87 19.54 14.68 19.32C13.63 20.55 12.35 21.57 10.91 22.31C10.79 22.37 10.65 22.39 10.53 22.35C10.4 22.3 10.3 22.21 10.23 22.1C10.17 21.98 10.16 21.84 10.2 21.71C10.24 21.59 10.33 21.48 10.45 21.42C11.83 20.71 13.05 19.72 14.05 18.52C13.46 17.71 12.98 16.85 12.6 15.93C12.56 15.81 12.56 15.67 12.61 15.55C12.66 15.43 12.76 15.34 12.88 15.28C13 15.24 13.14 15.24 13.26 15.28C13.38 15.34 13.48 15.43 13.53 15.55C13.84 16.3 14.22 17.01 14.68 17.68C15.4 16.63 15.94 15.46 16.27 14.24C14.42 14.14 12.58 14.21 10.74 14.44C10.61 14.46 10.48 14.42 10.37 14.34C10.27 14.26 10.2 14.14 10.18 14.01C10.17 13.88 10.2 13.75 10.28 13.64C10.37 13.53 10.48 13.46 10.62 13.45C11.8 13.3 12.99 13.22 14.18 13.21L14.18 12.2C14.18 12.07 14.23 11.94 14.33 11.85C14.42 11.75 14.55 11.7 14.68 11.7ZM19.18 16.2C19.27 16.2 19.37 16.22 19.45 16.28C19.53 16.33 19.59 16.4 19.63 16.49L23.13 23.99C23.16 24.05 23.17 24.11 23.18 24.17C23.18 24.25 23.17 24.31 23.15 24.37C23.13 24.43 23.09 24.49 23.05 24.53C23 24.58 22.95 24.62 22.89 24.65C22.77 24.71 22.63 24.71 22.51 24.67C22.38 24.62 22.28 24.53 22.23 24.41L21.43 22.7L16.93 22.7L16.13 24.41C16.08 24.53 15.98 24.62 15.85 24.67C15.73 24.71 15.59 24.71 15.47 24.65C15.35 24.6 15.25 24.5 15.21 24.37C15.16 24.25 15.17 24.1 15.23 23.99L18.73 16.49C18.76 16.4 18.83 16.33 18.91 16.28C18.99 16.22 19.08 16.2 19.18 16.2ZM17.4 21.7L20.96 21.7L19.18 17.88L17.4 21.7Z" fill="#F26DFF" fill-opacity="1.000000" fill-rule="evenodd"/>
		</g>
	</g>
</svg>
