<svg width="18.750000" height="18.750000" viewBox="0 0 18.75 18.75" fill="none" xmlns="http://www.w3.org/2000/svg" xmlns:xlink="http://www.w3.org/1999/xlink">
	<desc>
			Created with Pixso.
	</desc>
	<defs/>
	<path id="Vector" d="M12.37 9.37C12.37 9.96 12.19 10.54 11.87 11.03C11.53 11.53 11.07 11.92 10.52 12.14C9.97 12.37 9.37 12.42 8.78 12.32C8.2 12.2 7.67 11.91 7.25 11.5C6.83 11.07 6.54 10.53 6.43 9.96C6.31 9.37 6.37 8.77 6.6 8.22C6.83 7.67 7.21 7.21 7.7 6.88C8.2 6.55 8.78 6.37 9.37 6.37C10.17 6.37 10.93 6.69 11.49 7.25C12.05 7.82 12.37 8.57 12.37 9.37ZM18.75 5.25L18.75 13.5C18.75 14.89 18.19 16.22 17.21 17.21C16.22 18.19 14.89 18.75 13.5 18.75L5.25 18.75C3.85 18.75 2.52 18.19 1.53 17.21C0.55 16.22 0 14.89 0 13.5L0 5.25C0 3.85 0.55 2.52 1.53 1.53C2.52 0.55 3.85 0 5.25 0L13.5 0C14.89 0 16.22 0.55 17.21 1.53C18.19 2.52 18.75 3.85 18.75 5.25ZM13.87 9.37C13.87 8.48 13.6 7.61 13.11 6.87C12.62 6.13 11.91 5.55 11.09 5.21C10.27 4.87 9.37 4.78 8.49 4.96C7.62 5.13 6.82 5.56 6.19 6.19C5.56 6.82 5.13 7.62 4.96 8.5C4.78 9.36 4.87 10.27 5.21 11.09C5.55 11.92 6.13 12.62 6.87 13.11C7.61 13.6 8.48 13.87 9.37 13.87C10.56 13.87 11.71 13.39 12.55 12.55C13.39 11.71 13.87 10.57 13.87 9.37ZM15.37 4.5C15.37 4.28 15.3 4.06 15.18 3.87C15.06 3.68 14.88 3.54 14.67 3.46C14.47 3.37 14.25 3.35 14.03 3.39C13.81 3.43 13.61 3.54 13.45 3.7C13.29 3.85 13.19 4.06 13.14 4.28C13.1 4.5 13.12 4.72 13.21 4.92C13.29 5.13 13.44 5.31 13.62 5.43C13.8 5.56 14.02 5.62 14.25 5.62C14.54 5.62 14.83 5.5 15.04 5.29C15.25 5.08 15.37 4.79 15.37 4.5Z" fill="#8B8E9A" fill-opacity="1.000000" fill-rule="nonzero"/>
</svg>
