<svg width="24.000000" height="24.000000" viewBox="0 0 24 24" fill="none" xmlns="http://www.w3.org/2000/svg" xmlns:xlink="http://www.w3.org/1999/xlink">
	<desc>
			Created with Pixso.
	</desc>
	<defs>
		<clipPath id="clip92_31492">
			<rect id="Language" width="24.000000" height="24.000000" fill="white" fill-opacity="0"/>
		</clipPath>
	</defs>
	<rect id="Language" width="24.000000" height="24.000000" fill="#FFFFFF" fill-opacity="0"/>
	<g clip-path="url(#clip92_31492)">
		<path id="Vector" d="M9 2.25C9.19 2.25 9.39 2.32 9.53 2.46C9.67 2.6 9.75 2.8 9.75 3L9.75 4.5C11.53 4.53 13.32 4.65 15.09 4.87C15.19 4.89 15.28 4.92 15.37 4.96C15.45 5.01 15.53 5.08 15.59 5.16C15.65 5.24 15.69 5.32 15.72 5.42C15.75 5.51 15.75 5.61 15.74 5.71C15.73 5.81 15.7 5.9 15.65 5.99C15.6 6.07 15.53 6.15 15.46 6.21C15.38 6.27 15.29 6.32 15.19 6.34C15.1 6.36 15 6.37 14.9 6.36C14.24 6.28 13.58 6.21 12.91 6.15C12.33 8.43 11.32 10.57 9.94 12.48C10.26 12.86 10.59 13.23 10.94 13.59C11.08 13.73 11.16 13.92 11.16 14.12C11.16 14.32 11.08 14.5 10.93 14.64C10.79 14.78 10.6 14.86 10.4 14.86C10.2 14.86 10.01 14.78 9.87 14.64C9.57 14.33 9.28 14.01 9 13.68C7.42 15.53 5.5 17.05 3.34 18.17C3.16 18.25 2.96 18.28 2.77 18.21C2.58 18.15 2.42 18.02 2.33 17.84C2.24 17.67 2.22 17.46 2.28 17.27C2.34 17.08 2.48 16.92 2.65 16.83C4.73 15.76 6.56 14.28 8.05 12.48C7.17 11.28 6.45 9.97 5.89 8.6C5.82 8.41 5.82 8.21 5.9 8.03C5.98 7.85 6.12 7.71 6.3 7.63C6.48 7.56 6.69 7.56 6.87 7.63C7.05 7.71 7.19 7.85 7.27 8.03C7.73 9.15 8.31 10.22 9 11.22C10.07 9.64 10.88 7.89 11.39 6.06C8.62 5.92 5.84 6.02 3.09 6.36C2.89 6.39 2.69 6.33 2.53 6.21C2.38 6.09 2.28 5.91 2.25 5.71C2.23 5.51 2.28 5.32 2.4 5.16C2.53 5 2.71 4.89 2.9 4.87C4.67 4.65 6.46 4.53 8.25 4.5L8.25 3C8.25 2.8 8.32 2.6 8.46 2.46C8.6 2.32 8.8 2.25 9 2.25ZM15.75 9C15.89 9 16.03 9.03 16.15 9.11C16.27 9.19 16.37 9.3 16.42 9.42L21.67 20.67C21.72 20.77 21.74 20.86 21.75 20.96C21.75 21.06 21.73 21.16 21.7 21.25C21.67 21.35 21.62 21.43 21.55 21.5C21.48 21.57 21.4 21.64 21.31 21.67C21.13 21.76 20.92 21.77 20.74 21.7C20.55 21.64 20.4 21.5 20.32 21.32L19.12 18.75L12.37 18.75L11.17 21.32C11.09 21.5 10.94 21.64 10.75 21.7C10.57 21.77 10.36 21.76 10.18 21.67C10 21.59 9.86 21.44 9.79 21.25C9.72 21.07 9.73 20.86 9.82 20.67L15.07 9.42C15.12 9.3 15.22 9.19 15.34 9.11C15.46 9.03 15.6 9 15.75 9ZM13.07 17.25L18.42 17.25L15.75 11.52L13.07 17.25Z" fill="#191A26" fill-opacity="1.000000" fill-rule="evenodd"/>
	</g>
</svg>
