<svg width="24.000000" height="24.000000" viewBox="0 0 24 24" fill="none" xmlns="http://www.w3.org/2000/svg" xmlns:xlink="http://www.w3.org/1999/xlink">
	<desc>
			Created with Pixso.
	</desc>
	<defs>
		<clipPath id="clip132_27671">
			<rect id="link" width="24.000000" height="24.000000" fill="white" fill-opacity="0"/>
		</clipPath>
	</defs>
	<rect id="link" width="24.000000" height="24.000000" fill="#FFFFFF" fill-opacity="0"/>
	<g clip-path="url(#clip132_27671)">
		<path id="Vector" d="M19.9 4.1C19.55 3.75 19.14 3.47 18.68 3.28C18.23 3.09 17.74 3 17.25 3C16.75 3 16.27 3.09 15.81 3.28C15.36 3.47 14.94 3.75 14.59 4.1L10.09 8.6C9.67 9.02 9.35 9.54 9.17 10.11C8.99 10.68 8.95 11.29 9.05 11.88C9.15 12.47 9.39 13.03 9.75 13.51C10.12 13.99 10.59 14.37 11.13 14.63C11.3 14.72 11.43 14.87 11.5 15.06C11.56 15.25 11.55 15.45 11.46 15.62C11.38 15.8 11.23 15.93 11.05 16C10.86 16.07 10.66 16.07 10.48 15.99C9.73 15.62 9.07 15.08 8.56 14.42C8.05 13.75 7.71 12.96 7.57 12.14C7.43 11.31 7.49 10.46 7.74 9.66C8 8.85 8.44 8.13 9.03 7.53L13.53 3.03C14.02 2.53 14.6 2.14 15.24 1.87C15.88 1.6 16.57 1.46 17.26 1.45C17.96 1.44 18.65 1.58 19.29 1.84C19.93 2.1 20.51 2.5 21.01 2.99C21.5 3.48 21.89 4.07 22.15 4.71C22.41 5.35 22.55 6.03 22.54 6.73C22.54 7.42 22.4 8.11 22.12 8.75C21.85 9.39 21.46 9.97 20.96 10.46L19.2 12.21C19.13 12.29 19.05 12.35 18.96 12.39C18.87 12.43 18.77 12.45 18.66 12.46C18.57 12.46 18.47 12.44 18.37 12.4C18.28 12.36 18.19 12.31 18.12 12.24C18.05 12.16 18 12.08 17.96 11.99C17.92 11.89 17.9 11.79 17.9 11.69C17.91 11.59 17.93 11.49 17.97 11.4C18.01 11.31 18.07 11.22 18.14 11.15L19.9 9.4C20.25 9.05 20.52 8.64 20.71 8.18C20.9 7.73 21 7.24 21 6.75C21 6.25 20.9 5.77 20.71 5.31C20.52 4.85 20.25 4.44 19.9 4.1ZM12.51 8.36C12.59 8.18 12.75 8.04 12.94 7.98C13.12 7.91 13.33 7.92 13.51 8.01C14.27 8.37 14.93 8.91 15.43 9.58C15.94 10.25 16.28 11.03 16.42 11.85C16.56 12.68 16.5 13.53 16.25 14.34C16 15.14 15.55 15.86 14.96 16.46L10.46 20.96C9.97 21.46 9.39 21.85 8.75 22.13C8.11 22.39 7.43 22.54 6.73 22.54C6.04 22.55 5.35 22.42 4.7 22.15C4.06 21.89 3.48 21.5 2.99 21C2.5 20.52 2.1 19.93 1.84 19.28C1.58 18.64 1.44 17.96 1.45 17.26C1.45 16.57 1.59 15.88 1.87 15.24C2.14 14.6 2.54 14.02 3.03 13.53L4.79 11.78C4.86 11.71 4.94 11.64 5.03 11.6C5.13 11.57 5.23 11.54 5.33 11.54C5.43 11.53 5.53 11.56 5.62 11.6C5.71 11.63 5.8 11.69 5.87 11.76C5.94 11.83 6 11.92 6.04 12.01C6.07 12.1 6.09 12.2 6.09 12.3C6.09 12.4 6.07 12.5 6.02 12.6C5.98 12.68 5.92 12.77 5.85 12.84L4.09 14.6C3.75 14.94 3.47 15.35 3.28 15.81C3.09 16.27 3 16.75 3 17.25C3 17.74 3.09 18.23 3.28 18.68C3.47 19.14 3.75 19.55 4.09 19.9C4.44 20.25 4.86 20.53 5.31 20.71C5.77 20.9 6.25 21 6.75 21C7.24 21 7.73 20.9 8.18 20.71C8.64 20.53 9.05 20.25 9.4 19.9L13.9 15.4C14.32 14.97 14.64 14.46 14.82 13.89C15 13.31 15.05 12.71 14.94 12.11C14.84 11.52 14.6 10.96 14.24 10.48C13.88 10 13.41 9.62 12.86 9.36C12.77 9.32 12.69 9.26 12.63 9.18C12.56 9.11 12.51 9.03 12.48 8.93C12.45 8.84 12.43 8.75 12.44 8.64C12.44 8.55 12.47 8.45 12.51 8.36Z" fill="#191A26" fill-opacity="1.000000" fill-rule="evenodd"/>
	</g>
</svg>
