<svg width="48.000000" height="48.000000" viewBox="0 0 48 48" fill="none" xmlns="http://www.w3.org/2000/svg" xmlns:xlink="http://www.w3.org/1999/xlink">
	<desc>
			Created with Pixso.
	</desc>
	<defs>
		<clipPath id="clip2_32584">
			<rect id="Frame 6313" width="48.000000" height="48.000000" fill="white" fill-opacity="0"/>
		</clipPath>
	</defs>
	<g clip-path="url(#clip2_32584)">
		<mask id="mask2_32579" mask-type="alpha" maskUnits="userSpaceOnUse" x="-1.000000" y="-1.000000" width="50.000000" height="50.000000">
			<path id="Polygon 6" d="M20 1.31L6.34 9.18C3.87 10.61 2.34 13.25 2.34 16.11L2.34 31.88C2.34 34.74 3.87 37.38 6.34 38.81L20 46.68C22.47 48.11 25.52 48.11 28 46.68L41.65 38.81C44.12 37.38 45.65 34.74 45.65 31.88L45.65 16.11C45.65 13.25 44.12 10.61 41.65 9.18L28 1.31C25.52 -0.12 22.47 -0.12 20 1.31Z" fill="#D9D9D9" fill-opacity="1.000000" fill-rule="evenodd"/>
		</mask>
		<g mask="url(#mask2_32579)">
			<path id="Polygon 7" d="M20 1.31L6.34 9.18C3.87 10.61 2.34 13.25 2.34 16.11L2.34 31.88C2.34 34.74 3.87 37.38 6.34 38.81L20 46.68C22.47 48.11 25.52 48.11 28 46.68L41.65 38.81C44.12 37.38 45.65 34.74 45.65 31.88L45.65 16.11C45.65 13.25 44.12 10.61 41.65 9.18L28 1.31C25.52 -0.12 22.47 -0.12 20 1.31Z" fill="#FFFFFF" fill-opacity="1.000000" fill-rule="evenodd"/>
		</g>
		<g mask="url(#mask2_32579)">
			<path id="path4" d="M46.39 63.03L46.55 62.96L46.79 62.83L47.33 61.57L69 23.72L46.42 -15.19C46.46 -15.3 46.28 -15.46 46.28 -15.46L45.46 -16L24.5 -16L2.84 -15.97L1.72 -15.4L1.69 -15.4L-21 24.04L1.6 63.52L2.88 64L45.2 63.59L46.39 63.03ZM31.16 17.84C31.2 17.98 31.25 18.14 31.28 18.28C31.78 17.85 32.28 17.45 32.77 17.03L35.39 14.44C36.1 13.58 36.84 12.73 37.56 11.86C38.07 11.19 38.57 10.5 39.1 9.83C39.73 8.89 40.34 7.96 40.98 7.02C41.5 6.1 42.01 5.17 42.53 4.25C42.97 3.28 43.39 2.28 43.83 1.32C44.13 0.46 44.44 -0.38 44.74 -1.25L45.48 -4.22C45.71 -5.47 45.95 -6.72 46.18 -7.97L46.41 -10.53L46.41 17.63L41.52 17.82L38.89 18.19L36.54 18.68L34.79 19.11L32.84 19.71L32.48 19.92L32.42 20.17L32.74 20.17L33.35 19.92L34.32 19.66L35.89 19.23C35.89 19.23 37.33 18.88 37.38 18.88C37.44 18.88 38.84 18.54 38.84 18.54L40.31 18.28C40.75 18.21 41.17 18.08 41.62 18.08L46.44 17.96L46.44 29.8C46.44 29.8 45.5 29.91 44.85 29.92C44.18 29.94 43.1 29.87 42.69 29.82C42.06 29.73 41.52 29.48 41.34 29.39C41.36 29.34 41.36 29.27 41.36 29.2C41.36 28.72 40.96 28.39 40.47 28.39C40.01 28.39 39.62 28.71 39.59 29.13L39.42 29.13C39.47 28.95 39.5 28.78 39.5 28.58C39.5 27.56 38.63 26.69 37.63 26.69C36.72 26.69 35.93 27.39 35.79 28.3L35.77 28.3C35.28 28.22 33.75 28 33.23 27.61C32.9 27.36 32.74 27.24 32.67 27.17L33.02 26.51L34.3 23.97L29.83 32.01L28.08 35.39L25.26 40.54L25.21 40.54L26.45 26.13L26.53 25.08L26.76 22.32L28.15 21.44L28.03 21.3L26.78 22.08L27.01 19.37L34.21 23.71L27.05 19.14L24.98 7.07L27.71 12.03L29.04 14.55L30.66 17.77L33.79 22.91L30.71 17.5L29.13 14.27L24.73 5.98L22.28 10.01L21.58 8.33L21.16 7.21L20.3 5.24L19.44 3.56L18.88 2.5L18.02 0.91L17.04 -0.72L15.8 -2.65L14.83 -3.97L13.89 -5.22L12.85 -6.48L11.53 -7.97L9.69 -9.68L8.1 -11.09L6.47 -12.45L5.17 -13.48L4.09 -14.29L3.48 -14.72L2.65 -15.15L3.04 -15.25L18.16 -15.21C18.21 -11.94 20.68 -9.29 23.73 -9.29C26.78 -9.29 29.25 -11.92 29.3 -15.18L31.32 -15.18L46.04 -15.07C46 -15.05 45.95 -15.01 45.9 -14.98C44.08 -13.72 42.22 -11.92 40.31 -10.39C39.56 -9.72 38.8 -8.97 38.05 -8.29C36.73 -6.83 35.58 -5.67 34 -3.85C28.66 3.54 28.17 5.5 26.83 9.79C26.8 9.92 27.12 10.04 27.13 9.96C29.9 1.39 33.53 -3 39.43 -9.2C40.08 -9.75 40.71 -10.46 41.36 -11C41.96 -11.5 42.55 -11.97 43.15 -12.47C43.53 -12.77 45.32 -14.31 46.13 -14.84C46.25 -14.93 46.32 -14.97 46.35 -15L46.35 -11.13L45.83 -7.61C45.69 -6.85 45.53 -6.09 45.39 -5.33C45.2 -4.5 45.02 -3.67 44.83 -2.84C44.22 -1.16 43.58 0.5 42.97 2.18C42.32 3.45 41.66 4.75 41.01 6.01C40.41 6.93 39.82 7.85 39.24 8.77C38.49 9.79 37.72 10.84 36.96 11.86C36.16 12.78 35.35 13.72 34.56 14.64C33.88 15.31 33.19 15.98 32.5 16.65C32.07 17.03 31.62 17.42 31.17 17.83L31.16 17.84ZM29.87 42.6C27.69 37.81 27.76 36.41 27.76 36.41L29.8 32.33L31.57 29.07L32.46 27.39C32.55 27.52 32.83 27.77 33.76 28.09C34.75 28.42 35.44 28.51 35.7 28.53C35.7 29.55 36.58 30.39 37.58 30.39C37.89 30.39 38.21 30.29 38.47 30.15L38.56 30.6C38.56 30.6 38.57 32.24 38.77 33.48C38.96 34.7 39.63 35.34 40.19 35.86L40.21 35.88C40.76 36.42 42.18 37.82 42.6 38.3C43.03 38.78 43.1 39.01 43.1 39.01C43.1 39.01 43.48 40 43.6 41.59C43.67 42.7 43.44 43.14 43.29 43.34C43.2 43.32 43.13 43.3 43.04 43.3C42.73 43.3 42.41 43.46 42.17 43.71L40.89 40.93L39.5 38.35L37.89 36.06L35.39 32.81L33.56 30.85L31.79 28.99L31.65 29.32L32.71 30.42L35.03 33.09L37.01 35.54L38.82 38.02L40.05 40.21C40.05 40.21 41.55 43.06 41.57 43.21C41.59 43.34 41.78 43.83 41.89 44.1C41.78 44.31 41.71 44.54 41.71 44.75C41.71 45.42 42.17 46.07 42.94 46.14C42.94 46.14 44.81 50.21 45.76 55.83C46.14 58.09 46.32 59.33 46.39 60L46.39 60.75L46.39 61.64C45.41 61.1 42.85 59.58 40.8 57.93C38.21 55.85 37.1 54.68 35.91 53.2C35.32 52.46 34.16 50.93 33.04 48.92C32.02 47.08 30.9 44.88 29.87 42.6ZM46.06 62.28L46.16 62.55L31.34 62.64C30.67 60 28.24 58.06 25.31 58.06C22.35 58.06 19.86 60.07 19.25 62.76L2.58 62.96L2.44 62.9C2.77 62.69 5.63 60.9 9.1 57.58C11.78 55.02 14.48 52.32 16.46 49.7C17.19 48.73 17.76 47.75 18.3 46.8C20.26 43.32 21.01 41.6 21.44 40.39C21.79 39.35 22.21 37.33 22.33 36.73L22.49 36.97L24.68 40.54L25.14 41.17C25.22 41.17 26.53 38.83 26.53 38.83L27.34 37.22C27.34 37.22 28.15 39.77 28.25 40.03C28.37 40.3 29.15 42.05 29.15 42.05C29.15 42.05 30.32 44.77 31.14 46.31C32.16 48.21 33.67 50.92 34.88 52.56C35.44 53.32 36.08 54 36.75 54.81C39.14 57.65 46.06 62.28 46.06 62.28ZM15.87 30.33C16.74 29.53 17.25 29.25 17.46 29.14L18.12 30.19L19.35 32.08L21.16 34.91L22.07 36.3C22 36.76 21.77 38.07 21.59 38.67C21.39 39.39 20.53 41.64 20.53 41.64C20.53 41.64 18.69 45.64 17.51 47.53C16.34 49.42 13.89 52.32 13.71 52.49C13.53 52.67 11.06 55.32 10.98 55.44C10.89 55.57 4.07 61.91 2.21 62.81L1.62 62.58L1.62 61.82L2.14 58.06C2.14 58.06 2.69 54.89 3.12 52.61C3.56 50.33 3.62 51 4.17 48.76C4.28 48.32 4.49 47.82 4.74 47.26C5.39 45.69 6.46 43.65 7.58 41.34C7.92 40.6 8.56 39.6 8.98 38.92C10.33 36.76 11.76 35.05 12.71 33.79C13.99 32.11 15.09 31.02 15.87 30.33ZM3.95 48.69C2.65 52.78 1.86 57.16 1.62 59.29L1.65 29.82C2.18 29.8 4.09 29.77 6.54 29.53C9.45 29.27 11.73 28.86 13.53 28.42C14.9 28.09 15.95 27.63 16.39 27.43L17.23 28.78C17.11 28.9 16.88 29.1 16.5 29.43C16.32 29.59 16.04 29.84 15.78 30.08C15.37 30.49 14.92 30.85 14.55 31.21C14.18 31.57 13.89 31.94 13.51 32.38C12.45 33.64 11.01 35.37 9.73 37.24C8.38 39.22 7.21 41.34 6.23 43.21C5.42 44.77 4.58 46.7 3.95 48.69ZM38.85 31.42C38.85 30.51 38.89 30.05 38.92 29.85C39.07 29.69 39.19 29.53 39.26 29.34L39.54 29.34C39.62 29.73 39.98 30.01 40.41 30.01C40.75 30.01 41.03 29.84 41.19 29.59C41.38 29.69 42.06 30.01 43.31 30.07C44.48 30.14 45.88 30.1 46.39 30.08L46.39 58.09C46.23 56.89 45.88 54.47 45.44 52.72C44.83 50.28 44.16 48.53 44.16 48.53L43.39 46.17C44.06 46 44.46 45.4 44.46 44.78C44.46 44.42 44.29 44.04 44.01 43.76C43.99 43.48 43.97 42.96 43.96 42.7C43.94 42.32 43.73 40.67 43.64 40.07C43.51 39.22 43.51 39.25 43.24 38.69C43.03 38.25 41.69 36.96 41.69 36.96C41.69 36.96 41.19 36.42 40.38 35.71C39.57 34.98 39.35 34.43 39.19 34.04C39.01 33.65 38.87 32.77 38.85 31.42ZM29.44 62.65L31 62.64C30.35 60.17 28.04 58.35 25.29 58.38C22.49 58.38 20.16 60.25 19.55 62.78L29.44 62.65ZM24.33 20L24.19 14.96L24.38 14.87L24.54 19.87L26.82 19.09L24.71 6.71L24.64 6.64L24.54 6.82L24.05 11.25L23.91 11.17L24.38 7.07L22.59 10.04L18.04 17.52L15.8 21.27L14.43 23.39L20.6 21.27L19.77 20.67L19.91 20.54L20.84 21.19L24.33 20ZM24.43 23.44L24.33 20.14L21.03 21.32L24 23.4L24.43 23.44ZM24.66 31.13L24.45 23.93L24.26 23.86L20.74 26.35L20.68 26.23L24 23.75L20.77 21.41L14.43 23.68L15.51 24.21L15.44 24.35L14.41 23.85L16.6 27.36L17.41 28.65L18.81 30.89L20.53 33.55L25.01 40.54L26.22 26.23L26.31 25.17L24.71 24.06L24.92 30.79L24.66 31.13ZM24.69 23.72L24.69 23.79L26.31 24.94L26.52 22.49L24.83 23.54L24.69 23.72ZM24.57 20.04L24.68 23.4L26.53 22.22L26.78 19.32L24.57 20.04ZM26.85 19.32L26.91 19.32L26.89 19.3L26.85 19.32ZM11.1 14.9C11.69 15.68 11.99 16.64 12.08 17C11.38 17.11 10.71 17.63 10.54 18.32C10.38 18.3 10.15 18.26 10.07 18.25L10.07 18.22C10.07 17.66 9.61 17.2 9.12 17.2C8.71 17.2 8.28 17.52 8.16 17.96C7.91 17.94 6.72 17.85 5.89 17.82C5.1 17.78 2.37 17.89 1.65 17.92L1.69 -12.38L2.58 -7.52L3.49 -3.78L3.9 -2.43L4.51 -0.95C3.95 -0.72 3.51 -0.15 3.51 0.48C3.51 1.14 3.97 1.68 4.56 1.88C4.49 2.3 4.26 3.93 4.41 5.13C4.56 6.51 4.63 6.65 4.96 7.9C5.3 9.14 6.39 10.52 7.52 11.39C8.66 12.25 10.34 13.89 11.1 14.9ZM4.72 2.59C4.79 2.32 4.86 2.09 4.93 1.93C4.96 1.95 5.02 1.95 5.05 1.93C5.14 1.93 5.23 1.93 5.32 1.92L6.51 4.69L7.87 7.46L9.59 10.28L11.01 12.31L13.18 14.89L15.76 17.45L17.06 18.6L16.23 19.92C16.14 19.89 16.02 19.83 15.78 19.76C15.2 19.57 14.76 19.5 14.18 19.46L13.76 19.45C13.92 19.2 14.01 18.92 14.01 18.63C14.01 17.8 13.32 17.11 12.53 16.99C12.53 16.99 12.43 16.42 11.82 15.47C11.2 14.53 10.73 13.99 10.29 13.53C9.85 13.07 9.03 12.24 8.57 11.9C8.12 11.57 6.87 10.64 5.93 9.39C4.98 8.15 4.88 6.81 4.63 5.8C4.39 4.79 4.62 3.11 4.72 2.59ZM1.67 18.51L1.65 29.34C1.9 29.38 2.42 29.39 3.53 29.38C5.61 29.36 7.31 29.17 7.31 29.17C7.31 29.17 9.64 28.88 10.99 28.64C12.34 28.39 16.2 27.25 16.2 27.25L16.28 27.28L15.23 25.6L13.99 23.5L15.9 20.49L16 20.31C15.95 20.26 15.87 20.21 15.76 20.15C15.5 20.01 14.97 19.89 14.46 19.83C14.09 19.78 13.71 19.76 13.53 19.75C13.2 20.08 12.73 20.31 12.25 20.31C11.38 20.31 10.5 19.55 10.5 18.63L10.5 18.6L10.01 18.54C9.87 18.95 9.49 19.25 9.1 19.25C8.64 19.25 8.21 18.85 8.14 18.33C7.92 18.3 7.12 18.17 4.77 18.17C4 18.17 2.18 18.44 1.67 18.51ZM-16.31 26.27L-17.61 27.18L-17.2 27.85L-15.8 26.51L-15.66 24.42L-13.93 25.67L-12.26 24.07L-11.93 23.23L-14.07 24.73L-16.4 23.25L-16.31 26.27ZM-15.36 28.37L-16.96 28.33L-15.13 31.6L-14.68 32.07L-13.24 29.31L-10.28 28.83L-10.3 28.71L-11.89 26.46L-11.82 26.17L-10.83 23.17L-12.09 24.67L-12.67 26.76L-11.44 28.3L-13.5 28.46L-14.66 30.54L-15.36 28.37ZM-13.07 29.62L-14.65 32.47C-14.65 32.47 0.37 59.35 0.37 59.32L0.62 10.29L-0.54 11.58L-2.45 14L-4.52 16.53L-6.93 19.09L-10.44 22.73L-11.49 26.3L-9.6 28.95L-13.07 29.62ZM-1.4 11.76L0.62 8.75L0.67 -1.41C0.5 -0.81 0.25 0.07 -0.13 1.37C-1.27 5.22 -4.48 11.85 -5.43 13.47C-6.39 15.1 -7.3 15.89 -7.3 15.89C-7.3 15.89 -6.95 14.87 -6.76 14.51C-6.67 14.35 -6.13 12.5 -5.69 10.46C-5.2 8.21 -4.69 5.73 -4.64 5.03C-4.53 3.64 -4.06 -2.77 -4.06 -2.77L-6.36 1.37L-6.29 3.64L-6.39 6.9L-6.84 10.82L-7.37 12.87L-8.07 15.11L-9.75 19.14L-10.59 20.93L-11.38 22.92L-11.72 23.67L-11.59 23.58L-9.49 21.03L-8.32 19.78L-5.44 16.72L-3.4 14.28L-1.4 11.76ZM-6.97 2.76L-7.06 2.64L-19.15 24.42L-17.76 26.9L-16.63 26.06L-16.73 22.73L-13.98 24.07L-11.7 22.64L-10.54 20.1L-9.09 16.44L-8.28 13.88L-7.55 10.98L-7.06 7.66L-6.92 4.89L-6.97 2.76ZM-15.4 26.75L-16.83 27.95L-15.12 28.05L-14.59 29.82L-13.84 28.1L-12.21 28.03L-13.17 26.78L-12.45 24.92L-14.05 26.07L-15.36 25L-15.4 26.75ZM44.11 44.78C44.11 44.11 43.51 43.76 43.06 43.75C42.6 43.73 41.99 44.11 41.99 44.78C41.99 45.46 42.39 45.88 43.06 45.88C43.73 45.88 44.11 45.46 44.11 44.78ZM-0.68 -0.24C-0.57 -0.61 0.3 -3.58 0.69 -4.93L0.74 -11.5L-3.08 -4.52C-3.11 -3.65 -3.17 -2.17 -3.09 -1.83C-3.01 -1.36 -3.71 4.9 -4.02 6.28C-4.34 7.64 -4.92 10.71 -4.92 10.71C-4.92 10.71 -4.86 10.75 -4.45 10.11C-4.04 9.48 -0.8 0.24 -0.68 -0.24ZM9.91 18.22C9.91 17.67 9.61 17.36 9.14 17.36C8.66 17.36 8.33 17.67 8.33 18.22C8.33 18.75 8.66 19.09 9.14 19.09C9.61 19.09 9.91 18.75 9.91 18.22ZM13.73 18.63C13.73 17.77 13.17 17.25 12.32 17.25C11.47 17.25 10.87 17.78 10.87 18.63C10.87 19.52 11.48 20.04 12.32 20.04C13.18 20.04 13.73 19.5 13.73 18.63ZM15.93 17.04L17.28 18.25L19.49 14.69L22.05 10.49L20.65 6.92L19.49 4.37L18.62 2.66L17.55 0.82L15.76 -1.96L15.04 -3L13.9 -4.62L12.94 -5.77L11.64 -7.18L9.66 -9.15L8.4 -10.29L7.49 -11.13L6.19 -12.25L4.91 -13.33L3.67 -14.25L2.23 -15.08L1.93 -15L1.85 -13.08L2.91 -7.22L3.51 -4.94L4.37 -2.45L4.79 -1.04C4.88 -1.05 4.98 -1.08 5.07 -1.08C5.87 -1.08 6.63 -0.35 6.63 0.46C6.63 1.08 6.21 1.6 5.65 1.82L5.87 2.57L7.72 6.4L9.19 9.16L11.47 12.25L13.87 15.03L15.93 17.04ZM29.06 -15.22L18.46 -15.25C18.49 -12.14 20.86 -9.62 23.77 -9.65C26.66 -9.65 29.01 -12.14 29.06 -15.22ZM61.06 22.46L61.08 22.43L60.42 22.94L60.67 20.28L59.04 18.61L61.74 18.22L62.76 16L64.56 19.25L63.84 19.2L62.98 17.57L62.11 19.13L60.27 19.3L61.57 20.4L61.3 22.08L61.08 22.43L61.13 22.39L61.06 22.46ZM64.03 20.57L64.95 19.96L65.51 20.96L64.68 21.1L64.67 23.93L62.67 22.46L60.6 23.57L60.88 23.07L62.62 21.6L64.03 22.57L64.03 20.57ZM62.6 21.27L61.41 22.18L61.5 22.1L61.88 20.31L60.85 19.48L62.26 19.53L62.95 18.12L63.62 19.52L64.58 19.64L63.81 20.43L63.81 22.11L62.6 21.27ZM57.41 30.4C58.25 28.57 59.78 25.26 60.23 24.28C60.35 24.02 62.62 22.85 62.62 22.87L64.96 24.48L65.09 21.44L65.77 21.41L67.19 23.97L55.12 45.09C55.07 44.75 55.03 44.25 55.05 43.5C55.07 41.75 55.61 36.57 55.96 35.39C56.31 34.2 56.43 32.57 57.41 30.4ZM61.55 17.85L62.46 15.43L47.3 -12.01L47.48 37.96C47.84 37.47 48.49 36.57 49.44 35.07C50.94 32.63 56.47 27.04 56.47 27.04L59.87 23.64L60.15 20.43L58.48 18.33L61.55 17.85ZM52.91 31.9C50.77 34.27 48.12 38.6 47.46 39.71L47.46 45.85L52.56 35.99C53.82 33.39 55.14 31.73 56.1 30.81C56.1 30.81 53.91 37.61 53.03 40.93C52.16 44.25 52.37 46.31 52.24 48.83C52.23 49.45 52.23 49.85 52.24 50.1L54.31 46.46C54.35 45.26 54.43 42.67 54.57 40.4C54.76 37.38 56.06 32.45 56.92 29.96C57.78 27.46 59.15 25.29 59.15 25.29C59.15 25.29 55.38 29.14 52.91 31.9ZM52.28 41.06C52.84 38.67 54.66 33.48 54.66 33.48C53.94 34.75 50.25 40.26 48.48 46.45C47.64 49.36 47.5 49.77 47.5 49.77L47.53 58.35L51.51 51.38C51.37 48.69 51.72 43.39 52.28 41.06ZM6.39 0.46C6.39 -0.31 5.82 -0.83 5.05 -0.83C4.26 -0.83 3.77 -0.29 3.77 0.46C3.77 1.22 4.28 1.71 5.05 1.71C5.82 1.71 6.39 1.25 6.39 0.46ZM41.13 29.18C41.13 28.74 40.89 28.58 40.41 28.58C39.96 28.58 39.73 28.74 39.73 29.18C39.73 29.62 39.94 29.8 40.41 29.8C40.89 29.8 41.13 29.62 41.13 29.18ZM39.22 28.54C39.22 27.57 38.54 26.92 37.59 26.92C36.65 26.92 35.94 27.57 35.96 28.54C35.96 29.52 36.65 30.14 37.59 30.14C38.54 30.14 39.22 29.52 39.22 28.54Z" fill="#8E35FF" fill-opacity="1.000000" fill-rule="evenodd"/>
			<path id="path4" d="M31.17 17.83C31.16 17.83 31.16 17.84 31.16 17.84C31.2 17.98 31.25 18.14 31.28 18.28C31.78 17.85 32.28 17.45 32.77 17.03L35.39 14.44M32.77 17.03C33.65 16.16 34.51 15.31 35.39 14.44C36.1 13.58 36.84 12.73 37.56 11.86C38.07 11.19 38.57 10.5 39.1 9.83C39.73 8.89 40.34 7.96 40.98 7.02C41.5 6.1 42.01 5.17 42.53 4.25C42.97 3.28 43.39 2.28 43.83 1.32C44.13 0.46 44.44 -0.38 44.74 -1.25C44.99 -2.24 45.23 -3.23 45.48 -4.22M44.74 -1.25L45.48 -4.22C45.71 -5.47 45.95 -6.72 46.18 -7.97L46.41 -10.53L46.41 17.63L41.52 17.82L38.89 18.19L36.54 18.68L34.79 19.11L32.84 19.71L32.48 19.92L32.42 20.17L32.74 20.17L33.35 19.92L34.32 19.66L35.89 19.23C35.89 19.23 37.33 18.88 37.38 18.88C37.44 18.88 38.84 18.54 38.84 18.54L40.31 18.28C40.75 18.21 41.17 18.08 41.62 18.08L46.44 17.96L46.44 29.8C46.44 29.8 45.5 29.91 44.85 29.92C44.18 29.94 43.1 29.87 42.69 29.82C42.06 29.73 41.52 29.48 41.34 29.39C41.36 29.34 41.36 29.27 41.36 29.2C41.36 28.72 40.96 28.39 40.47 28.39C40.01 28.39 39.62 28.71 39.59 29.13L39.42 29.13C39.47 28.95 39.5 28.78 39.5 28.58C39.5 27.56 38.63 26.69 37.63 26.69C36.72 26.69 35.93 27.39 35.79 28.3C35.78 28.3 35.78 28.3 35.77 28.3M35.79 28.3L35.77 28.3C35.28 28.22 33.75 28 33.23 27.61C32.9 27.36 32.74 27.24 32.67 27.17L33.02 26.51L34.3 23.97L34.21 23.71L33.79 22.91L30.71 17.5L29.13 14.27L24.73 5.98L22.28 10.01L21.58 8.33L21.16 7.21L20.3 5.24L19.44 3.56L18.88 2.5L18.02 0.91L17.04 -0.72L15.8 -2.65L14.83 -3.97L13.89 -5.22L12.85 -6.48L11.53 -7.97L9.69 -9.68L8.1 -11.09L6.47 -12.45L5.17 -13.48L4.09 -14.29L3.48 -14.72L2.65 -15.15L3.04 -15.25L18.16 -15.21C18.21 -11.94 20.68 -9.29 23.73 -9.29C26.78 -9.29 29.25 -11.92 29.3 -15.18L31.32 -15.18L46.04 -15.07C46 -15.05 45.95 -15.01 45.9 -14.98C44.08 -13.72 42.22 -11.92 40.31 -10.39C39.56 -9.72 38.8 -8.97 38.05 -8.29C36.73 -6.83 35.58 -5.67 34 -3.85C28.66 3.54 28.17 5.5 26.83 9.79C26.8 9.92 27.12 10.04 27.13 9.96C29.9 1.39 33.53 -3 39.43 -9.2C40.08 -9.75 40.71 -10.46 41.36 -11C41.96 -11.5 42.55 -11.97 43.15 -12.47C43.53 -12.77 45.32 -14.31 46.13 -14.84C46.25 -14.93 46.32 -14.97 46.35 -15L46.35 -11.13L45.83 -7.61C45.69 -6.85 45.53 -6.09 45.39 -5.33C45.2 -4.5 45.02 -3.67 44.83 -2.84C44.22 -1.16 43.58 0.5 42.97 2.18C42.32 3.45 41.66 4.75 41.01 6.01C40.41 6.93 39.82 7.85 39.24 8.77C38.49 9.79 37.72 10.84 36.96 11.86C36.16 12.78 35.35 13.72 34.56 14.64C33.88 15.31 33.19 15.98 32.5 16.65C32.07 17.03 31.62 17.42 31.17 17.83L31.16 17.84M40.21 35.88L40.19 35.86C39.63 35.34 38.96 34.7 38.77 33.48C38.57 32.24 38.56 30.6 38.56 30.6L38.47 30.15C38.21 30.29 37.89 30.39 37.58 30.39C36.58 30.39 35.7 29.55 35.7 28.53C35.44 28.51 34.75 28.42 33.76 28.09C32.83 27.77 32.55 27.52 32.46 27.39L31.57 29.07L29.8 32.33L27.76 36.41C27.76 36.41 27.69 37.81 29.87 42.6C30.9 44.88 32.02 47.08 33.04 48.92C34.16 50.93 35.32 52.46 35.91 53.2C37.1 54.68 38.21 55.85 40.8 57.93C42.85 59.58 45.41 61.1 46.39 61.64L46.39 60.75L46.39 60C46.32 59.33 46.14 58.09 45.76 55.83C44.81 50.21 42.94 46.14 42.94 46.14C42.17 46.07 41.71 45.42 41.71 44.75C41.71 44.54 41.78 44.31 41.89 44.1C41.78 43.83 41.59 43.34 41.57 43.21C41.55 43.06 40.05 40.21 40.05 40.21L38.82 38.02L37.01 35.54L35.03 33.09L32.71 30.42L31.65 29.32L31.79 28.99L33.56 30.85L35.39 32.81L37.89 36.06L39.5 38.35L40.89 40.93L42.17 43.71C42.41 43.46 42.73 43.3 43.04 43.3C43.13 43.3 43.2 43.32 43.29 43.34C43.44 43.14 43.67 42.7 43.6 41.59C43.48 40 43.1 39.01 43.1 39.01C43.1 39.01 43.03 38.78 42.6 38.3C42.18 37.82 40.76 36.42 40.21 35.88C40.2 35.88 40.19 35.87 40.19 35.86M46.06 62.28C46.06 62.28 39.14 57.65 36.75 54.81C36.08 54 35.44 53.32 34.88 52.56C33.67 50.92 32.16 48.21 31.14 46.31C30.32 44.77 29.15 42.05 29.15 42.05C29.15 42.05 28.37 40.3 28.25 40.03C28.15 39.77 27.34 37.22 27.34 37.22L26.53 38.83C26.53 38.83 25.22 41.17 25.14 41.17L24.68 40.54L22.49 36.97L22.33 36.73C22.21 37.33 21.79 39.35 21.44 40.39C21.01 41.6 20.26 43.32 18.3 46.8C17.76 47.75 17.19 48.73 16.46 49.7C14.48 52.32 11.78 55.02 9.1 57.58C5.63 60.9 2.77 62.69 2.44 62.9L2.58 62.96L19.25 62.76C19.86 60.07 22.35 58.06 25.31 58.06C28.24 58.06 30.67 60 31.34 62.64L46.16 62.55L46.06 62.28ZM15.87 30.33C15.09 31.02 13.99 32.11 12.71 33.79C11.76 35.05 10.33 36.76 8.98 38.92C8.56 39.6 7.92 40.6 7.58 41.34C6.46 43.65 5.39 45.69 4.74 47.26C4.49 47.82 4.28 48.32 4.17 48.76C3.62 51 3.56 50.33 3.12 52.61C2.69 54.89 2.14 58.06 2.14 58.06L1.62 61.82L1.62 62.58L2.21 62.81C4.07 61.91 10.89 55.57 10.98 55.44C11.06 55.32 13.53 52.67 13.71 52.49C13.89 52.32 16.34 49.42 17.51 47.53C18.69 45.64 20.53 41.64 20.53 41.64C20.53 41.64 21.39 39.39 21.59 38.67C21.77 38.07 22 36.76 22.07 36.3L21.16 34.91L19.35 32.08L18.12 30.19L17.46 29.14C17.25 29.25 16.74 29.53 15.87 30.33ZM3.95 48.69C4.58 46.7 5.42 44.77 6.23 43.21C7.21 41.34 8.38 39.22 9.73 37.24C11.01 35.37 12.45 33.64 13.51 32.38C13.89 31.94 14.18 31.57 14.55 31.21C14.92 30.85 15.37 30.49 15.78 30.08C16.04 29.84 16.32 29.59 16.5 29.43C16.88 29.1 17.11 28.9 17.23 28.78L16.39 27.43C15.95 27.63 14.9 28.09 13.53 28.42C11.73 28.86 9.45 29.27 6.54 29.53C4.09 29.77 2.18 29.8 1.65 29.82L1.62 59.29C1.86 57.16 2.65 52.78 3.95 48.69ZM38.85 31.42C38.87 32.77 39.01 33.65 39.19 34.04C39.35 34.43 39.57 34.98 40.38 35.71C41.19 36.42 41.69 36.96 41.69 36.96C41.69 36.96 43.03 38.25 43.24 38.69C43.51 39.25 43.51 39.22 43.64 40.07C43.73 40.67 43.94 42.32 43.96 42.7C43.97 42.96 43.99 43.48 44.01 43.76C44.29 44.04 44.46 44.42 44.46 44.78C44.46 45.4 44.06 46 43.39 46.17L44.16 48.53C44.16 48.53 44.83 50.28 45.44 52.72C45.88 54.47 46.23 56.89 46.39 58.09L46.39 30.08C45.88 30.1 44.48 30.14 43.31 30.07C42.06 30.01 41.38 29.69 41.19 29.59C41.03 29.84 40.75 30.01 40.41 30.01C39.98 30.01 39.62 29.73 39.54 29.34L39.26 29.34C39.19 29.53 39.07 29.69 38.92 29.85C38.89 30.05 38.85 30.51 38.85 31.42ZM46.55 62.96L46.79 62.83L47.33 61.57L69 23.72L46.42 -15.19C46.46 -15.3 46.28 -15.46 46.28 -15.46L45.46 -16L24.5 -16L2.84 -15.97L1.72 -15.4L1.69 -15.4L-21 24.04L1.6 63.52L2.88 64L45.2 63.59L46.39 63.03L46.55 62.96ZM29.44 62.65L19.55 62.78C20.16 60.25 22.49 58.38 25.29 58.38C28.04 58.35 30.35 60.17 31 62.64L29.44 62.65ZM24.33 20L20.84 21.19L19.91 20.54L19.77 20.67L20.6 21.27L14.43 23.39L15.8 21.27L18.04 17.52L22.59 10.04L24.38 7.07L23.91 11.17L24.05 11.25L24.54 6.82L24.64 6.64L24.71 6.71L26.82 19.09L24.54 19.87L24.38 14.87L24.19 14.96L24.33 20ZM24.43 23.44L24 23.4L21.03 21.32L24.33 20.14L24.43 23.44ZM24.66 31.13L24.92 30.79L24.71 24.06L26.31 25.17L26.22 26.23L25.01 40.54L20.53 33.55L18.81 30.89L17.41 28.65L16.6 27.36L14.41 23.85L15.44 24.35L15.51 24.21L14.43 23.68L20.77 21.41L24 23.75L20.68 26.23L20.74 26.35L24.26 23.86L24.45 23.93L24.66 31.13ZM24.69 23.72L24.83 23.54L26.52 22.49L26.31 24.94L24.69 23.79L24.69 23.72ZM24.57 20.04L26.78 19.32L26.53 22.22L24.68 23.4L24.57 20.04ZM24.57 39.56L24.78 39.75L24.05 36.35L23.85 36.35L24.57 39.56ZM34.3 23.97L29.83 32.01L28.08 35.39L25.26 40.54L25.21 40.54L26.45 26.13L26.53 25.08L26.76 22.32L28.15 21.44L28.03 21.3L26.78 22.08L27.01 19.37L34.21 23.71M26.85 19.32L26.89 19.3L26.91 19.32L26.85 19.32ZM11.1 14.9C10.34 13.89 8.66 12.25 7.52 11.39C6.39 10.52 5.3 9.14 4.96 7.9C4.63 6.65 4.56 6.51 4.41 5.13C4.26 3.93 4.49 2.3 4.56 1.88C3.97 1.68 3.51 1.14 3.51 0.48C3.51 -0.15 3.95 -0.72 4.51 -0.95L3.9 -2.43L3.49 -3.78L2.58 -7.52L1.69 -12.38L1.65 17.92C2.37 17.89 5.1 17.78 5.89 17.82C6.72 17.85 7.91 17.94 8.16 17.96C8.28 17.52 8.71 17.2 9.12 17.2C9.61 17.2 10.07 17.66 10.07 18.22L10.07 18.25C10.15 18.26 10.38 18.3 10.54 18.32C10.71 17.63 11.38 17.11 12.08 17C11.99 16.64 11.69 15.68 11.1 14.9ZM4.72 2.59C4.62 3.11 4.39 4.79 4.63 5.8C4.88 6.81 4.98 8.15 5.93 9.39C6.87 10.64 8.12 11.57 8.57 11.9C9.03 12.24 9.85 13.07 10.29 13.53C10.73 13.99 11.2 14.53 11.82 15.47C12.43 16.42 12.53 16.99 12.53 16.99C13.32 17.11 14.01 17.8 14.01 18.63C14.01 18.92 13.92 19.2 13.76 19.45L14.18 19.46C14.76 19.5 15.2 19.57 15.78 19.76C16.02 19.83 16.14 19.89 16.23 19.92L17.06 18.6L15.76 17.45L13.18 14.89L11.01 12.31L9.59 10.28L7.87 7.46L6.51 4.69L5.32 1.92C5.23 1.93 5.14 1.93 5.05 1.93C5.02 1.95 4.96 1.95 4.93 1.93C4.86 2.09 4.79 2.32 4.72 2.59ZM1.67 18.51C2.18 18.44 4 18.17 4.77 18.17C7.12 18.17 7.92 18.3 8.14 18.33C8.21 18.85 8.64 19.25 9.1 19.25C9.49 19.25 9.87 18.95 10.01 18.54L10.5 18.6C10.5 18.61 10.5 18.61 10.5 18.63C10.5 19.55 11.38 20.31 12.25 20.31C12.73 20.31 13.2 20.08 13.53 19.75C13.71 19.76 14.09 19.78 14.46 19.83C14.97 19.89 15.5 20.01 15.76 20.15C15.87 20.21 15.95 20.26 16 20.31L15.9 20.49L13.99 23.5L15.23 25.6L16.28 27.28L16.2 27.25C16.2 27.25 12.34 28.39 10.99 28.64C9.64 28.88 7.31 29.17 7.31 29.17C7.31 29.17 5.61 29.36 3.53 29.38C2.42 29.39 1.9 29.38 1.65 29.34L1.67 18.51ZM-16.31 26.27L-16.4 23.25L-14.07 24.73L-11.93 23.23L-12.26 24.07L-13.93 25.67L-15.66 24.42L-15.8 26.51L-17.2 27.85L-17.61 27.18L-16.31 26.27ZM-15.36 28.37L-14.66 30.54L-13.5 28.46L-11.44 28.3L-12.67 26.76L-12.09 24.67L-10.83 23.17L-11.82 26.17L-11.89 26.46L-10.3 28.71L-10.28 28.83L-13.24 29.31L-14.68 32.07L-15.13 31.6L-16.96 28.33L-15.36 28.37ZM-14.68 32.07C-14.84 31.9 -14.99 31.75 -15.13 31.6M-13.07 29.62L-9.6 28.95L-11.49 26.3L-10.44 22.73L-6.93 19.09L-4.52 16.53L-2.45 14L-0.54 11.58L0.62 10.29L0.37 59.32C0.37 59.35 -14.65 32.47 -14.65 32.47L-13.07 29.62ZM-1.4 11.76L-3.4 14.28L-5.44 16.72L-8.32 19.78L-9.49 21.03L-11.59 23.58L-11.72 23.67L-11.38 22.92L-10.59 20.93L-9.75 19.14L-8.07 15.11L-7.37 12.87L-6.84 10.82L-6.39 6.9L-6.29 3.64L-6.36 1.37L-4.06 -2.77C-4.06 -2.77 -4.53 3.64 -4.64 5.03C-4.69 5.73 -5.2 8.21 -5.69 10.46C-6.13 12.5 -6.67 14.35 -6.76 14.51C-6.95 14.87 -7.3 15.89 -7.3 15.89C-7.3 15.89 -6.39 15.1 -5.43 13.47C-4.48 11.85 -1.27 5.22 -0.13 1.37C0.25 0.07 0.5 -0.81 0.67 -1.41L0.62 8.75L-1.4 11.76ZM-6.97 2.76L-6.92 4.89L-7.06 7.66L-7.55 10.98L-8.28 13.88L-9.09 16.44L-10.54 20.1L-11.7 22.64L-13.98 24.07L-16.73 22.73L-16.63 26.06L-17.76 26.9L-19.15 24.42L-7.06 2.64L-6.97 2.76ZM-15.4 26.75L-15.36 25L-14.05 26.07L-12.45 24.92L-13.17 26.78L-12.21 28.03L-13.84 28.1L-14.59 29.82L-15.12 28.05L-16.83 27.95L-15.4 26.75ZM44.11 44.78C44.11 45.46 43.73 45.88 43.06 45.88C42.39 45.88 41.99 45.46 41.99 44.78C41.99 44.11 42.6 43.73 43.06 43.75C43.51 43.76 44.11 44.11 44.11 44.78ZM-0.68 -0.24C-0.8 0.24 -4.04 9.48 -4.45 10.11C-4.86 10.75 -4.92 10.71 -4.92 10.71C-4.92 10.71 -4.34 7.64 -4.02 6.28C-3.71 4.9 -3.01 -1.36 -3.09 -1.83C-3.17 -2.17 -3.11 -3.65 -3.08 -4.52L0.74 -11.5L0.69 -4.93C0.3 -3.58 -0.57 -0.61 -0.68 -0.24ZM9.91 18.22C9.91 18.75 9.61 19.09 9.14 19.09C8.66 19.09 8.33 18.75 8.33 18.22C8.33 17.67 8.66 17.36 9.14 17.36C9.61 17.36 9.91 17.67 9.91 18.22ZM13.73 18.63C13.73 19.5 13.18 20.04 12.32 20.04C11.48 20.04 10.87 19.52 10.87 18.63C10.87 17.78 11.47 17.25 12.32 17.25C13.17 17.25 13.73 17.77 13.73 18.63ZM33.79 22.91L30.66 17.77L29.04 14.55L27.71 12.03L24.98 7.07L27.05 19.14L34.21 23.71M15.93 17.04L13.87 15.03L11.47 12.25L9.19 9.16L7.72 6.4L5.87 2.57L5.65 1.82C6.21 1.6 6.63 1.08 6.63 0.46C6.63 -0.35 5.87 -1.08 5.07 -1.08C4.98 -1.08 4.88 -1.05 4.79 -1.04L4.37 -2.45L3.51 -4.94L2.91 -7.22L1.85 -13.08L1.93 -15L2.23 -15.08L3.67 -14.25L4.91 -13.33L6.19 -12.25L7.49 -11.13L8.4 -10.29L9.66 -9.15L11.64 -7.18L12.94 -5.77L13.9 -4.62L15.04 -3L15.76 -1.96L17.55 0.82L18.62 2.66L19.49 4.37L20.65 6.92L22.05 10.49L19.49 14.69L17.28 18.25L15.93 17.04ZM29.06 -15.22C29.01 -12.14 26.66 -9.65 23.77 -9.65C20.86 -9.62 18.49 -12.14 18.46 -15.25L29.06 -15.22ZM61.08 22.43L61.3 22.08L61.57 20.4L60.27 19.3L62.11 19.13L62.98 17.57L63.84 19.2L64.56 19.25L62.76 16L61.74 18.22L59.04 18.61L60.67 20.28L60.42 22.94L61.08 22.43L61.13 22.39L61.06 22.46L61.08 22.43M64.03 20.57L64.03 22.57L62.62 21.6L60.88 23.07L60.6 23.57L62.67 22.46L64.67 23.93L64.68 21.1L65.51 20.96L64.95 19.96L64.03 20.57ZM62.6 21.27L63.81 22.11L63.81 20.43L64.58 19.64L63.62 19.52L62.95 18.12L62.26 19.53L60.85 19.48L61.88 20.31L61.5 22.1L61.41 22.18L62.6 21.27ZM57.41 30.4C56.43 32.57 56.31 34.2 55.96 35.39C55.61 36.57 55.07 41.75 55.05 43.5C55.03 44.25 55.07 44.75 55.12 45.09L67.19 23.97L65.77 21.41L65.09 21.44L64.96 24.48L62.62 22.87C62.62 22.85 60.35 24.02 60.23 24.28C59.78 25.26 58.25 28.57 57.41 30.4ZM61.55 17.85L58.48 18.33L60.15 20.43L59.87 23.64L56.47 27.04C56.47 27.04 50.94 32.63 49.44 35.07C48.49 36.57 47.84 37.47 47.48 37.96L47.3 -12.01L62.46 15.43L61.55 17.85ZM52.91 31.9C55.38 29.14 59.15 25.29 59.15 25.29C59.15 25.29 57.78 27.46 56.92 29.96C56.06 32.45 54.76 37.38 54.57 40.4C54.43 42.67 54.35 45.26 54.31 46.46L52.24 50.1C52.23 49.85 52.23 49.45 52.24 48.83C52.37 46.31 52.16 44.25 53.03 40.93C53.91 37.61 56.1 30.81 56.1 30.81C55.14 31.73 53.82 33.39 52.56 35.99L47.46 45.85L47.46 39.71C48.12 38.6 50.77 34.27 52.91 31.9ZM52.28 41.06C51.72 43.39 51.37 48.69 51.51 51.38L47.53 58.35L47.5 49.77C47.5 49.77 47.64 49.36 48.48 46.45C50.25 40.26 53.94 34.75 54.66 33.48C54.66 33.48 52.84 38.67 52.28 41.06ZM6.39 0.46C6.39 1.25 5.82 1.71 5.05 1.71C4.28 1.71 3.77 1.22 3.77 0.46C3.77 -0.29 4.26 -0.83 5.05 -0.83C5.82 -0.83 6.39 -0.31 6.39 0.46ZM41.13 29.18C41.13 29.62 40.89 29.8 40.41 29.8C39.94 29.8 39.73 29.62 39.73 29.18C39.73 28.74 39.96 28.58 40.41 28.58C40.89 28.58 41.13 28.74 41.13 29.18ZM39.22 28.54C39.22 29.52 38.54 30.14 37.59 30.14C36.65 30.14 35.96 29.52 35.96 28.54C35.94 27.57 36.65 26.92 37.59 26.92C38.54 26.92 39.22 27.57 39.22 28.54ZM10.5 18.63L10.5 18.6" stroke="#8E35FF" stroke-opacity="1.000000" stroke-width="0.500000"/>
		</g>
		<g mask="url(#mask2_32579)">
			<path id="Polygon 8" d="M6.34 9.18C3.87 10.61 2.34 13.25 2.34 16.11L2.34 31.88C2.34 34.74 3.87 37.38 6.34 38.81L20 46.68C22.47 48.11 25.52 48.11 28 46.68L41.65 38.81C44.12 37.38 45.65 34.74 45.65 31.88L45.65 16.11C45.65 13.25 44.12 10.61 41.65 9.18L28 1.31C25.52 -0.12 22.47 -0.12 20 1.31L6.34 9.18ZM7.34 10.92C5.49 11.99 4.34 13.97 4.34 16.11L4.34 31.88C4.34 34.02 5.49 36 7.34 37.07L21 44.96C22.85 46.03 25.14 46.03 27 44.96L40.65 37.07C42.5 36 43.65 34.02 43.65 31.88L43.65 16.11C43.65 13.97 42.5 11.99 40.65 10.92L27 3.03C25.14 1.96 22.85 1.96 21 3.03L7.34 10.92Z" fill="#8E35FF" fill-opacity="1.000000" fill-rule="evenodd"/>
		</g>
	</g>
</svg>
