<svg width="24.000000" height="24.000000" viewBox="0 0 24 24" fill="none" xmlns="http://www.w3.org/2000/svg" xmlns:xlink="http://www.w3.org/1999/xlink">
	<desc>
			Created with Pixso.
	</desc>
	<defs>
		<clipPath id="clip143_25189">
			<rect id="More" width="24.000000" height="24.000000" fill="white" fill-opacity="0"/>
		</clipPath>
	</defs>
	<rect id="More" width="24.000000" height="24.000000" fill="#FFFFFF" fill-opacity="0"/>
	<g clip-path="url(#clip143_25189)">
		<path id="Vector" d="M4.5 12C4.5 11.6 4.65 11.21 4.93 10.93C5.21 10.65 5.6 10.5 6 10.5C6.39 10.5 6.78 10.65 7.06 10.93C7.34 11.21 7.5 11.6 7.5 12C7.5 12.39 7.34 12.78 7.06 13.06C6.78 13.34 6.39 13.5 6 13.5C5.6 13.5 5.21 13.34 4.93 13.06C4.65 12.78 4.5 12.39 4.5 12ZM10.5 12C10.5 11.6 10.65 11.21 10.93 10.93C11.21 10.65 11.6 10.5 12 10.5C12.39 10.5 12.78 10.65 13.06 10.93C13.34 11.21 13.5 11.6 13.5 12C13.5 12.39 13.34 12.78 13.06 13.06C12.78 13.34 12.39 13.5 12 13.5C11.6 13.5 11.21 13.34 10.93 13.06C10.65 12.78 10.5 12.39 10.5 12ZM16.5 12C16.5 11.6 16.65 11.21 16.93 10.93C17.21 10.65 17.6 10.5 18 10.5C18.39 10.5 18.78 10.65 19.06 10.93C19.34 11.21 19.5 11.6 19.5 12C19.5 12.39 19.34 12.78 19.06 13.06C18.78 13.34 18.39 13.5 18 13.5C17.6 13.5 17.21 13.34 16.93 13.06C16.65 12.78 16.5 12.39 16.5 12Z" fill="#191A26" fill-opacity="1.000000" fill-rule="evenodd"/>
	</g>
</svg>
