<svg width="24.000000" height="24.000000" viewBox="0 0 24 24" fill="none" xmlns="http://www.w3.org/2000/svg" xmlns:xlink="http://www.w3.org/1999/xlink">
	<desc>
			Created with Pixso.
	</desc>
	<defs>
		<clipPath id="clip143_25468">
			<rect id="Profile" width="24.000000" height="24.000000" fill="white" fill-opacity="0"/>
		</clipPath>
	</defs>
	<rect id="Profile" width="24.000000" height="24.000000" fill="#FFFFFF" fill-opacity="0"/>
	<g clip-path="url(#clip143_25468)">
		<path id="Vector" d="M18.68 19.09C19.65 18.18 20.42 17.08 20.95 15.86C21.48 14.64 21.75 13.32 21.75 12C21.75 6.61 17.38 2.25 12 2.25C6.61 2.25 2.25 6.61 2.25 12C2.25 13.32 2.51 14.64 3.04 15.86C3.57 17.08 4.34 18.18 5.31 19.09C7.12 20.8 9.51 21.75 12 21.75C14.48 21.75 16.87 20.8 18.68 19.09ZM6.14 17.81C6.84 16.93 7.73 16.22 8.75 15.73C9.76 15.25 10.87 15 12 15C13.12 15 14.23 15.25 15.25 15.73C16.26 16.22 17.15 16.93 17.85 17.81C17.08 18.58 16.17 19.2 15.17 19.61C14.16 20.03 13.08 20.25 12 20.25C10.91 20.25 9.83 20.03 8.82 19.61C7.82 19.2 6.91 18.58 6.14 17.81ZM15.75 9C15.75 9.99 15.35 10.94 14.65 11.64C13.94 12.35 12.99 12.75 12 12.75C11 12.75 10.05 12.35 9.34 11.64C8.64 10.94 8.25 9.99 8.25 9C8.25 8 8.64 7.05 9.34 6.35C10.05 5.64 11 5.25 12 5.25C12.99 5.25 13.94 5.64 14.65 6.35C15.35 7.05 15.75 8 15.75 9Z" fill="#191A26" fill-opacity="1.000000" fill-rule="evenodd"/>
		<path id="Vector" d="M18.68 19.09C19.65 18.18 20.42 17.08 20.95 15.86C21.48 14.64 21.75 13.32 21.75 12C21.75 6.61 17.38 2.25 12 2.25C6.61 2.25 2.25 6.61 2.25 12C2.25 13.32 2.51 14.64 3.04 15.86C3.57 17.08 4.34 18.18 5.31 19.09C7.12 20.8 9.51 21.75 12 21.75C14.48 21.75 16.87 20.8 18.68 19.09ZM20.57 13.77Q20.39 14.64 20.03 15.46Q19.68 16.28 19.18 17Q19.02 17.23 18.84 17.45L18.63 17.18Q18.33 16.81 18 16.47Q17.66 16.14 17.29 15.84Q16.91 15.54 16.51 15.29Q16.11 15.04 15.67 14.83Q15.25 14.63 14.8 14.47Q14.35 14.32 13.88 14.21Q13.38 14.09 12.87 14.04Q12.43 14 12 14Q11.52 14 11.05 14.05Q10.57 14.1 10.11 14.21Q9.64 14.32 9.19 14.47Q8.75 14.63 8.32 14.83Q7.88 15.04 7.48 15.29Q7.08 15.54 6.7 15.84Q6.33 16.14 6 16.47Q5.66 16.81 5.36 17.18L5.15 17.45Q4.98 17.24 4.83 17.02Q4.32 16.29 3.96 15.46Q3.6 14.64 3.42 13.78Q3.25 12.91 3.25 12Q3.25 11 3.46 10.05Q3.63 9.31 3.93 8.59Q4.24 7.85 4.67 7.21Q5.16 6.46 5.81 5.81Q6.46 5.16 7.21 4.67Q7.86 4.25 8.59 3.93Q9.3 3.63 10.05 3.46Q11 3.25 12 3.25Q12.99 3.25 13.94 3.46Q14.69 3.63 15.4 3.93Q16.13 4.25 16.78 4.67Q17.53 5.16 18.18 5.81Q18.83 6.46 19.32 7.21Q19.75 7.85 20.06 8.59Q20.36 9.3 20.53 10.03Q20.75 10.99 20.75 12Q20.75 12.9 20.57 13.77ZM14.64 12.95Q15.02 12.69 15.35 12.35Q15.69 12.02 15.94 11.64Q16.2 11.25 16.38 10.82Q16.57 10.38 16.66 9.92Q16.75 9.46 16.75 9Q16.75 8.53 16.66 8.07Q16.57 7.61 16.38 7.17Q16.2 6.74 15.94 6.35Q15.69 5.97 15.35 5.64Q15.02 5.3 14.64 5.04Q14.25 4.78 13.81 4.6Q13.38 4.42 12.92 4.34Q12.47 4.25 12 4.25Q11.52 4.25 11.07 4.34Q10.61 4.42 10.18 4.6Q9.74 4.78 9.35 5.04Q8.97 5.3 8.64 5.64Q8.3 5.97 8.05 6.35Q7.79 6.74 7.61 7.17Q7.42 7.61 7.33 8.07Q7.25 8.53 7.25 9Q7.25 9.46 7.33 9.92Q7.42 10.38 7.61 10.82Q7.79 11.25 8.05 11.64Q8.3 12.02 8.64 12.35Q8.97 12.69 9.35 12.95Q9.74 13.21 10.18 13.39Q10.61 13.57 11.07 13.65Q11.52 13.75 12 13.75Q12.47 13.75 12.92 13.65Q13.38 13.57 13.81 13.39Q14.25 13.21 14.64 12.95ZM15.75 9C15.75 9.99 15.35 10.94 14.65 11.64C13.94 12.35 12.99 12.75 12 12.75C11 12.75 10.05 12.35 9.34 11.64C8.64 10.94 8.25 9.99 8.25 9C8.25 8 8.64 7.05 9.34 6.35C10.05 5.64 11 5.25 12 5.25C12.99 5.25 13.94 5.64 14.65 6.35C15.35 7.05 15.75 8 15.75 9ZM6.14 17.81C6.84 16.93 7.73 16.22 8.75 15.73C9.76 15.25 10.87 15 12 15C13.12 15 14.23 15.25 15.25 15.73C16.26 16.22 17.15 16.93 17.85 17.81C17.08 18.58 16.17 19.2 15.17 19.61C14.16 20.03 13.08 20.25 12 20.25C10.91 20.25 9.83 20.03 8.82 19.61C7.82 19.2 6.91 18.58 6.14 17.81Z" fill="#181A26" fill-opacity="1.000000" fill-rule="evenodd"/>
	</g>
</svg>
