<svg width="24.000000" height="24.000000" viewBox="0 0 24 24" fill="none" xmlns="http://www.w3.org/2000/svg" xmlns:xlink="http://www.w3.org/1999/xlink">
	<desc>
			Created with Pixso.
	</desc>
	<defs>
		<clipPath id="clip193_39743">
			<rect id="Star" width="24.000000" height="24.000000" fill="white" fill-opacity="0"/>
		</clipPath>
	</defs>
	<rect id="Star" width="24.000000" height="24.000000" fill="#FFFFFF" fill-opacity="0"/>
	<g clip-path="url(#clip193_39743)">
		<path id="Vector" d="M8.58 8.23L11.18 3C11.51 2.33 12.48 2.33 12.81 3L15.41 8.23L21.22 9.07C21.96 9.18 22.26 10.1 21.72 10.62L17.52 14.69L18.51 20.43C18.64 21.17 17.86 21.74 17.19 21.39L12 18.67L6.8 21.39C6.13 21.74 5.35 21.17 5.48 20.43L6.47 14.69L2.27 10.62C1.73 10.1 2.03 9.18 2.77 9.07L8.58 8.23Z" fill="#8E35FF" fill-opacity="1.000000" fill-rule="nonzero"/>
		<path id="Vector" d="M11.18 3C11.51 2.33 12.48 2.33 12.81 3L15.41 8.23L21.22 9.07C21.96 9.18 22.26 10.1 21.72 10.62L17.52 14.69L18.51 20.43C18.64 21.17 17.86 21.74 17.19 21.39L12 18.67L6.8 21.39C6.13 21.74 5.35 21.17 5.48 20.43L6.47 14.69L2.27 10.62C1.73 10.1 2.03 9.18 2.77 9.07L8.58 8.23L11.18 3Z" stroke="#8E35FF" stroke-opacity="1.000000" stroke-width="1.500000" stroke-linejoin="round"/>
	</g>
</svg>
