<svg width="24.000000" height="24.000000" viewBox="0 0 24 24" fill="none" xmlns="http://www.w3.org/2000/svg" xmlns:xlink="http://www.w3.org/1999/xlink">
	<desc>
			Created with Pixso.
	</desc>
	<defs>
		<clipPath id="clip84_27567">
			<rect id="Remove" width="24.000000" height="24.000000" fill="white" fill-opacity="0"/>
		</clipPath>
	</defs>
	<rect id="Remove" width="24.000000" height="24.000000" fill="#FFFFFF" fill-opacity="0"/>
	<g clip-path="url(#clip84_27567)">
		<path id="Vector" d="M5.46 5.47C5.6 5.33 5.8 5.25 6 5.25C6.19 5.25 6.39 5.33 6.53 5.47L12 10.94L17.46 5.47C17.53 5.39 17.62 5.34 17.71 5.29C17.8 5.25 17.9 5.23 18 5.23C18.1 5.23 18.2 5.25 18.3 5.28C18.39 5.32 18.47 5.38 18.54 5.45C18.62 5.52 18.67 5.6 18.71 5.7C18.75 5.79 18.76 5.89 18.76 6C18.76 6.1 18.74 6.19 18.7 6.28C18.66 6.38 18.6 6.46 18.53 6.53L13.05 12L18.53 17.47C18.6 17.53 18.66 17.62 18.7 17.71C18.74 17.8 18.76 17.9 18.76 18C18.76 18.1 18.75 18.21 18.71 18.3C18.67 18.39 18.62 18.48 18.54 18.55C18.47 18.62 18.39 18.67 18.3 18.71C18.2 18.75 18.1 18.77 18 18.77C17.9 18.77 17.8 18.75 17.71 18.7C17.62 18.66 17.53 18.6 17.46 18.53L12 13.06L6.53 18.53C6.38 18.66 6.19 18.73 6 18.73C5.8 18.73 5.62 18.64 5.48 18.51C5.35 18.37 5.27 18.19 5.26 18C5.26 17.8 5.33 17.61 5.46 17.47L10.93 12L5.46 6.53C5.32 6.39 5.25 6.2 5.25 6C5.25 5.8 5.32 5.61 5.46 5.47Z" fill="#191A26" fill-opacity="1.000000" fill-rule="evenodd"/>
	</g>
</svg>
