<svg width="320.000000" height="320.000000" viewBox="0 0 320 320" fill="none" xmlns="http://www.w3.org/2000/svg" xmlns:xlink="http://www.w3.org/1999/xlink">
	<desc>
			Created with Pixso.
	</desc>
	<defs/>
	<path id="Polygon 7" d="M150 5.77L31.43 74.22C25.24 77.79 21.43 84.39 21.43 91.54L21.43 228.45C21.43 235.6 25.24 242.2 31.43 245.77L150 314.22C156.18 317.79 163.81 317.79 170 314.22L288.56 245.77C294.75 242.2 298.56 235.6 298.56 228.45L298.56 91.54C298.56 84.39 294.75 77.79 288.56 74.22L170 5.77C163.81 2.2 156.18 2.2 150 5.77Z" fill="#8E35FF" fill-opacity="1.000000" fill-rule="evenodd"/>
	<path id="Vector" d="M75.17 146.89L71.8 149.41C69.85 148.05 67.51 147.21 64.98 147.06L64.98 147.1C64.73 147.07 64.53 147.07 64.29 147.07C60.64 147.07 57.3 148.58 54.91 151.03L54.89 151.02C52.64 153.29 51.18 156.41 51 159.82L51.02 159.82C51 159.95 51 160.06 50.99 160.17C50.99 160.28 50.98 160.4 50.98 160.51C50.98 164.24 52.49 167.58 54.91 170L54.89 170.01C57.14 172.29 60.2 173.77 63.6 173.94L63.61 173.93C63.73 173.94 63.84 173.96 63.95 173.96C64.06 173.96 64.17 173.96 64.29 173.96C67.98 173.96 71.28 172.48 73.67 170L73.71 170.03C76.12 167.6 77.63 164.24 77.63 160.51L77.63 160.17L81.35 157.38C81.52 158.41 81.62 159.44 81.62 160.51C81.62 165.65 79.41 170.31 75.92 173.48L75.89 173.45C72.82 176.26 68.75 177.99 64.29 178L64.27 178L64.26 178L64.23 178C59.17 177.98 54.62 175.78 51.46 172.24L51.48 172.22C48.7 169.12 47 165.01 47 160.51L47 160.51L47 160.5L47 160.48L47 160.45C47.01 155.34 49.19 150.74 52.69 147.55L52.71 147.57C55.78 144.75 59.84 143.04 64.29 143.03L64.29 143C68.42 143 72.2 144.48 75.17 146.89ZM103.35 167.48C104.71 167.48 106.05 167.14 107.24 166.48L108.27 165.93L111.16 168.1C109.25 170.17 106.42 171.31 103.18 171.31C100.25 171.38 97.38 170.24 95.23 168.2C93.22 166.17 92.09 163.39 92.09 160.51C92.09 160.46 92.09 160.42 92.09 160.38C92.09 160.29 92.09 160.21 92.09 160.14C92.09 157.32 93.24 154.63 95.23 152.68C97.28 150.75 100.11 149.68 103.21 149.68C106.08 149.68 108.6 150.55 110.48 152.24L110.69 152.45L107.44 154.85C106.25 154 104.82 153.51 103.35 153.55C99.29 153.55 96.36 156.48 96.36 160.51C96.36 164.55 99.29 167.48 103.35 167.48ZM78.01 149.82C78.82 150.89 79.51 152.07 80.08 153.31L64.33 165.07L57.71 160.85L57.71 155.82L64.29 160L78.01 149.82ZM119.45 158.17L124.91 158.17C129.89 158.17 132.62 160.38 132.62 164.41C132.62 168.61 129.59 171.03 124.33 171.03L114.95 171.03L114.95 149.96L132.89 149.96L128.19 153.48L119.45 153.48L119.45 158.17ZM152.58 149.96L147.87 153.48L141.32 153.48L141.32 158.62L150.94 158.62L150.94 162.14L141.32 162.14L141.32 167.51L152.58 167.51L152.58 171.03L136.82 171.03L136.82 149.96L152.58 149.96ZM156.77 149.96L165.34 149.96C170.83 149.96 174.24 152.85 174.24 157.51C174.24 162.17 170.83 165.07 165.37 165.07L161.28 165.07L161.28 171.03L156.77 171.03L156.77 149.96ZM259.86 162.55L257.07 162.55L257.07 171.03L252.57 171.03L252.57 149.96L257.07 149.96L257.07 159L259.56 159L266.25 149.96L271.39 149.96L263.34 160.14L272.55 171.03L266.75 171.03L259.86 162.55ZM188.16 153.51L188.16 158.2L193.61 158.2C198.6 158.2 201.33 160.41 201.33 164.45C201.33 168.65 198.29 171.07 193.03 171.07L183.66 171.07L183.66 150L199.93 150L199.93 153.51L188.16 153.51ZM225.37 171.07L220.64 171.07L218.93 166.82L209.38 166.82L207.57 171.07L203.03 171.07L212 150L216.57 150L225.37 171.07ZM228.38 171.07L228.38 150L232.88 150L232.88 158.65L242.47 158.65L242.47 150L246.97 150L246.97 171.07L242.47 171.07L242.47 162.44L232.88 162.44L232.88 171.07L228.38 171.07ZM161.25 161.55L165.23 161.55C168.14 161.55 169.7 160.1 169.7 157.51C169.7 154.92 168.14 153.48 165.23 153.48L161.25 153.48L161.25 161.55ZM214.22 154.85L210.74 163.31L217.5 163.31L214.22 154.85ZM119.45 167.51L124.16 167.51C126.93 167.51 128.35 166.58 128.35 164.62C128.35 162.65 127.03 161.68 124.16 161.68L119.45 161.68L119.45 167.51ZM192.87 161.72L188.16 161.72L188.16 167.58L192.87 167.58C195.66 167.58 197.06 166.62 197.06 164.65C197.06 162.68 195.73 161.72 192.87 161.72Z" fill="#FFFFFF" fill-opacity="1.000000" fill-rule="evenodd"/>
</svg>
