<svg width="225.558594" height="35.000000" viewBox="0 0 225.559 35" fill="none" xmlns="http://www.w3.org/2000/svg" xmlns:xlink="http://www.w3.org/1999/xlink">
	<desc>
			Created with Pixso.
	</desc>
	<defs/>
	<path id="Vector" d="M28.17 3.89L24.8 6.41C22.85 5.05 20.51 4.21 17.98 4.06L17.98 4.1C17.73 4.07 17.53 4.07 17.29 4.07C13.64 4.07 10.3 5.58 7.91 8.03L7.89 8.02C5.64 10.29 4.18 13.41 4 16.82L4.02 16.82C4 16.95 4 17.06 3.99 17.17C3.99 17.28 3.98 17.4 3.98 17.51C3.98 21.24 5.49 24.58 7.91 27L7.89 27.01C10.14 29.29 13.2 30.77 16.6 30.94L16.61 30.92C16.73 30.94 16.84 30.96 16.95 30.96C17.06 30.96 17.17 30.96 17.29 30.96C20.98 30.96 24.28 29.48 26.67 27L26.71 27.03C29.12 24.6 30.63 21.24 30.63 17.51L30.63 17.17L34.35 14.38C34.52 15.41 34.62 16.44 34.62 17.51C34.62 22.65 32.41 27.31 28.92 30.48L28.89 30.45C25.82 33.26 21.75 34.99 17.29 35L17.27 35L17.26 35L17.23 35C12.17 34.98 7.62 32.78 4.46 29.24L4.48 29.22C1.7 26.12 0 22.01 0 17.51L0 17.51L0 17.5L0 17.48L0 17.45C0.01 12.34 2.19 7.74 5.69 4.55L5.71 4.57C8.78 1.75 12.84 0.04 17.29 0.03L17.29 0C21.42 0 25.2 1.48 28.17 3.89ZM56.35 24.48C57.71 24.48 59.05 24.14 60.24 23.48L61.26 22.92L64.16 25.1C62.25 27.17 59.42 28.31 56.18 28.31C53.25 28.38 50.38 27.24 48.23 25.2C46.22 23.17 45.09 20.39 45.09 17.51C45.09 17.46 45.09 17.42 45.09 17.38C45.09 17.29 45.09 17.21 45.09 17.14C45.09 14.32 46.24 11.63 48.23 9.68C50.28 7.75 53.11 6.68 56.21 6.68C59.08 6.68 61.6 7.55 63.48 9.24L63.69 9.45L60.44 11.85C59.25 11 57.82 10.51 56.35 10.55C52.29 10.55 49.36 13.48 49.36 17.51C49.36 21.55 52.29 24.48 56.35 24.48ZM31.01 6.82C31.82 7.89 32.51 9.07 33.08 10.31L17.33 22.07L10.71 17.85L10.71 12.82L17.29 17L31.01 6.82ZM72.45 15.17L77.91 15.17C82.89 15.17 85.62 17.38 85.62 21.41C85.62 25.61 82.58 28.03 77.33 28.03L67.95 28.03L67.95 6.96L85.89 6.96L81.19 10.48L72.45 10.48L72.45 15.17ZM105.58 6.96L100.87 10.48L94.32 10.48L94.32 15.62L103.94 15.62L103.94 19.14L94.32 19.14L94.32 24.51L105.58 24.51L105.58 28.03L89.82 28.03L89.82 6.96L105.58 6.96ZM109.77 6.96L118.34 6.96C123.83 6.96 127.24 9.85 127.24 14.51C127.24 19.17 123.83 22.07 118.37 22.07L114.28 22.07L114.28 28.03L109.77 28.03L109.77 6.96ZM212.86 19.55L210.07 19.55L210.07 28.03L205.57 28.03L205.57 6.96L210.07 6.96L210.07 16L212.56 16L219.25 6.96L224.39 6.96L216.34 17.14L225.55 28.03L219.75 28.03L212.86 19.55ZM141.16 10.51L141.16 15.2L146.61 15.2C151.6 15.2 154.33 17.41 154.33 21.45C154.33 25.65 151.29 28.07 146.03 28.07L136.66 28.07L136.66 7L152.92 7L152.92 10.51L141.16 10.51ZM178.37 28.07L173.64 28.07L171.93 23.82L162.38 23.82L160.57 28.07L156.03 28.07L165 7L169.57 7L178.37 28.07ZM181.38 28.07L181.38 7L185.88 7L185.88 15.65L195.47 15.65L195.47 7L199.97 7L199.97 28.07L195.47 28.07L195.47 19.44L185.88 19.44L185.88 28.07L181.38 28.07ZM114.25 18.55L118.23 18.55C121.14 18.55 122.7 17.1 122.7 14.51C122.7 11.92 121.14 10.48 118.23 10.48L114.25 10.48L114.25 18.55ZM167.22 11.85L163.74 20.31L170.5 20.31L167.22 11.85ZM72.45 24.51L77.16 24.51C79.92 24.51 81.35 23.58 81.35 21.62C81.35 19.65 80.03 18.68 77.16 18.68L72.45 18.68L72.45 24.51ZM145.87 18.72L141.16 18.72L141.16 24.58L145.87 24.58C148.66 24.58 150.06 23.62 150.06 21.65C150.06 19.68 148.73 18.72 145.87 18.72Z" fill="#FFFFFF" fill-opacity="1.000000" fill-rule="evenodd"/>
</svg>
