<svg width="24.000000" height="24.000000" viewBox="0 0 24 24" fill="none" xmlns="http://www.w3.org/2000/svg" xmlns:xlink="http://www.w3.org/1999/xlink">
	<desc>
			Created with Pixso.
	</desc>
	<defs>
		<clipPath id="clip2_32595">
			<rect id="Search" width="24.000000" height="24.000000" fill="white" fill-opacity="0"/>
		</clipPath>
	</defs>
	<rect id="Search" width="24.000000" height="24.000000" fill="#FFFFFF" fill-opacity="0"/>
	<g clip-path="url(#clip2_32595)">
		<path id="Vector" d="M10.5 3.75C9.61 3.75 8.73 3.92 7.91 4.26C7.09 4.6 6.35 5.1 5.72 5.72C5.1 6.35 4.6 7.09 4.26 7.91C3.92 8.73 3.75 9.6 3.75 10.5C3.75 11.38 3.92 12.26 4.26 13.07C4.6 13.89 5.1 14.64 5.72 15.27C6.35 15.89 7.09 16.39 7.91 16.73C8.73 17.07 9.61 17.25 10.5 17.25C12.28 17.25 14 16.53 15.27 15.27C16.53 14 17.25 12.28 17.25 10.5C17.25 8.71 16.53 6.99 15.27 5.72C14 4.46 12.28 3.75 10.5 3.75ZM2.25 10.5C2.25 9.17 2.57 7.86 3.17 6.69C3.79 5.51 4.67 4.5 5.76 3.74C6.84 2.98 8.09 2.5 9.41 2.32C10.72 2.14 12.06 2.28 13.3 2.74C14.55 3.19 15.67 3.93 16.57 4.91C17.46 5.89 18.11 7.06 18.46 8.34C18.8 9.61 18.84 10.96 18.55 12.25C18.27 13.55 17.68 14.75 16.83 15.78L21.53 20.46C21.6 20.53 21.66 20.61 21.7 20.71C21.74 20.8 21.76 20.9 21.76 21C21.76 21.1 21.75 21.2 21.71 21.29C21.67 21.39 21.62 21.47 21.55 21.54C21.47 21.61 21.39 21.67 21.3 21.71C21.2 21.75 21.1 21.76 21 21.76C20.9 21.76 20.8 21.74 20.71 21.7C20.62 21.66 20.53 21.6 20.46 21.53L15.78 16.83C14.57 17.84 13.1 18.48 11.55 18.67C10 18.88 8.41 18.63 7 17.96C5.57 17.3 4.37 16.25 3.53 14.92C2.69 13.6 2.25 12.07 2.25 10.5Z" fill="#191A26" fill-opacity="1.000000" fill-rule="evenodd"/>
	</g>
</svg>
