<svg width="320.000000" height="320.000000" viewBox="0 0 320 320" fill="none" xmlns="http://www.w3.org/2000/svg" xmlns:xlink="http://www.w3.org/1999/xlink">
	<desc>
			Created with Pixso.
	</desc>
	<defs/>
	<path id="Polygon 7" d="M146 8.08L35.43 71.91C26.77 76.92 21.43 86.16 21.43 96.16L21.43 223.83C21.43 233.83 26.77 243.07 35.43 248.08L146 311.91C154.66 316.92 165.33 316.92 174 311.91L284.56 248.08C293.22 243.07 298.56 233.83 298.56 223.83L298.56 96.16C298.56 86.16 293.22 76.92 284.56 71.91L174 8.08C165.33 3.07 154.66 3.07 146 8.08Z" fill="#F36DFF" fill-opacity="1.000000" fill-rule="evenodd"/>
	<path id="Vector" d="M95.08 168.5C95.08 174.79 90.08 179.35 82.13 179.35C77.52 179.21 73.16 177.26 70 173.9L72.65 170.96C75.14 173.33 78.07 175.63 82.08 175.63C86.53 175.63 91.33 173.14 91.33 168.65C91.33 164.93 88.37 162.5 82.15 160.58C75.06 158.42 71.46 155.48 71.46 149.95C71.46 144.48 76.09 140 82.69 140C87.61 140 90.69 142.1 93.69 144.78L91.08 147.67C88.45 145.35 85.94 143.77 82.87 143.77C79.05 143.77 75.29 146.23 75.29 149.77C75.29 152.98 77.13 155.02 83.64 157.01C89.6 158.85 95.08 161.7 95.08 168.5ZM127.25 143.62C127.25 145.34 128.64 146.74 130.37 146.74C131.19 146.74 131.99 146.41 132.57 145.82C133.16 145.24 133.48 144.45 133.48 143.62C133.48 141.89 132.09 140.5 130.37 140.5C128.64 140.5 127.25 141.89 127.25 143.62ZM157.42 141.14L153.67 141.14L153.67 178.73L157.42 178.73L157.42 141.14ZM166.2 177.48C166.2 177.48 168.52 179.35 176.23 179.35L176.22 179.35C183.83 179.35 190.01 173.79 190.01 166.18C190.01 158.58 183.84 153.03 176.23 153.03C174.07 152.98 171.92 153.42 169.96 154.32L169.96 141.14L166.2 141.14L166.2 177.48ZM194.4 166.21C194.4 173.82 200.57 180 208.18 180C215.78 180 221.95 173.83 221.95 166.22C221.95 158.61 215.78 152.44 208.18 152.44C200.57 152.44 194.4 158.61 194.4 166.21ZM244.75 178.74L249.66 178.74L238.81 165.82L248.93 153.7L244.05 153.7L236.36 162.9L228.64 153.7L223.73 153.7L233.92 165.84L223.15 178.74L228.03 178.74L236.37 168.75L244.75 178.74ZM208.2 156.16C204.14 156.16 200.48 158.6 198.93 162.35C197.37 166.1 198.23 170.42 201.1 173.28C203.97 176.16 208.29 177.02 212.03 175.46C215.78 173.91 218.23 170.25 218.23 166.19C218.23 160.65 213.74 156.16 208.2 156.16ZM176.23 156.8C173.98 156.83 171.8 157.54 169.96 158.83L169.96 174.35C171.91 175.29 174.06 175.72 176.23 175.6C181.76 175.6 186.25 171.73 186.25 166.2C186.25 160.67 181.76 156.8 176.22 156.8L176.23 156.8ZM141.14 141.14L144.9 141.14L144.9 178.73L141.14 178.73L141.14 141.14ZM117.95 178.73L104.8 165.58L116.71 153.67L122.02 153.67L110.12 165.58L123.27 178.73L117.95 178.73ZM101.03 141.14L101.03 178.73L104.79 178.73L104.79 141.14L101.03 141.14ZM128.62 178.73L132.38 178.73L132.38 153.67L128.62 153.67L128.62 178.73Z" fill="#FFFFFF" fill-opacity="1.000000" fill-rule="evenodd"/>
</svg>
