<svg width="179.660156" height="40.000000" viewBox="0 0 179.66 40" fill="none" xmlns="http://www.w3.org/2000/svg" xmlns:xlink="http://www.w3.org/1999/xlink">
	<desc>
			Created with Pixso.
	</desc>
	<defs/>
	<path id="Vector" d="M25.08 28.5C25.08 34.79 20.08 39.35 12.13 39.35C7.52 39.21 3.16 37.26 0 33.9L2.65 30.96C5.14 33.33 8.07 35.63 12.08 35.63C16.53 35.63 21.33 33.14 21.33 28.65C21.33 24.92 18.37 22.5 12.15 20.58C5.06 18.42 1.46 15.48 1.46 9.95C1.46 4.48 6.09 0 12.69 0C17.61 0 20.69 2.1 23.69 4.78L21.08 7.67C18.45 5.35 15.94 3.77 12.87 3.77C9.05 3.77 5.29 6.23 5.29 9.77C5.29 12.98 7.13 15.02 13.64 17.01C19.6 18.85 25.08 21.7 25.08 28.5ZM57.25 3.62C57.25 5.34 58.64 6.74 60.37 6.74C61.19 6.74 61.99 6.41 62.57 5.82C63.16 5.24 63.48 4.45 63.48 3.62C63.48 1.89 62.09 0.5 60.37 0.5C58.64 0.5 57.25 1.89 57.25 3.62ZM87.42 1.14L83.67 1.14L83.67 38.73L87.42 38.73L87.42 1.14ZM96.2 37.48C96.2 37.48 98.51 39.35 106.23 39.35L106.22 39.35C113.83 39.35 120.01 33.79 120.01 26.18C120.01 18.58 113.84 13.03 106.23 13.03C104.07 12.98 101.92 13.42 99.96 14.32L99.96 1.14L96.2 1.14L96.2 37.48ZM124.4 26.21C124.4 33.82 130.57 40 138.17 40C145.78 40 151.95 33.83 151.95 26.22C151.95 18.61 145.78 12.44 138.17 12.44C130.57 12.44 124.4 18.61 124.4 26.21ZM174.75 38.74L179.66 38.74L168.81 25.82L178.93 13.7L174.05 13.7L166.36 22.9L158.64 13.7L153.73 13.7L163.92 25.84L153.15 38.74L158.03 38.74L166.37 28.75L174.75 38.74ZM138.2 16.16C134.14 16.16 130.48 18.6 128.93 22.35C127.37 26.1 128.23 30.42 131.1 33.28C133.97 36.16 138.29 37.02 142.03 35.46C145.78 33.91 148.23 30.25 148.23 26.19C148.23 20.65 143.74 16.16 138.2 16.16ZM106.23 16.8C103.98 16.83 101.8 17.54 99.96 18.83L99.96 34.35C101.91 35.29 104.06 35.72 106.23 35.6C111.76 35.6 116.25 31.73 116.25 26.2C116.25 20.67 111.76 16.8 106.22 16.8L106.23 16.8ZM71.14 1.14L74.9 1.14L74.9 38.73L71.14 38.73L71.14 1.14ZM47.95 38.73L34.8 25.58L46.71 13.67L52.02 13.67L40.12 25.58L53.27 38.73L47.95 38.73ZM31.03 1.14L31.03 38.73L34.79 38.73L34.79 1.14L31.03 1.14ZM58.62 38.73L62.38 38.73L62.38 13.67L58.62 13.67L58.62 38.73Z" fill="#FFFFFF" fill-opacity="1.000000" fill-rule="evenodd"/>
</svg>
