<svg width="64.000000" height="64.000000" viewBox="0 0 64 64" fill="none" xmlns="http://www.w3.org/2000/svg" xmlns:xlink="http://www.w3.org/1999/xlink">
	<desc>
			Created with Pixso.
	</desc>
	<defs>
		<clipPath id="clip3_32634">
			<rect id="vk-logo-svgrepo-com 1" width="24.000000" height="24.000000" transform="translate(20.000000 20.000000)" fill="white" fill-opacity="0"/>
		</clipPath>
	</defs>
	<path id="Polygon 7" d="M28 2.31L8.28 13.68C5.81 15.11 4.28 17.75 4.28 20.61L4.28 43.38C4.28 46.24 5.81 48.88 8.28 50.31L28 61.68C30.47 63.11 33.52 63.11 36 61.68L55.71 50.31C58.18 48.88 59.71 46.24 59.71 43.38L59.71 20.61C59.71 17.75 58.18 15.11 55.71 13.68L36 2.31C33.52 0.88 30.47 0.88 28 2.31Z" fill="#F5F8FA" fill-opacity="1.000000" fill-rule="evenodd"/>
	<path id="Polygon 7" d="M8.28 13.68C5.81 15.11 4.28 17.75 4.28 20.61L4.28 43.38C4.28 46.24 5.81 48.88 8.28 50.31L28 61.68C30.47 63.11 33.52 63.11 36 61.68L55.71 50.31C58.18 48.88 59.71 46.24 59.71 43.38L59.71 20.61C59.71 17.75 58.18 15.11 55.71 13.68L36 2.31C33.52 0.88 30.47 0.88 28 2.31L8.28 13.68ZM9.28 15.42C7.42 16.49 6.28 18.47 6.28 20.61L6.28 43.38C6.28 45.52 7.42 47.5 9.28 48.57L29 59.96C30.85 61.03 33.14 61.03 35 59.96L54.71 48.57C56.57 47.5 57.71 45.52 57.71 43.38L57.71 20.61C57.71 18.47 56.57 16.49 54.71 15.42L35 4.03C33.14 2.96 30.85 2.96 29 4.03L9.28 15.42Z" fill="#7D41FD" fill-opacity="0" fill-rule="evenodd"/>
	<rect id="vk-logo-svgrepo-com 1" width="24.000000" height="24.000000" transform="translate(20.000000 20.000000)" fill="#FFFFFF" fill-opacity="0"/>
	<g clip-path="url(#clip3_32634)">
		<path id="Vector" d="M42.95 35.88C42.43 35.25 41.83 34.69 41.26 34.14C41.06 33.95 40.85 33.75 40.64 33.55C40.06 32.98 40.04 32.77 40.5 32.12C40.82 31.67 41.16 31.22 41.49 30.79C41.78 30.39 42.09 29.99 42.39 29.58L42.45 29.5C43.01 28.72 43.6 27.91 43.91 26.94C43.99 26.68 44.07 26.3 43.88 25.99C43.68 25.67 43.31 25.57 43.04 25.53C42.91 25.51 42.78 25.5 42.66 25.5L38.97 25.5L38.94 25.5C38.38 25.5 38 25.77 37.79 26.31C37.58 26.82 37.35 27.38 37.1 27.9C36.58 28.94 35.93 30.14 34.99 31.14L34.95 31.19C34.83 31.31 34.71 31.44 34.62 31.44C34.6 31.44 34.59 31.44 34.57 31.43C34.37 31.35 34.25 30.89 34.25 30.67C34.25 30.66 34.25 30.66 34.25 30.66L34.25 26.39C34.25 26.37 34.25 26.35 34.25 26.35C34.15 25.65 33.94 25.22 33.16 25.07C33.14 25.06 33.12 25.06 33.09 25.06L29.25 25.06C28.63 25.06 28.28 25.32 27.96 25.69C27.87 25.79 27.69 26 27.78 26.26C27.87 26.53 28.17 26.58 28.26 26.6C28.75 26.69 29.01 26.98 29.09 27.5C29.23 28.39 29.25 29.34 29.14 30.49C29.12 30.81 29.06 31.06 28.97 31.27C28.95 31.32 28.88 31.48 28.8 31.48C28.78 31.48 28.71 31.47 28.58 31.39C28.29 31.18 28.07 30.89 27.82 30.53C26.95 29.31 26.23 27.96 25.6 26.42C25.36 25.85 24.93 25.53 24.37 25.52C23.76 25.5 23.2 25.5 22.67 25.5C22.09 25.5 21.56 25.51 21.03 25.52C20.58 25.53 20.27 25.66 20.11 25.92C19.95 26.17 19.96 26.52 20.14 26.92C21.62 30.21 22.96 32.6 24.49 34.67C25.55 36.12 26.63 37.12 27.86 37.82C29.16 38.57 30.62 38.93 32.32 38.93C32.51 38.93 32.71 38.92 32.91 38.92C33.89 38.87 34.26 38.51 34.3 37.55C34.33 37.06 34.38 36.55 34.62 36.1C34.77 35.83 34.91 35.83 34.96 35.83C35.05 35.83 35.16 35.87 35.28 35.95C35.5 36.09 35.68 36.28 35.83 36.44C35.98 36.6 36.11 36.75 36.25 36.91C36.56 37.25 36.87 37.6 37.2 37.93C37.92 38.67 38.71 38.99 39.61 38.92L43 38.92C43.01 38.92 43.01 38.92 43.02 38.92C43.36 38.89 43.65 38.71 43.82 38.4C44.03 38.03 44.03 37.54 43.81 37.12C43.56 36.64 43.24 36.22 42.95 35.88Z" fill="#8B8E9A" fill-opacity="1.000000" fill-rule="nonzero"/>
	</g>
</svg>
