<svg width="64.000000" height="64.000000" viewBox="0 0 64 64" fill="none" xmlns="http://www.w3.org/2000/svg" xmlns:xlink="http://www.w3.org/1999/xlink">
	<desc>
			Created with Pixso.
	</desc>
	<defs>
		<clipPath id="clip3_32638">
			<rect id="Facebook_f_logo_(2021) 1" width="24.000000" height="24.000000" transform="translate(20.000000 20.000000)" fill="white" fill-opacity="0"/>
		</clipPath>
	</defs>
	<path id="Polygon 7" d="M28 2.31L8.28 13.68C5.81 15.11 4.28 17.75 4.28 20.61L4.28 43.38C4.28 46.24 5.81 48.88 8.28 50.31L28 61.68C30.47 63.11 33.52 63.11 36 61.68L55.71 50.31C58.18 48.88 59.71 46.24 59.71 43.38L59.71 20.61C59.71 17.75 58.18 15.11 55.71 13.68L36 2.31C33.52 0.88 30.47 0.88 28 2.31Z" fill="#F5F8FA" fill-opacity="1.000000" fill-rule="evenodd"/>
	<path id="Polygon 7" d="M8.28 13.68C5.81 15.11 4.28 17.75 4.28 20.61L4.28 43.38C4.28 46.24 5.81 48.88 8.28 50.31L28 61.68C30.47 63.11 33.52 63.11 36 61.68L55.71 50.31C58.18 48.88 59.71 46.24 59.71 43.38L59.71 20.61C59.71 17.75 58.18 15.11 55.71 13.68L36 2.31C33.52 0.88 30.47 0.88 28 2.31L8.28 13.68ZM9.28 15.42C7.42 16.49 6.28 18.47 6.28 20.61L6.28 43.38C6.28 45.52 7.42 47.5 9.28 48.57L29 59.96C30.85 61.03 33.14 61.03 35 59.96L54.71 48.57C56.57 47.5 57.71 45.52 57.71 43.38L57.71 20.61C57.71 18.47 56.57 16.49 54.71 15.42L35 4.03C33.14 2.96 30.85 2.96 29 4.03L9.28 15.42Z" fill="#7D41FD" fill-opacity="0" fill-rule="evenodd"/>
	<rect id="Facebook_f_logo_(2021) 1" width="24.000000" height="24.000000" transform="translate(20.000000 20.000000)" fill="#FFFFFF" fill-opacity="0"/>
	<g clip-path="url(#clip3_32638)">
		<path id="Vector" d="M30.35 42C25.6 41.14 22 37.02 22 32.04C22 26.52 26.5 22 32 22C37.5 22 42 26.52 42 32.04C42 37.02 38.39 41.14 33.64 42L33.39 41.78L33.39 34.84L35.44 34.84L35.85 32.06L33.39 32.06L33.39 30.12C33.39 29.32 33.67 28.73 34.78 28.73L36 28.73L36 26.19C35.34 26.1 34.6 26 33.95 26C31.81 26 30.32 27.39 30.32 29.87L30.32 32.06L28 32.06L28 34.84L30.32 34.84L30.32 41.85C30.38 41.85 30.43 41.87 30.49 41.88L30.35 42Z" fill="#8B8E9A" fill-opacity="1.000000" fill-rule="evenodd"/>
	</g>
</svg>
