<svg width="64.000000" height="64.000000" viewBox="0 0 64 64" fill="none" xmlns="http://www.w3.org/2000/svg" xmlns:xlink="http://www.w3.org/1999/xlink">
	<desc>
			Created with Pixso.
	</desc>
	<defs>
		<clipPath id="clip3_32630">
			<rect id="instagram-logo-fill-svgrepo-com 1" width="24.000000" height="24.000000" transform="translate(20.000000 20.000000)" fill="white" fill-opacity="0"/>
		</clipPath>
	</defs>
	<path id="Polygon 7" d="M28 2.31L8.28 13.68C5.81 15.11 4.28 17.75 4.28 20.61L4.28 43.38C4.28 46.24 5.81 48.88 8.28 50.31L28 61.68C30.47 63.11 33.52 63.11 36 61.68L55.71 50.31C58.18 48.88 59.71 46.24 59.71 43.38L59.71 20.61C59.71 17.75 58.18 15.11 55.71 13.68L36 2.31C33.52 0.88 30.47 0.88 28 2.31Z" fill="#F5F8FA" fill-opacity="1.000000" fill-rule="evenodd"/>
	<path id="Polygon 7" d="M8.28 13.68C5.81 15.11 4.28 17.75 4.28 20.61L4.28 43.38C4.28 46.24 5.81 48.88 8.28 50.31L28 61.68C30.47 63.11 33.52 63.11 36 61.68L55.71 50.31C58.18 48.88 59.71 46.24 59.71 43.38L59.71 20.61C59.71 17.75 58.18 15.11 55.71 13.68L36 2.31C33.52 0.88 30.47 0.88 28 2.31L8.28 13.68ZM9.28 15.42C7.42 16.49 6.28 18.47 6.28 20.61L6.28 43.38C6.28 45.52 7.42 47.5 9.28 48.57L29 59.96C30.85 61.03 33.14 61.03 35 59.96L54.71 48.57C56.57 47.5 57.71 45.52 57.71 43.38L57.71 20.61C57.71 18.47 56.57 16.49 54.71 15.42L35 4.03C33.14 2.96 30.85 2.96 29 4.03L9.28 15.42Z" fill="#7D41FD" fill-opacity="0" fill-rule="evenodd"/>
	<rect id="instagram-logo-fill-svgrepo-com 1" width="24.000000" height="24.000000" transform="translate(20.000000 20.000000)" fill="#FFFFFF" fill-opacity="0"/>
	<g clip-path="url(#clip3_32630)">
		<path id="Vector" d="M35 32C35 32.59 34.82 33.17 34.49 33.66C34.16 34.15 33.69 34.54 33.14 34.77C32.6 35 31.99 35.05 31.41 34.94C30.83 34.82 30.29 34.53 29.87 34.12C29.46 33.7 29.17 33.16 29.05 32.58C28.94 32 29 31.39 29.22 30.85C29.45 30.3 29.83 29.83 30.33 29.5C30.82 29.17 31.4 29 32 29C32.79 29 33.55 29.32 34.12 29.88C34.68 30.44 35 31.2 35 32ZM41.37 27.87L41.37 36.12C41.37 37.51 40.82 38.85 39.83 39.83C38.85 40.82 37.51 41.37 36.12 41.37L27.87 41.37C26.48 41.37 25.14 40.82 24.16 39.83C23.17 38.85 22.62 37.51 22.62 36.12L22.62 27.87C22.62 26.48 23.17 25.14 24.16 24.16C25.14 23.17 26.48 22.62 27.87 22.62L36.12 22.62C37.51 22.62 38.85 23.17 39.83 24.16C40.82 25.14 41.37 26.48 41.37 27.87ZM36.5 32C36.5 31.1 36.23 30.24 35.74 29.5C35.24 28.75 34.54 28.17 33.72 27.84C32.89 27.5 31.99 27.41 31.12 27.58C30.25 27.75 29.44 28.18 28.81 28.82C28.18 29.44 27.76 30.25 27.58 31.12C27.41 31.99 27.5 32.89 27.84 33.71C28.18 34.54 28.76 35.25 29.5 35.74C30.23 36.23 31.1 36.5 32 36.5C33.19 36.5 34.33 36.02 35.17 35.17C36.02 34.33 36.5 33.19 36.5 32ZM38 27.12C38 26.9 37.93 26.68 37.8 26.5C37.68 26.31 37.51 26.17 37.3 26.08C37.1 26 36.87 25.97 36.65 26.02C36.43 26.06 36.23 26.17 36.07 26.32C35.92 26.48 35.81 26.68 35.77 26.9C35.72 27.12 35.75 27.35 35.83 27.55C35.92 27.75 36.06 27.93 36.25 28.06C36.43 28.18 36.65 28.25 36.87 28.25C37.17 28.25 37.46 28.13 37.67 27.92C37.88 27.71 38 27.42 38 27.12Z" fill="#8B8E9A" fill-opacity="1.000000" fill-rule="nonzero"/>
	</g>
</svg>
