<svg width="24.000000" height="24.000000" viewBox="0 0 24 24" fill="none" xmlns="http://www.w3.org/2000/svg" xmlns:xlink="http://www.w3.org/1999/xlink">
	<desc>
			Created with Pixso.
	</desc>
	<defs>
		<clipPath id="clip143_25618">
			<rect id="Stack" width="24.000000" height="24.000000" fill="white" fill-opacity="0"/>
		</clipPath>
	</defs>
	<rect id="Stack" width="24.000000" height="24.000000" fill="#FFFFFF" fill-opacity="0"/>
	<g clip-path="url(#clip143_25618)">
		<path id="Vector" d="M5.56 4.65C5.95 4.55 6.35 4.5 6.75 4.5L17.25 4.5C17.66 4.5 18.05 4.55 18.43 4.65C18.18 4.15 17.8 3.74 17.32 3.44C16.85 3.15 16.3 3 15.75 3L8.25 3C7.69 3 7.14 3.15 6.67 3.44C6.19 3.74 5.81 4.15 5.56 4.65ZM2.25 12C2.25 11.2 2.56 10.43 3.12 9.87C3.69 9.31 4.45 9 5.25 9L18.75 9C19.54 9 20.3 9.31 20.87 9.87C21.43 10.43 21.75 11.2 21.75 12L21.75 18C21.75 18.79 21.43 19.56 20.87 20.12C20.3 20.68 19.54 21 18.75 21L5.25 21C4.45 21 3.69 20.68 3.12 20.12C2.56 19.56 2.25 18.79 2.25 18L2.25 12ZM5.25 7.5C4.83 7.5 4.44 7.55 4.06 7.65C4.31 7.15 4.69 6.74 5.17 6.44C5.64 6.15 6.19 6 6.75 6L17.25 6C17.8 6 18.35 6.15 18.82 6.44C19.3 6.74 19.68 7.15 19.93 7.65C19.54 7.55 19.14 7.5 18.75 7.5L5.25 7.5Z" fill="#FFFFFF" fill-opacity="1.000000" fill-rule="nonzero"/>
		<path id="Vector" d="M17.41 3.5C17.84 3.78 18.19 4.18 18.43 4.65C18.05 4.55 17.66 4.5 17.25 4.5L6.75 4.5C6.35 4.5 5.95 4.55 5.56 4.65C5.8 4.18 6.15 3.78 6.58 3.5C6.61 3.48 6.64 3.46 6.67 3.44C7.14 3.15 7.69 3 8.25 3L15.75 3C16.3 3 16.85 3.15 17.32 3.44C17.35 3.46 17.38 3.48 17.41 3.5ZM18.91 6.5C19.34 6.78 19.69 7.18 19.93 7.65C19.54 7.55 19.14 7.5 18.75 7.5L5.25 7.5C4.83 7.5 4.44 7.55 4.06 7.65C4.3 7.18 4.65 6.78 5.08 6.5C5.11 6.48 5.14 6.46 5.17 6.44C5.64 6.15 6.19 6 6.75 6L17.25 6C17.8 6 18.35 6.15 18.82 6.44C18.85 6.46 18.88 6.48 18.91 6.5ZM2.25 12C2.25 11.2 2.56 10.43 3.12 9.87C3.69 9.31 4.45 9 5.25 9L18.75 9C19.54 9 20.3 9.31 20.87 9.87C21.43 10.43 21.75 11.2 21.75 12L21.75 18C21.75 18.79 21.43 19.56 20.87 20.12C20.3 20.68 19.54 21 18.75 21L5.25 21C4.45 21 3.69 20.68 3.12 20.12C2.56 19.56 2.25 18.79 2.25 18L2.25 12ZM3.58 10.89Q3.69 10.72 3.83 10.58Q3.97 10.44 4.13 10.33Q4.3 10.22 4.48 10.14Q4.66 10.07 4.85 10.03Q5.05 10 5.25 10L18.75 10Q18.94 10 19.14 10.03Q19.33 10.07 19.51 10.14Q19.69 10.22 19.85 10.33Q20.02 10.44 20.16 10.58Q20.3 10.72 20.41 10.89Q20.52 11.05 20.59 11.23Q20.67 11.42 20.71 11.6Q20.75 11.8 20.75 12L20.75 18Q20.75 18.19 20.71 18.39Q20.67 18.57 20.59 18.76Q20.52 18.94 20.41 19.1Q20.3 19.27 20.16 19.41Q20.02 19.55 19.85 19.66Q19.69 19.77 19.51 19.85Q19.33 19.92 19.14 19.96Q18.94 20 18.75 20L5.25 20Q5.05 20 4.85 19.96Q4.66 19.92 4.48 19.85Q4.3 19.77 4.14 19.66Q3.97 19.55 3.83 19.41Q3.69 19.27 3.58 19.1Q3.47 18.94 3.4 18.76Q3.32 18.57 3.28 18.39Q3.25 18.19 3.25 18L3.25 12Q3.25 11.8 3.28 11.6Q3.32 11.42 3.4 11.23Q3.47 11.05 3.58 10.89Z" fill="#FFFFFF" fill-opacity="1.000000" fill-rule="evenodd"/>
	</g>
</svg>
