<svg width="24.000000" height="24.000000" viewBox="0 0 24 24" fill="none" xmlns="http://www.w3.org/2000/svg" xmlns:xlink="http://www.w3.org/1999/xlink">
	<desc>
			Created with Pixso.
	</desc>
	<defs>
		<clipPath id="clip20_26010">
			<rect id="telegram-1 1" width="24.000000" height="24.000000" fill="white" fill-opacity="0"/>
		</clipPath>
	</defs>
	<rect id="telegram-1 1" width="24.000000" height="24.000000" fill="#FFFFFF" fill-opacity="0"/>
	<g clip-path="url(#clip20_26010)">
		<path id="Vector" d="M12 24C18.62 24 24 18.62 24 12C24 5.37 18.62 0 12 0C5.37 0 0 5.37 0 12C0 18.62 5.37 24 12 24Z" fill="#34AADF" fill-opacity="1.000000" fill-rule="nonzero"/>
		<path id="Vector" d="M24 12C24 18.62 18.62 24 12 24C5.37 24 0 18.62 0 12C0 5.37 5.37 0 12 0C18.62 0 24 5.37 24 12ZM22.19 7.77Q23 9.71 23 12Q23 14.28 22.19 16.21Q21.39 18.16 19.77 19.78Q18.16 21.39 16.22 22.19Q14.27 23 12 23Q9.72 23 7.77 22.19Q5.83 21.39 4.22 19.78Q2.6 18.16 1.8 16.21Q1 14.28 1 12Q1 9.71 1.8 7.77Q2.6 5.83 4.22 4.21Q5.83 2.6 7.77 1.8Q9.72 1 12 1Q14.27 1 16.22 1.8Q18.16 2.6 19.77 4.21Q21.39 5.83 22.19 7.77Z" fill="#181A26" fill-opacity="1.000000" fill-rule="evenodd"/>
		<path id="Vector" d="M4.99 11.89C4.99 11.89 10.99 9.42 13.07 8.56C13.87 8.21 16.57 7.1 16.57 7.1C16.57 7.1 17.82 6.62 17.72 7.79C17.68 8.28 17.41 9.98 17.13 11.82C16.71 14.42 16.26 17.26 16.26 17.26C16.26 17.26 16.19 18.06 15.6 18.2C15.01 18.34 14.04 17.71 13.87 17.57C13.73 17.47 11.27 15.91 10.37 15.15C10.12 14.94 9.85 14.53 10.4 14.04C11.65 12.89 13.14 11.47 14.04 10.57C14.46 10.15 14.87 9.18 13.14 10.36C10.68 12.06 8.25 13.66 8.25 13.66C8.25 13.66 7.69 14 6.66 13.69C5.62 13.38 4.4 12.96 4.4 12.96C4.4 12.96 3.57 12.44 4.99 11.89Z" fill="#FFFFFF" fill-opacity="1.000000" fill-rule="nonzero"/>
		<path id="Vector" d="M10.4 14.04C9.85 14.53 10.12 14.94 10.37 15.15C11.27 15.91 13.73 17.47 13.87 17.57C14.04 17.71 15.01 18.34 15.6 18.2C16.19 18.06 16.26 17.26 16.26 17.26C16.26 17.26 16.71 14.42 17.13 11.82C17.41 9.98 17.68 8.28 17.72 7.79C17.82 6.62 16.57 7.1 16.57 7.1C16.57 7.1 13.87 8.21 13.07 8.56C10.99 9.42 4.99 11.89 4.99 11.89C3.57 12.44 4.4 12.96 4.4 12.96C4.4 12.96 5.62 13.38 6.66 13.69C7.69 14 8.25 13.66 8.25 13.66C8.25 13.66 10.03 12.49 12.08 11.09C12.43 10.85 12.78 10.6 13.14 10.36C13.25 10.28 13.35 10.22 13.44 10.17C14.82 9.3 14.43 10.18 14.04 10.57C14 10.61 13.95 10.66 13.9 10.71C13.56 11.05 13.15 11.45 12.71 11.87C11.97 12.58 11.14 13.35 10.4 14.04ZM7.76 12.78Q8.35 12.39 9.22 11.82Q10.39 11.03 11.44 10.32L9.76 11.01L6.16 12.49Q6.56 12.62 6.94 12.74Q7.37 12.86 7.67 12.81Q7.72 12.8 7.76 12.78ZM14.79 8.92Q14.87 8.96 14.94 9Q15.07 9.1 15.16 9.21Q15.26 9.33 15.32 9.49Q15.37 9.6 15.39 9.73Q15.47 10.17 15.2 10.67Q15.13 10.8 15.05 10.92Q14.91 11.11 14.75 11.28Q14.06 11.97 13.04 12.94Q12.12 13.82 11.28 14.6Q12.06 15.2 14.04 16.49Q14.41 16.74 14.47 16.78L14.48 16.78L14.5 16.79Q14.53 16.82 14.65 16.89Q14.83 17 15 17.08Q15.15 17.15 15.26 17.19Q15.26 17.17 15.27 17.17L15.27 17.14L16.04 12.28L16.14 11.67Q16.22 11.16 16.37 10.19Q16.58 8.77 16.67 8.14Q15.55 8.6 14.79 8.92Z" fill="#181A26" fill-opacity="1.000000" fill-rule="evenodd"/>
	</g>
</svg>
