<svg width="21.000000" height="19.500000" viewBox="0 0 21 19.5" fill="none" xmlns="http://www.w3.org/2000/svg" xmlns:xlink="http://www.w3.org/1999/xlink">
	<desc>
			Created with Pixso.
	</desc>
	<defs/>
	<path id="Vector" d="M3 4.12C3 3.03 3.43 1.98 4.2 1.21C4.98 0.43 6.03 0 7.12 0C8.21 0 9.26 0.43 10.04 1.21C10.81 1.98 11.25 3.03 11.25 4.12C11.25 5.21 10.81 6.26 10.04 7.03C9.26 7.81 8.21 8.25 7.12 8.25C6.03 8.25 4.98 7.81 4.2 7.03C3.43 6.26 3 5.21 3 4.12ZM12.75 6.37C12.75 5.92 12.83 5.49 13 5.08C13.17 4.67 13.42 4.3 13.73 3.99C14.05 3.67 14.42 3.42 14.83 3.25C15.24 3.08 15.68 3 16.12 3C16.56 3 17 3.08 17.41 3.25C17.82 3.42 18.19 3.67 18.51 3.99C18.82 4.3 19.07 4.67 19.24 5.08C19.41 5.49 19.5 5.92 19.5 6.37C19.5 7.27 19.14 8.12 18.51 8.75C17.87 9.39 17.01 9.75 16.12 9.75C15.23 9.75 14.37 9.39 13.73 8.75C13.1 8.12 12.75 7.27 12.75 6.37ZM0 16.87C0 14.98 0.75 13.17 2.08 11.83C3.42 10.5 5.23 9.75 7.12 9.75C9.01 9.75 10.82 10.5 12.16 11.83C13.5 13.17 14.25 14.98 14.25 16.87L14.25 16.87L14.25 17C14.24 17.12 14.21 17.25 14.14 17.35C14.08 17.46 13.99 17.56 13.88 17.62C11.84 18.85 9.5 19.5 7.12 19.5C4.65 19.5 2.33 18.81 0.36 17.62C0.25 17.56 0.16 17.46 0.1 17.35C0.03 17.25 0 17.12 0 17L0 16.87ZM15.75 16.87L15.75 17.02C15.74 17.35 15.66 17.67 15.51 17.98C17.26 18.08 19 17.74 20.57 16.96C20.69 16.91 20.8 16.82 20.87 16.71C20.94 16.59 20.99 16.46 20.99 16.32C21.03 15.49 20.84 14.65 20.46 13.9C20.08 13.16 19.51 12.52 18.82 12.06C18.11 11.59 17.31 11.32 16.47 11.25C15.63 11.2 14.79 11.35 14.03 11.71C15.15 13.2 15.75 15.01 15.75 16.87L15.75 16.87Z" fill="#B9BCCB" fill-opacity="1.000000" fill-rule="nonzero"/>
	<path id="Vector" d="M15.75 16.87L15.75 16.99L15.75 17.02C15.74 17.35 15.66 17.67 15.51 17.98C15.87 18 16.23 18 16.58 17.99C17.97 17.92 19.32 17.58 20.57 16.96C20.69 16.91 20.8 16.82 20.87 16.71C20.94 16.59 20.99 16.46 20.99 16.32C21.03 15.49 20.84 14.65 20.46 13.9C20.08 13.16 19.51 12.52 18.82 12.06C18.11 11.59 17.31 11.32 16.47 11.25C15.98 11.22 15.49 11.26 15.02 11.37C14.68 11.45 14.35 11.57 14.03 11.71C14.24 11.99 14.42 12.27 14.59 12.56C15.35 13.86 15.75 15.35 15.75 16.87L15.75 16.87ZM16.74 16.71L16.75 16.71L16.75 16.98L16.75 16.98Q17.33 16.93 17.91 16.82Q18.49 16.71 19.05 16.52Q19.53 16.35 20 16.14Q20 15.7 19.91 15.28Q19.8 14.81 19.57 14.35Q19.34 13.9 19.01 13.53Q18.69 13.17 18.26 12.89Q17.84 12.6 17.37 12.45Q16.91 12.29 16.4 12.25Q15.98 12.22 15.58 12.28Q15.62 12.35 15.66 12.42Q16.01 13.1 16.26 13.84Q16.5 14.57 16.62 15.34Q16.73 16.01 16.74 16.71ZM3 4.12C3 3.03 3.43 1.98 4.2 1.21C4.98 0.43 6.03 0 7.12 0C8.21 0 9.26 0.43 10.04 1.21C10.81 1.98 11.25 3.03 11.25 4.12C11.25 5.21 10.81 6.26 10.04 7.03C9.26 7.81 8.21 8.25 7.12 8.25C6.03 8.25 4.98 7.81 4.2 7.03C3.43 6.26 3 5.21 3 4.12ZM4.52 2.39Q4.69 2.13 4.91 1.91Q5.13 1.69 5.38 1.52Q5.64 1.35 5.92 1.23Q6.21 1.11 6.51 1.06Q6.81 1 7.12 1Q7.43 1 7.73 1.06Q8.03 1.11 8.32 1.23Q8.6 1.35 8.86 1.52Q9.11 1.69 9.33 1.91Q9.55 2.13 9.72 2.39Q9.89 2.64 10.01 2.92Q10.13 3.21 10.19 3.51Q10.25 3.81 10.25 4.12Q10.25 4.43 10.19 4.73Q10.13 5.03 10.01 5.32Q9.89 5.6 9.72 5.85Q9.55 6.11 9.33 6.33Q9.11 6.55 8.86 6.72Q8.6 6.89 8.32 7.01Q8.03 7.13 7.73 7.18Q7.43 7.25 7.12 7.25Q6.81 7.25 6.51 7.18Q6.21 7.13 5.92 7.01Q5.64 6.89 5.38 6.72Q5.13 6.55 4.91 6.33Q4.69 6.11 4.52 5.85Q4.35 5.6 4.23 5.32Q4.11 5.03 4.05 4.73Q4 4.43 4 4.12Q4 3.81 4.05 3.51Q4.11 3.21 4.23 2.92Q4.35 2.64 4.52 2.39ZM12.75 6.37C12.75 5.92 12.83 5.49 13 5.08C13.17 4.67 13.42 4.3 13.73 3.99C14.05 3.67 14.42 3.42 14.83 3.25C15.24 3.08 15.68 3 16.12 3C16.56 3 17 3.08 17.41 3.25C17.82 3.42 18.19 3.67 18.51 3.99C18.82 4.3 19.07 4.67 19.24 5.08C19.41 5.49 19.5 5.92 19.5 6.37C19.5 7.27 19.14 8.12 18.51 8.75C17.87 9.39 17.01 9.75 16.12 9.75C15.23 9.75 14.37 9.39 13.73 8.75C13.1 8.12 12.75 7.27 12.75 6.37ZM13.79 5.91Q13.83 5.68 13.92 5.46Q14.01 5.25 14.14 5.05Q14.27 4.85 14.44 4.69Q14.61 4.53 14.8 4.39Q14.99 4.27 15.21 4.17Q15.43 4.09 15.66 4.04Q15.89 4 16.12 4Q16.35 4 16.58 4.04Q16.81 4.09 17.03 4.17Q17.25 4.27 17.44 4.39Q17.63 4.53 17.8 4.69Q17.97 4.85 18.1 5.05Q18.23 5.25 18.32 5.46Q18.41 5.68 18.45 5.91Q18.5 6.14 18.5 6.37Q18.5 6.6 18.45 6.83Q18.41 7.06 18.32 7.28Q18.23 7.5 18.1 7.69Q17.97 7.89 17.8 8.05Q17.63 8.21 17.44 8.35Q17.25 8.47 17.03 8.57Q16.81 8.65 16.58 8.7Q16.35 8.75 16.12 8.75Q15.89 8.75 15.66 8.7Q15.43 8.65 15.21 8.57Q14.99 8.47 14.8 8.35Q14.61 8.21 14.44 8.05Q14.27 7.89 14.14 7.69Q14.01 7.5 13.92 7.28Q13.83 7.06 13.79 6.83Q13.75 6.6 13.75 6.37Q13.75 6.14 13.79 5.91ZM0 16.87C0 14.98 0.75 13.17 2.08 11.83C3.42 10.5 5.23 9.75 7.12 9.75C9.01 9.75 10.82 10.5 12.16 11.83C13.5 13.17 14.25 14.98 14.25 16.87L14.25 16.87L14.25 17C14.24 17.12 14.21 17.25 14.14 17.35C14.08 17.46 13.99 17.56 13.88 17.62C11.84 18.85 9.5 19.5 7.12 19.5C4.65 19.5 2.33 18.81 0.36 17.62C0.25 17.56 0.16 17.46 0.1 17.35C0.03 17.25 0 17.12 0 17L0 16.87ZM2.03 13.46Q2.36 12.97 2.79 12.54Q3.22 12.1 3.72 11.78Q4.21 11.45 4.78 11.21Q5.34 10.98 5.92 10.86Q6.51 10.75 7.12 10.75Q7.73 10.75 8.32 10.86Q8.9 10.98 9.46 11.21Q10.03 11.45 10.52 11.78Q11.02 12.1 11.45 12.54Q11.88 12.97 12.21 13.46Q12.55 13.96 12.78 14.53Q13.01 15.09 13.13 15.67Q13.24 16.25 13.25 16.84Q12.6 17.22 11.91 17.51Q11.16 17.84 10.36 18.06Q9.57 18.28 8.76 18.39Q7.95 18.5 7.12 18.5Q6.03 18.5 4.98 18.31Q4.39 18.21 3.82 18.04Q3.1 17.84 2.41 17.54Q1.68 17.24 1 16.84Q1 16.3 1.09 15.78Q1.21 15.14 1.46 14.53Q1.69 13.96 2.03 13.46Z" fill="#B9BCCB" fill-opacity="1.000000" fill-rule="evenodd"/>
</svg>
