<svg width="18.000000" height="18.000000" viewBox="0 0 18 18" fill="none" xmlns="http://www.w3.org/2000/svg" xmlns:xlink="http://www.w3.org/1999/xlink">
	<desc>
			Created with Pixso.
	</desc>
	<defs/>
	<path id="Vector" d="M0 9C0 4.03 4.03 0 9 0C13.96 0 18 4.03 18 9C18 13.96 13.96 18 9 18C7.44 18 5.98 17.6 4.7 16.91L1.16 17.57C0.95 17.6 0.75 17.54 0.6 17.39C0.45 17.25 0.39 17.03 0.42 16.83L1.08 13.29C0.39 12.01 0 10.55 0 9ZM7.61 5.32C7.32 5.56 7.11 5.93 7.11 6.49C7.11 6.83 6.83 7.11 6.48 7.11C6.14 7.11 5.85 6.83 5.85 6.49C5.85 5.57 6.22 4.85 6.8 4.35C7.36 3.88 8.08 3.66 8.78 3.66C9.49 3.66 10.21 3.88 10.78 4.35C11.35 4.85 11.72 5.57 11.72 6.49C11.72 7.13 11.55 7.61 11.28 8.02C11.06 8.35 10.76 8.61 10.53 8.82C10.51 8.85 10.48 8.86 10.46 8.89C10.21 9.12 10.01 9.31 9.87 9.56C9.73 9.8 9.62 10.14 9.62 10.67C9.62 11.02 9.34 11.3 9 11.3C8.65 11.3 8.37 11.02 8.37 10.67C8.37 9.95 8.52 9.39 8.78 8.94C9.03 8.5 9.35 8.19 9.62 7.96L9.68 7.9C9.93 7.67 10.11 7.52 10.24 7.32C10.36 7.14 10.46 6.89 10.46 6.49C10.46 5.93 10.25 5.56 9.96 5.32C9.66 5.06 9.23 4.92 8.78 4.92C8.33 4.92 7.91 5.06 7.61 5.32ZM9.47 14.44C9.7 14.18 9.68 13.78 9.42 13.55C9.17 13.32 8.77 13.34 8.54 13.6L8.53 13.6C8.3 13.86 8.32 14.26 8.57 14.5C8.83 14.72 9.23 14.71 9.46 14.45L9.47 14.44Z" fill="#8E35FF" fill-opacity="1.000000" fill-rule="evenodd"/>
	<path id="Vector" d="M4.7 16.91C5.98 17.6 7.44 18 9 18C13.96 18 18 13.96 18 9C18 4.03 13.96 0 9 0C4.03 0 0 4.03 0 9C0 10.55 0.39 12.01 1.08 13.29L0.42 16.83C0.39 17.03 0.45 17.25 0.6 17.39C0.75 17.54 0.95 17.6 1.16 17.57L4.7 16.91ZM7.21 1.19C7.79 1.06 8.39 1 9 1C9.6 1 10.2 1.06 10.78 1.19C11.23 1.29 11.67 1.44 12.11 1.62C12.55 1.82 12.98 2.03 13.37 2.3C13.83 2.6 14.26 2.94 14.65 3.34C15.05 3.73 15.39 4.16 15.69 4.62C15.95 5.01 16.18 5.43 16.37 5.88C16.55 6.32 16.69 6.76 16.8 7.21C16.93 7.79 17 8.39 17 9C17 9.6 16.93 10.2 16.8 10.78C16.69 11.23 16.55 11.67 16.37 12.11C16.18 12.56 15.95 12.98 15.69 13.37C15.39 13.83 15.05 14.26 14.65 14.65C14.26 15.05 13.83 15.39 13.37 15.69C12.98 15.96 12.55 16.17 12.11 16.37C11.67 16.55 11.23 16.7 10.78 16.8C10.2 16.93 9.6 17 9 17C8.55 17 8.11 16.96 7.67 16.89C7.44 16.85 7.22 16.8 7 16.75C6.7 16.67 6.41 16.57 6.12 16.46C5.8 16.34 5.49 16.2 5.18 16.03L4.87 15.85L1.51 16.49L2.13 13.12L1.96 12.82C1.8 12.5 1.65 12.19 1.53 11.87C1.42 11.58 1.32 11.29 1.25 11C1.19 10.78 1.14 10.55 1.1 10.32C1.03 9.89 1 9.44 1 9C1 8.39 1.06 7.79 1.19 7.21C1.3 6.76 1.44 6.32 1.62 5.88C1.81 5.43 2.04 5.01 2.3 4.62C2.6 4.16 2.94 3.73 3.34 3.34C3.73 2.94 4.16 2.6 4.62 2.3C5.01 2.03 5.44 1.82 5.88 1.62C6.32 1.44 6.76 1.29 7.21 1.19ZM8.08 6.82C8.1 6.71 8.11 6.6 8.11 6.49C8.11 6.37 8.13 6.28 8.16 6.2C8.17 6.19 8.17 6.18 8.18 6.17C8.2 6.14 8.23 6.1 8.26 6.07C8.31 6.03 8.38 6 8.46 5.96C8.57 5.93 8.67 5.92 8.78 5.92C8.9 5.92 9.01 5.93 9.11 5.96C9.19 6 9.26 6.03 9.32 6.07C9.35 6.1 9.37 6.14 9.39 6.17C9.4 6.18 9.41 6.19 9.41 6.2C9.44 6.28 9.46 6.37 9.46 6.49C9.46 6.62 9.44 6.71 9.41 6.76C9.38 6.8 9.35 6.85 9.3 6.89C9.25 6.94 9.16 7.03 9.01 7.15L9.01 7.15L8.95 7.21C8.75 7.39 8.58 7.56 8.45 7.7C8.24 7.94 8.05 8.19 7.91 8.45C7.55 9.08 7.37 9.82 7.37 10.67C7.37 10.78 7.38 10.89 7.4 11C7.42 11.1 7.46 11.21 7.5 11.3C7.53 11.4 7.58 11.49 7.64 11.57C7.7 11.66 7.77 11.75 7.84 11.82C7.92 11.89 8 11.96 8.09 12.03C8.17 12.08 8.26 12.13 8.36 12.17C8.46 12.21 8.56 12.25 8.66 12.26C8.77 12.28 8.88 12.3 9 12.3C9.11 12.3 9.22 12.28 9.33 12.26C9.43 12.25 9.53 12.21 9.63 12.17C9.73 12.13 9.82 12.08 9.9 12.03C9.99 11.96 10.07 11.89 10.15 11.82C10.22 11.75 10.29 11.66 10.35 11.57C10.41 11.49 10.46 11.4 10.5 11.3C10.53 11.21 10.57 11.1 10.59 11C10.61 10.89 10.62 10.78 10.62 10.67C10.62 10.39 10.66 10.19 10.74 10.05C10.77 10 10.81 9.95 10.86 9.89C10.92 9.82 11.01 9.74 11.13 9.64L11.2 9.57L11.2 9.57C11.38 9.4 11.52 9.27 11.63 9.17C11.82 8.97 11.98 8.77 12.12 8.57C12.21 8.43 12.29 8.28 12.36 8.14C12.6 7.64 12.72 7.09 12.72 6.49C12.72 5.99 12.64 5.52 12.47 5.08C12.44 5 12.41 4.92 12.37 4.85C12.26 4.61 12.14 4.4 12 4.21C11.83 3.98 11.64 3.78 11.42 3.6C11.33 3.51 11.23 3.44 11.13 3.37C10.83 3.17 10.51 3 10.16 2.88C10.01 2.83 9.86 2.79 9.71 2.76C9.41 2.69 9.1 2.66 8.78 2.66C8.47 2.66 8.16 2.69 7.86 2.76C7.71 2.79 7.57 2.83 7.42 2.88C7.06 3 6.74 3.17 6.44 3.37C6.34 3.44 6.25 3.51 6.15 3.6C5.93 3.78 5.74 3.98 5.58 4.21C5.43 4.4 5.31 4.61 5.2 4.85C5.17 4.92 5.13 5 5.1 5.08C4.94 5.52 4.85 5.99 4.85 6.49C4.85 6.6 4.87 6.71 4.89 6.82C4.91 6.92 4.94 7.02 4.98 7.12C5.02 7.21 5.07 7.3 5.13 7.39C5.19 7.47 5.26 7.56 5.33 7.64C5.41 7.71 5.49 7.78 5.58 7.84C5.66 7.89 5.75 7.94 5.85 7.98C5.95 8.03 6.05 8.06 6.15 8.07C6.26 8.1 6.37 8.11 6.48 8.11C6.6 8.11 6.71 8.1 6.82 8.07C6.92 8.06 7.02 8.03 7.12 7.98C7.21 7.94 7.3 7.89 7.39 7.84C7.48 7.78 7.56 7.71 7.64 7.64C7.71 7.56 7.78 7.47 7.84 7.39C7.89 7.3 7.94 7.21 7.98 7.12C8.02 7.02 8.05 6.92 8.08 6.82ZM7.61 5.32C7.32 5.56 7.11 5.93 7.11 6.49C7.11 6.83 6.83 7.11 6.48 7.11C6.14 7.11 5.85 6.83 5.85 6.49C5.85 5.57 6.22 4.85 6.8 4.35C7.36 3.88 8.08 3.66 8.78 3.66C9.49 3.66 10.21 3.88 10.78 4.35C11.35 4.85 11.72 5.57 11.72 6.49C11.72 7.13 11.55 7.61 11.28 8.02C11.06 8.35 10.76 8.61 10.53 8.82C10.51 8.85 10.48 8.86 10.46 8.89C10.21 9.12 10.01 9.31 9.87 9.56C9.73 9.8 9.62 10.14 9.62 10.67C9.62 11.02 9.34 11.3 9 11.3C8.65 11.3 8.37 11.02 8.37 10.67C8.37 9.95 8.52 9.39 8.78 8.94C9.03 8.5 9.35 8.19 9.62 7.96L9.68 7.9C9.93 7.67 10.11 7.52 10.24 7.32C10.36 7.14 10.46 6.89 10.46 6.49C10.46 5.93 10.25 5.56 9.96 5.32C9.66 5.06 9.23 4.92 8.78 4.92C8.33 4.92 7.91 5.06 7.61 5.32ZM10.32 13.06C10.25 12.97 10.18 12.89 10.09 12.81L10.09 12.81C10.01 12.73 9.92 12.67 9.82 12.6C9.73 12.56 9.64 12.51 9.53 12.48C9.44 12.45 9.34 12.42 9.24 12.41C9.14 12.39 9.03 12.39 8.92 12.39C8.81 12.4 8.71 12.42 8.6 12.44C8.5 12.46 8.41 12.5 8.32 12.54C8.22 12.59 8.13 12.64 8.05 12.7C7.96 12.77 7.87 12.84 7.8 12.92L7.78 12.94C7.71 13.02 7.64 13.11 7.58 13.21C7.53 13.3 7.49 13.39 7.46 13.5C7.42 13.59 7.4 13.69 7.39 13.79C7.37 13.89 7.36 14 7.37 14.11C7.37 14.22 7.39 14.32 7.42 14.42C7.44 14.53 7.48 14.62 7.52 14.71C7.57 14.82 7.62 14.9 7.68 14.99C7.75 15.07 7.82 15.16 7.91 15.24C7.99 15.32 8.08 15.38 8.18 15.44C8.27 15.49 8.37 15.53 8.46 15.57C8.56 15.6 8.66 15.62 8.76 15.64C8.87 15.65 8.97 15.66 9.08 15.65C9.19 15.64 9.3 15.63 9.4 15.6C9.5 15.58 9.59 15.54 9.69 15.5C9.78 15.46 9.87 15.4 9.95 15.35C10.05 15.28 10.13 15.2 10.21 15.12L10.21 15.1C10.29 15.03 10.35 14.93 10.41 14.84C10.46 14.75 10.51 14.65 10.54 14.55C10.58 14.46 10.6 14.35 10.62 14.25C10.63 14.15 10.64 14.04 10.63 13.93C10.62 13.82 10.61 13.72 10.58 13.61C10.56 13.52 10.52 13.42 10.48 13.33C10.43 13.23 10.38 13.14 10.32 13.06ZM9.47 14.44C9.7 14.18 9.68 13.78 9.42 13.55C9.17 13.32 8.77 13.34 8.54 13.6L8.53 13.6C8.3 13.86 8.32 14.26 8.57 14.5C8.83 14.72 9.23 14.71 9.46 14.45L9.47 14.44Z" fill="#8E35FF" fill-opacity="1.000000" fill-rule="evenodd"/>
</svg>
