<svg width="463.167969" height="764.000000" viewBox="0 0 463.168 764" fill="none" xmlns="http://www.w3.org/2000/svg" xmlns:xlink="http://www.w3.org/1999/xlink">
	<desc>
			Created with Pixso.
	</desc>
	<defs>
		<radialGradient gradientTransform="translate(300.582 255) rotate(133.264) scale(151.744 264.909)" cx="0.000000" cy="0.000000" r="1.000000" id="paint_Diamond_846_31807_0" gradientUnits="userSpaceOnUse">
			<stop offset="0.541000" stop-color="#FFFFFF" stop-opacity="0.000000"/>
			<stop offset="0.657515" stop-color="#FFFFFF"/>
			<stop offset="0.814558" stop-color="#FFFFFF" stop-opacity="0.000000"/>
		</radialGradient>
	</defs>
	<g opacity="0.210000" style="mix-blend-mode:plus-lighter">
		<path id="Vector" d="M23.3 749.96L8.15 749.96L0.58 736.43L8.15 722.91M8.15 615.03L0.58 628.73L8.15 642.44L0.58 655.97L8.15 669.5L0.58 683.39L8.15 697.27L0.58 710.09L8.15 722.91L23.3 722.91L30.87 710.09M23.3 722.91L30.87 736.43L23.3 749.96L30.87 763.5L46.02 763.5L53.59 749.96L46.02 736.43L53.59 722.91M8.15 697.27L23.3 697.27M23.3 615.03L30.87 628.73L23.3 642.44L30.87 655.97L23.3 669.5L30.87 683.39L23.3 697.27L30.87 710.09L46.02 710.09L53.59 697.27L46.02 683.39L53.59 669.5L46.02 655.97L53.59 642.44L46.02 628.73L53.59 615.03M8.15 669.5L23.3 669.5M8.15 642.44L23.3 642.44M30.87 602.21L23.3 589.39L8.15 589.39L0.58 602.21L8.15 615.03L23.3 615.03L30.87 602.21L46.02 602.21L53.59 615.03L68.74 615.03L76.32 602.21L68.74 589.39L53.59 589.39L46.02 602.21M8.15 589.39L0.58 575.86L8.15 562.33L0.58 548.98L8.15 535.63L0.58 522.28L8.15 508.93L0.58 495.39L8.15 481.86M8.15 562.33L23.3 562.33M30.87 494.32L23.3 508.03L30.87 521.75L23.3 535.27L30.87 548.8L23.3 562.33L30.87 575.86L23.3 589.39M30.87 736.43L46.02 736.43M46.02 710.09L53.59 723.08L46.02 736.08L30.87 736.08L23.3 723.08L30.87 710.09M23.3 696.38L30.87 683.03L23.3 669.68L30.87 656.32L23.3 642.8L30.87 629.27L46.02 629.27L53.59 642.8L46.02 656.32L53.59 669.68L46.02 683.03L53.59 696.38L46.02 709.73L30.87 709.73L23.3 696.38ZM30.87 683.03L46.02 683.03M30.87 656.32L46.02 656.32M46.02 602.21L53.59 615.56L46.02 628.91L30.87 628.91L23.3 615.56L30.87 602.21M46.02 575.86L53.59 589.21L46.02 602.57L30.87 602.57L23.3 589.21L30.87 575.86M30.87 575.86L46.02 575.86M46.02 710.09L53.59 722.91L68.74 722.91L76.32 710.09M68.74 722.91L76.32 736.43L68.74 749.96L76.32 763.5L91.46 763.5L99.04 749.96L91.46 736.43L76.32 736.43M68.74 749.96L53.59 749.96M53.59 697.27L68.74 697.27M68.74 615.03L76.32 628.73L68.74 642.44L76.32 655.97L68.74 669.5L76.32 683.39L68.74 697.27L76.32 710.09L91.46 710.09L99.04 697.27L91.46 683.39L99.04 669.5L91.46 655.97L99.04 642.44L91.46 628.73L99.04 615.03M53.59 669.5L68.74 669.5M53.59 642.44L68.74 642.44M53.59 589.39L46.02 575.86L53.59 562.33L46.02 548.8L53.59 535.27L46.02 521.75L53.59 508.03L46.02 494.32M53.59 562.33L68.74 562.33M99.04 589.39L91.46 575.86L99.04 562.33L91.46 548.8L76.32 548.8L68.74 562.33L76.32 575.86L68.74 589.39M91.46 736.08L76.32 736.08L68.74 723.08L76.32 710.09M91.46 710.09L99.04 723.08L91.46 736.08M76.32 710.09L68.74 696.74L76.32 683.39M76.32 683.39L91.46 683.39M91.46 683.39L99.04 696.74L91.46 710.09M91.46 575.86L99.04 589.21L91.46 602.57L99.04 615.92L91.46 629.27L99.04 642.8L91.46 656.32L99.04 669.68L91.46 683.03L76.32 683.03L68.74 669.68L76.32 656.32L68.74 642.8L76.32 629.27L68.74 615.92L76.32 602.57L68.74 589.21L76.32 575.86M76.32 656.32L91.46 656.32M76.32 629.27L91.46 629.27M76.32 602.57L91.46 602.57M76.32 575.86L91.46 575.86M91.46 736.08L99.04 722.55L114.18 722.55L121.76 736.08L114.18 749.61L99.04 749.61L91.46 736.08ZM121.76 710.09L114.18 722.91L99.04 722.91L91.46 710.09M99.04 697.27L114.18 697.27M114.18 615.03L121.76 628.73L114.18 642.44L121.76 655.97L114.18 669.5L121.76 683.39L114.18 697.27L121.76 710.09L136.91 710.09L144.48 697.27L136.91 683.39L144.48 669.5L136.91 655.97L144.48 642.44L136.91 628.73L144.48 615.03M99.04 669.5L114.18 669.5M99.04 642.44L114.18 642.44M114.18 615.03L121.76 602.21L114.18 589.39L99.04 589.39L91.46 602.21L99.04 615.03L114.18 615.03ZM99.04 562.33L114.18 562.33M121.76 494.32L114.18 508.03L121.76 521.75L114.18 535.27L121.76 548.8L114.18 562.33L121.76 575.86L114.18 589.39M144.48 722.91L136.91 736.43L144.48 749.96L136.91 763.5L121.76 763.5L114.18 749.96L121.76 736.43L136.91 736.43M121.76 736.08L114.18 723.08L121.76 710.09M136.91 710.09L144.48 723.08L136.91 736.08L121.76 736.08M136.91 575.86L144.48 589.21L136.91 602.57L144.48 615.92L136.91 629.27L144.48 642.8L136.91 656.32L144.48 669.68L136.91 683.03L144.48 696.38L136.91 709.73L121.76 709.73L114.18 696.38L121.76 683.03L114.18 669.68L121.76 656.32L114.18 642.8L121.76 629.27L114.18 615.92L121.76 602.57L114.18 589.21L121.76 575.86M121.76 683.03L136.91 683.03M121.76 656.32L136.91 656.32M121.76 629.27L136.91 629.27M121.76 602.57L136.91 602.57M121.76 575.86L136.91 575.86M136.91 710.09L144.48 722.91L159.63 722.91L167.2 710.09M159.63 722.91L167.2 736.43L159.63 749.96L167.2 763.5L182.35 763.5L189.92 749.96L182.35 736.43L189.92 722.91M159.63 749.96L144.48 749.96M144.48 697.27L159.63 697.27M159.63 615.03L167.2 628.73L159.63 642.44L167.2 655.97L159.63 669.5L167.2 683.39L159.63 697.27L167.2 710.09L182.35 710.09L189.92 697.27L182.35 683.39L189.92 669.5L182.35 655.97L189.92 642.44L182.35 628.73L189.92 615.03M144.48 669.5L159.63 669.5M144.48 642.44L159.63 642.44M159.63 615.03L167.2 602.21L159.63 589.39L144.48 589.39L136.91 602.21L144.48 615.03L159.63 615.03ZM144.48 589.39L136.91 575.86L144.48 562.33L136.91 548.8L144.48 535.27L136.91 521.75L144.48 508.03L136.91 494.32M144.48 562.33L159.63 562.33M189.92 589.39L182.35 575.86L189.92 562.33L182.35 548.8L189.92 535.27L182.35 521.75L167.2 521.75L159.63 535.27L167.2 548.8L159.63 562.33L167.2 575.86L159.63 589.39M167.2 736.43L182.35 736.43M182.35 710.09L189.92 723.08L182.35 736.08L167.2 736.08L159.63 723.08L167.2 710.09M182.35 575.86L189.92 589.21L182.35 602.57L189.92 615.92L182.35 629.27L189.92 642.8L182.35 656.32L189.92 669.68L182.35 683.03L189.92 696.38L182.35 709.73L167.2 709.73L159.63 696.38L167.2 683.03L159.63 669.68L167.2 656.32L159.63 642.8L167.2 629.27L159.63 615.92L167.2 602.57L159.63 589.21L167.2 575.86M167.2 683.03L182.35 683.03M167.2 656.32L182.35 656.32M167.2 629.27L182.35 629.27M167.2 602.57L182.35 602.57M167.2 575.86L182.35 575.86M182.35 710.09L189.92 722.91L205.07 722.91L212.64 710.09M205.07 722.91L212.64 736.43L205.07 749.96L212.64 763.5L227.79 763.5L235.36 749.96L227.79 736.43L212.64 736.43M205.07 749.96L189.92 749.96M189.92 697.27L205.07 697.27M205.07 615.03L212.64 628.73L205.07 642.44L212.64 655.97L205.07 669.5L212.64 683.39L205.07 697.27L212.64 710.09L227.79 710.09L235.36 723.08L227.79 736.08L212.64 736.08L205.07 723.08L212.64 710.09M189.92 669.5L205.07 669.5M189.92 642.44L205.07 642.44M212.64 602.21L205.07 589.39L189.92 589.39L182.35 602.21L189.92 615.03L205.07 615.03L212.64 602.21L227.79 602.21L235.36 615.56L227.79 628.91L212.64 628.91L205.07 615.56L212.64 602.21M189.92 562.33L205.07 562.33M212.64 575.86L205.07 589.21L212.64 602.57L227.79 602.57L235.36 589.21L227.79 575.86L235.36 562.33L227.79 548.8L235.36 535.27L227.79 521.75L212.64 521.75L205.07 535.27L212.64 548.8L205.07 562.33L212.64 575.86L205.07 589.39M205.07 696.38L212.64 683.03L205.07 669.68L212.64 656.32L205.07 642.8L212.64 629.27L227.79 629.27L235.36 642.8L227.79 656.32L235.36 669.68L227.79 683.03L235.36 696.38L227.79 709.73L212.64 709.73L205.07 696.38ZM212.64 683.03L227.79 683.03M212.64 656.32L227.79 656.32M212.64 575.86L227.79 575.86M8.15 535.63L23.3 535.63M23.3 481.86L30.87 495.39L23.3 508.93L30.87 522.28L23.3 535.63L30.87 548.98L23.3 562.33M8.15 508.93L23.3 508.93M23.3 481.86L30.87 469.23L23.3 456.59L8.15 456.59L0.58 469.23L8.15 481.86L23.3 481.86L30.87 469.4L46.02 469.4L53.59 481.86L68.74 481.86L76.32 469.23L68.74 456.59L53.59 456.59L46.02 469.23L53.59 481.86M8.15 456.59L0.58 442.53L8.15 428.46L0.58 415.28L8.15 402.11L0.58 388.94L8.15 375.76L0.58 362.24L8.15 348.71L0.58 335.53L8.15 322.35L0.58 308.65L8.15 294.94L0.58 281.77L8.15 268.6L0.58 255.07L8.15 241.53L0.58 228L8.15 214.48L0.58 201.13L8.15 187.78L0.58 174.43L8.15 161.07L0.58 147.72L8.15 134.37L0.58 121.19L8.15 108.02L0.58 94.49L8.15 80.96L0.58 67.25L8.15 53.54L0.58 40.37L8.15 27.2L0.58 13.85L8.15 0.5L23.3 0.5L30.87 13.85L23.3 27.2L30.87 40.37L23.3 53.54L30.87 67.25L23.3 80.96L30.87 94.49L23.3 108.02L30.87 121.19M8.15 428.46L23.3 428.46M23.3 161.07L30.87 174.43L23.3 187.78L30.87 201.13L23.3 214.48L30.87 228L23.3 241.53L30.87 255.07L23.3 268.6L30.87 281.77L23.3 294.94L30.87 308.65L23.3 322.35L30.87 335.53L23.3 348.71L30.87 362.24L23.3 375.76L30.87 388.94L23.3 402.11L30.87 415.28L23.3 428.46L30.87 442.53L23.3 456.59M8.15 402.11L23.3 402.11M8.15 375.76L23.3 375.76M30.87 548.8L46.02 548.8M30.87 521.75L46.02 521.75M23.3 481.86L30.87 494.32L46.02 494.32L53.59 481.86M30.87 469.4L23.3 456.23L30.87 443.06L23.3 429.35L30.87 415.64L23.3 402.46L30.87 389.29L23.3 375.41L30.87 361.53L23.3 348.35L30.87 335.18L23.3 321.47L30.87 307.76L23.3 294.59L30.87 281.41M30.87 443.06L46.02 443.06M46.02 281.41L53.59 294.59L46.02 307.76L53.59 321.47L46.02 335.18L53.59 348.35L46.02 361.53L53.59 375.41L46.02 389.29L53.59 402.46L46.02 415.64L53.59 429.35L46.02 443.06L53.59 456.23L46.02 469.4M30.87 415.64L46.02 415.64M30.87 389.29L46.02 389.29M53.59 562.33L46.02 548.98L53.59 535.63L46.02 522.28L53.59 508.93L46.02 495.39L53.59 481.86M53.59 535.63L68.74 535.63M68.74 535.63L76.32 548.98L68.74 562.33M53.59 508.93L68.74 508.93M68.74 481.86L76.32 495.39L68.74 508.93L76.32 522.28L68.74 535.63M53.59 456.59L46.02 442.53L53.59 428.46L46.02 415.28L53.59 402.11L46.02 388.94L53.59 375.76L46.02 362.24L53.59 348.71L46.02 335.53L53.59 322.35L46.02 308.65L53.59 294.94L46.02 281.77L53.59 268.6L46.02 255.07L53.59 241.53L46.02 228L53.59 214.48L46.02 201.13L53.59 187.78L46.02 174.43L53.59 161.07M53.59 428.46L68.74 428.46M99.04 456.59L91.46 442.53L99.04 428.46L91.46 415.28L99.04 402.11L91.46 388.94L99.04 375.76L91.46 362.24L99.04 348.71L91.46 335.53L99.04 321.82L91.46 308.12L76.32 308.12L68.74 321.82L76.32 335.53L68.74 348.71L76.32 362.24L68.74 375.76L76.32 388.94L68.74 402.11L76.32 415.28L68.74 428.46L76.32 442.53L68.74 456.59M53.59 402.11L68.74 402.11M53.59 375.76L68.74 375.76M68.74 535.63L76.32 522.1L91.46 522.1L99.04 535.63L91.46 549.16L76.32 549.16L68.74 535.63ZM91.46 495.04L99.04 508.57L114.18 508.57L121.76 495.04L114.18 481.51L99.04 481.51L91.46 495.04L99.04 508.75L91.46 522.46L76.32 522.46L68.74 508.75L76.32 495.04L91.46 495.04M68.74 482.22L76.32 469.76L91.46 469.76L99.04 482.22L91.46 494.68L76.32 494.68L68.74 482.22ZM68.74 456.23L76.32 443.06L68.74 429.35L76.32 415.64L68.74 402.46L76.32 389.29L68.74 375.41L76.32 361.53L68.74 348.35L76.32 335.18L91.46 335.18L99.04 348.35L91.46 361.53L99.04 375.41L91.46 389.29L99.04 402.46L91.46 415.64L99.04 429.35L91.46 443.06L99.04 456.23L91.46 469.4L76.32 469.4L68.74 456.23ZM76.32 443.06L91.46 443.06M76.32 415.64L91.46 415.64M76.32 389.29L91.46 389.29M99.04 562.33L91.46 548.98L99.04 535.63M99.04 535.63L114.18 535.63M99.04 535.63L91.46 522.28L99.04 508.93L114.18 508.93L121.76 522.28L114.18 535.63L121.76 548.98L114.18 562.33M189.92 481.86L182.35 494.32L167.2 494.32L159.63 481.86L144.48 481.86L136.91 469.4L121.76 469.4L114.18 481.86L99.04 481.86L91.46 469.23L99.04 456.59L114.18 456.59L121.76 469.23L114.18 481.86M99.04 428.46L114.18 428.46M144.48 456.59L136.91 442.53L144.48 428.46L136.91 415.28L144.48 402.11L136.91 388.94L144.48 375.76L136.91 362.24L144.48 348.71L136.91 335.53L144.48 321.82L136.91 308.12L121.76 308.12L114.18 321.82L121.76 335.53L114.18 348.71L121.76 362.24L114.18 375.76L121.76 388.94L114.18 402.11L121.76 415.28L114.18 428.46L121.76 442.53L114.18 456.59M99.04 402.11L114.18 402.11M99.04 375.76L114.18 375.76M121.76 548.8L136.91 548.8M121.76 521.75L136.91 521.75M114.18 481.86L121.76 494.32L136.91 494.32L144.48 481.86M121.76 469.4L114.18 456.23L121.76 443.06L114.18 429.35L121.76 415.64L114.18 402.46L121.76 389.29L114.18 375.41L121.76 361.53L114.18 348.35L121.76 335.18L136.91 335.18L144.48 348.35L136.91 361.53L144.48 375.41L136.91 389.29L144.48 402.46L136.91 415.64L144.48 429.35L136.91 443.06L144.48 456.23L136.91 469.4M121.76 443.06L136.91 443.06M121.76 415.64L136.91 415.64M121.76 389.29L136.91 389.29M144.48 562.33L136.91 548.98L144.48 535.63L136.91 522.28L144.48 508.93L159.63 508.93L167.2 522.28L159.63 535.63L167.2 548.98L159.63 562.33M144.48 535.63L159.63 535.63M136.91 495.04L144.48 481.51L159.63 481.51L167.2 495.04L159.63 508.57L144.48 508.57L136.91 495.04ZM144.48 481.86L136.91 469.23L144.48 456.59L159.63 456.59L167.2 469.23L159.63 481.86M144.48 428.46L159.63 428.46M167.2 415.28L159.63 428.46L167.2 442.53L159.63 456.59M144.48 402.11L159.63 402.11M167.2 415.28L159.63 429L167.2 442.7L182.35 442.7L189.92 429L182.35 415.28L189.92 402.11L182.35 388.94L189.92 375.76L182.35 362.24L189.92 348.71L182.35 335.53L189.92 321.82L182.35 308.12L167.2 308.12L159.63 321.82L167.2 335.53L159.63 348.71L167.2 362.24L159.63 375.76L167.2 388.94L159.63 402.11L167.2 415.28ZM144.48 375.76L159.63 375.76M167.2 548.8L182.35 548.8M159.63 508.39L167.2 494.68L182.35 494.68L189.92 508.39L182.35 522.1L167.2 522.1L159.63 508.39ZM159.63 481.86L167.2 469.4L182.35 469.4L189.92 481.86L205.07 481.86L212.64 469.23L205.07 456.59L189.92 456.59L182.35 469.23L189.92 481.86M167.2 469.4L159.63 456.23L167.2 443.06L182.35 443.06L189.92 456.23L182.35 469.4M167.2 415.28L182.35 415.28M159.63 402.46L167.2 389.29L159.63 375.41L167.2 361.53L159.63 348.35L167.2 335.18L182.35 335.18L189.92 348.35L182.35 361.53L189.92 375.41L182.35 389.29L189.92 402.46L182.35 415.64L167.2 415.64L159.63 402.46ZM167.2 389.29L182.35 389.29M189.92 562.33L182.35 548.98L189.92 535.63L182.35 522.28L189.92 508.93L205.07 508.93L212.64 522.28L205.07 535.63L212.64 548.98L205.07 562.33M189.92 535.63L205.07 535.63M182.35 495.04L189.92 481.51L205.07 481.51L212.64 495.04L205.07 508.57L189.92 508.57L182.35 495.04ZM189.92 456.59L182.35 442.53L189.92 428.46L182.35 415.28M189.92 428.46L205.07 428.46M212.64 415.28L205.07 428.46L212.64 442.53L205.07 456.59M189.92 402.11L205.07 402.11M205.07 294.94L212.64 308.12L205.07 321.82L212.64 335.53L205.07 348.71L212.64 362.24L205.07 375.76L212.64 388.94L205.07 402.11L212.64 415.28L205.07 429L212.64 442.7L227.79 442.7L235.36 429L227.79 415.28L212.64 415.28M189.92 375.76L205.07 375.76M212.64 548.8L227.79 548.8M227.79 494.68L235.36 508.39L227.79 522.1L212.64 522.1L205.07 508.39L212.64 494.68M227.79 494.68L235.36 482.22L227.79 469.76L212.64 469.76L205.07 482.22L212.64 494.68L227.79 494.68ZM205.07 456.23L212.64 443.06L227.79 443.06L235.36 456.23L227.79 469.4L212.64 469.4L205.07 456.23ZM205.07 402.46L212.64 389.29L205.07 375.41L212.64 361.53L205.07 348.35L212.64 335.18L227.79 335.18L235.36 348.35L227.79 361.53L235.36 375.41L227.79 389.29L235.36 402.46L227.79 415.64L212.64 415.64L205.07 402.46ZM212.64 389.29L227.79 389.29M8.15 348.71L23.3 348.71M8.15 322.35L23.3 322.35M8.15 294.94L23.3 294.94M8.15 268.6L23.3 268.6M8.15 241.53L23.3 241.53M8.15 214.48L23.3 214.48M8.15 187.78L23.3 187.78M30.87 361.53L46.02 361.53M30.87 335.18L46.02 335.18M30.87 307.76L46.02 307.76M46.02 281.41L53.59 268.42L46.02 255.43L30.87 255.43L23.3 268.42L30.87 281.41L46.02 281.41ZM30.87 255.43L23.3 242.07L30.87 228.72L23.3 214.65L30.87 200.59L23.3 187.78M30.87 228.72L46.02 228.72M53.59 187.78L46.02 200.59L53.59 214.65L46.02 228.72L53.59 242.07L46.02 255.43M30.87 200.59L46.02 200.59M53.59 348.71L68.74 348.71M53.59 322.35L68.74 322.35M68.74 161.07L76.32 174.43L68.74 187.78L76.32 201.13L68.74 214.48L76.32 228L68.74 241.53L76.32 255.07L68.74 268.6L76.32 281.77L68.74 294.94L76.32 308.65L68.74 322.35L76.32 335.53M53.59 294.94L68.74 294.94M53.59 268.6L68.74 268.6M53.59 241.53L68.74 241.53M53.59 214.48L68.74 214.48M53.59 187.78L68.74 187.78M76.32 361.53L91.46 361.53M91.46 335.53L76.32 335.53M91.46 281.41L99.04 294.59L91.46 307.76L76.32 307.76L68.74 294.59L76.32 281.41M91.46 281.41L99.04 268.42L91.46 255.43L76.32 255.43L68.74 268.42L76.32 281.41L91.46 281.41ZM76.32 255.43L68.74 242.07L76.32 228.72L68.74 214.65L76.32 200.59L68.74 187.78M76.32 228.72L91.46 228.72M99.04 187.78L91.46 200.59L99.04 214.65L91.46 228.72L99.04 242.07L91.46 255.43M76.32 200.59L91.46 200.59M99.04 348.71L114.18 348.71M91.46 335.53L99.04 322.35L91.46 308.65L99.04 294.94L91.46 281.77L99.04 268.6L91.46 255.07L99.04 241.53L91.46 228L99.04 214.48L91.46 201.13L99.04 187.78L91.46 174.43L99.04 161.07M99.04 322.35L114.18 322.35M114.18 161.07L121.76 174.43L114.18 187.78L121.76 201.13L114.18 214.48L121.76 228L114.18 241.53L121.76 255.07L114.18 268.6L121.76 281.77L114.18 294.94L121.76 308.65L114.18 322.35L121.76 335.53M99.04 294.94L114.18 294.94M99.04 268.6L114.18 268.6M99.04 241.53L114.18 241.53M99.04 214.48L114.18 214.48M99.04 187.78L114.18 187.78M121.76 361.53L136.91 361.53M136.91 335.53L121.76 335.53M136.91 281.41L144.48 294.59L136.91 307.76L121.76 307.76L114.18 294.59L121.76 281.41M136.91 281.41L144.48 268.42L136.91 255.43L121.76 255.43L114.18 268.42L121.76 281.41L136.91 281.41ZM121.76 255.43L114.18 242.07L121.76 228.72L114.18 214.65L121.76 200.59L114.18 187.78M121.76 228.72L136.91 228.72M144.48 187.78L136.91 200.59L144.48 214.65L136.91 228.72L144.48 242.07L136.91 255.43M121.76 200.59L136.91 200.59M144.48 348.71L159.63 348.71M136.91 335.53L144.48 322.35L136.91 308.65L144.48 294.94L136.91 281.77L144.48 268.6L136.91 255.07L144.48 241.53L136.91 228L144.48 214.48L136.91 201.13L144.48 187.78L136.91 174.43L144.48 161.07M144.48 322.35L159.63 322.35M159.63 161.07L167.2 174.43L159.63 187.78L167.2 201.13L159.63 214.48L167.2 228L159.63 241.53L167.2 255.07L159.63 268.6L167.2 281.77L159.63 294.94L167.2 308.65L159.63 322.35L167.2 335.53M144.48 294.94L159.63 294.94M144.48 268.6L159.63 268.6M144.48 241.53L159.63 241.53M144.48 214.48L159.63 214.48M144.48 187.78L159.63 187.78M167.2 361.53L182.35 361.53M182.35 335.53L167.2 335.53M182.35 281.41L189.92 294.59L182.35 307.76L167.2 307.76L159.63 294.59L167.2 281.41M182.35 281.41L189.92 268.42L182.35 255.43L167.2 255.43L159.63 268.42L167.2 281.41L182.35 281.41ZM167.2 255.43L159.63 242.07L167.2 228.72L159.63 214.65L167.2 200.59L159.63 187.78M167.2 228.72L182.35 228.72M189.92 187.78L182.35 200.59L189.92 214.65L182.35 228.72L189.92 242.07L182.35 255.43M167.2 200.59L182.35 200.59M189.92 348.71L205.07 348.71M182.35 335.53L189.92 322.35L182.35 308.65L189.92 294.94L182.35 281.77L189.92 268.6L182.35 255.07L189.92 241.53L182.35 228L189.92 214.48L182.35 201.13L189.92 187.78L182.35 174.43L189.92 161.07M189.92 322.35L205.07 322.35M205.07 161.07L212.64 174.43L205.07 187.78L212.64 201.13L205.07 214.48L212.64 228L205.07 241.53L212.64 255.07L205.07 268.6L212.64 281.77L205.07 294.94L212.64 308.65L205.07 322.35L212.64 335.53M189.92 294.94L205.07 294.94M189.92 268.6L205.07 268.6M189.92 241.53L205.07 241.53M189.92 214.48L205.07 214.48M189.92 187.78L205.07 187.78M212.64 361.53L227.79 361.53M212.64 308.12L227.79 308.12M212.64 281.77L227.79 281.77L235.36 294.94L227.79 308.12L235.36 321.82L227.79 335.53L212.64 335.53M205.07 268.42L212.64 255.43L227.79 255.43L235.36 268.42L227.79 281.41L212.64 281.41L205.07 268.42ZM212.64 255.43L205.07 242.07L212.64 228.72L205.07 214.65L212.64 200.59L205.07 187.78M212.64 228.72L227.79 228.72M205.07 161.07L212.64 147.72L205.07 134.37L212.64 121.19L205.07 107.49L212.64 93.78L205.07 80.42L212.64 67.07L205.07 53.9L212.64 40.73L205.07 27.56L212.64 14.38L227.79 14.38L235.36 27.56L227.79 40.73L235.36 53.9L227.79 67.07L235.36 80.42L227.79 93.78L235.36 107.49L227.79 121.19L235.36 134.19L227.79 147.18L235.36 161.07L227.79 174.96L235.36 187.78L227.79 200.59L235.36 214.65L227.79 228.72L235.36 242.07L227.79 255.43M212.64 200.59L227.79 200.59M8.15 161.07L23.3 161.07M8.15 134.37L23.3 134.37M53.59 161.07L46.02 147.72L53.59 134.37L46.02 121.19L53.59 107.49L46.02 93.78L53.59 80.42L46.02 67.07L53.59 53.9L46.02 40.73L53.59 27.56L46.02 14.38L30.87 14.38L23.3 27.56L30.87 40.73L23.3 53.9L30.87 67.07L23.3 80.42L30.87 93.78L23.3 107.49L30.87 121.19L23.3 134.37L30.87 147.72L23.3 161.07M8.15 108.02L23.3 108.02M8.15 80.96L23.3 80.96M8.15 53.54L23.3 53.54M8.15 27.2L23.3 27.2M23.3 187.78L30.87 174.96L23.3 161.07L30.87 147.18L23.3 134.19L30.87 121.19M30.87 174.96L46.02 174.96M46.02 121.19L53.59 134.19L46.02 147.18L53.59 161.07L46.02 174.96L53.59 187.78M30.87 147.18L46.02 147.18M30.87 121.19L46.02 121.19M30.87 93.78L46.02 93.78M30.87 67.07L46.02 67.07M30.87 40.73L46.02 40.73M53.59 161.07L68.74 161.07M53.59 134.37L68.74 134.37M99.04 161.07L91.46 147.72L99.04 134.37L91.46 121.19L99.04 107.49L91.46 93.78L99.04 80.42L91.46 67.07L99.04 53.9L91.46 40.73L99.04 27.56L91.46 14.38L76.32 14.38L68.74 27.56L76.32 40.73L68.74 53.9L76.32 67.07L68.74 80.42L76.32 93.78L68.74 107.49L76.32 121.19L68.74 134.37L76.32 147.72L68.74 161.07M46.02 121.19L53.59 108.02L46.02 94.49L53.59 80.96L46.02 67.25L53.59 53.54L46.02 40.37L53.59 27.2L46.02 13.85L53.59 0.5L68.74 0.5L76.32 13.85L68.74 27.2L76.32 40.37L68.74 53.54L76.32 67.25L68.74 80.96L76.32 94.49L68.74 108.02L76.32 121.19M53.59 108.02L68.74 108.02M53.59 80.96L68.74 80.96M53.59 53.54L68.74 53.54M53.59 27.2L68.74 27.2M68.74 187.78L76.32 174.96L68.74 161.07L76.32 147.18L68.74 134.19L76.32 121.19M76.32 174.96L91.46 174.96M91.46 121.19L99.04 134.19L91.46 147.18L99.04 161.07L91.46 174.96L99.04 187.78M76.32 147.18L91.46 147.18M76.32 121.19L91.46 121.19M76.32 93.78L91.46 93.78M76.32 67.07L91.46 67.07M76.32 40.73L91.46 40.73M99.04 161.07L114.18 161.07M99.04 134.37L114.18 134.37M144.48 161.07L136.91 147.72L144.48 134.37L136.91 121.19L144.48 107.49L136.91 93.78L144.48 80.42L136.91 67.07L144.48 53.9L136.91 40.73L144.48 27.56L136.91 14.38L121.76 14.38L114.18 27.56L121.76 40.73L114.18 53.9L121.76 67.07L114.18 80.42L121.76 93.78L114.18 107.49L121.76 121.19L114.18 134.37L121.76 147.72L114.18 161.07M91.46 121.19L99.04 108.02L91.46 94.49L99.04 80.96L91.46 67.25L99.04 53.54L91.46 40.37L99.04 27.2L91.46 13.85L99.04 0.5L114.18 0.5L121.76 13.85L114.18 27.2L121.76 40.37L114.18 53.54L121.76 67.25L114.18 80.96L121.76 94.49L114.18 108.02L121.76 121.19M99.04 108.02L114.18 108.02M99.04 80.96L114.18 80.96M99.04 53.54L114.18 53.54M99.04 27.2L114.18 27.2M114.18 187.78L121.76 174.96L114.18 161.07L121.76 147.18L114.18 134.19L121.76 121.19M121.76 174.96L136.91 174.96M136.91 121.19L144.48 134.19L136.91 147.18L144.48 161.07L136.91 174.96L144.48 187.78M121.76 147.18L136.91 147.18M121.76 121.19L136.91 121.19M121.76 93.78L136.91 93.78M121.76 67.07L136.91 67.07M121.76 40.73L136.91 40.73M144.48 161.07L159.63 161.07M144.48 134.37L159.63 134.37M189.92 161.07L182.35 147.72L189.92 134.37L182.35 121.19L189.92 107.49L182.35 93.78L189.92 80.42L182.35 67.07L189.92 53.9L182.35 40.73L189.92 27.56L182.35 14.38L167.2 14.38L159.63 27.56L167.2 40.73L159.63 53.9L167.2 67.07L159.63 80.42L167.2 93.78L159.63 107.49L167.2 121.19L159.63 134.37L167.2 147.72L159.63 161.07M136.91 121.19L144.48 108.02L136.91 94.49L144.48 80.96L136.91 67.25L144.48 53.54L136.91 40.37L144.48 27.2L136.91 13.85L144.48 0.5L159.63 0.5L167.2 13.85L159.63 27.2L167.2 40.37L159.63 53.54L167.2 67.25L159.63 80.96L167.2 94.49L159.63 108.02L167.2 121.19M144.48 108.02L159.63 108.02M144.48 80.96L159.63 80.96M144.48 53.54L159.63 53.54M144.48 27.2L159.63 27.2M159.63 187.78L167.2 174.96L159.63 161.07L167.2 147.18L159.63 134.19L167.2 121.19M167.2 174.96L182.35 174.96M182.35 121.19L189.92 134.19L182.35 147.18L189.92 161.07L182.35 174.96L189.92 187.78M167.2 147.18L182.35 147.18M167.2 121.19L182.35 121.19M167.2 93.78L182.35 93.78M167.2 67.07L182.35 67.07M167.2 40.73L182.35 40.73M189.92 161.07L205.07 161.07M189.92 134.37L205.07 134.37M182.35 121.19L189.92 108.02L182.35 94.49L189.92 80.96L182.35 67.25L189.92 53.54L182.35 40.37L189.92 27.2L182.35 13.85L189.92 0.5L205.07 0.5L212.64 13.85L205.07 27.2L212.64 40.37L205.07 53.54L212.64 67.25L205.07 80.96L212.64 94.49L205.07 108.02L212.64 121.19M189.92 108.02L205.07 108.02M189.92 80.96L205.07 80.96M189.92 53.54L205.07 53.54M189.92 27.2L205.07 27.2M205.07 187.78L212.64 174.96L205.07 161.07L212.64 147.18L205.07 134.19L212.64 121.19M212.64 174.96L227.79 174.96M212.64 147.18L227.79 147.18M212.64 121.19L227.79 121.19M212.64 93.78L227.79 93.78M212.64 67.07L227.79 67.07M212.64 40.73L227.79 40.73M250.51 749.96L235.36 749.96L227.79 736.43L235.36 722.91M235.36 615.03L227.79 628.73L235.36 642.44L227.79 655.97L235.36 669.5L227.79 683.39L235.36 697.27L227.79 710.09L235.36 722.91L250.51 722.91L258.08 710.09M250.51 722.91L258.08 736.43L250.51 749.96L258.08 763.5L273.23 763.5L280.8 749.96L273.23 736.43L280.8 722.91M235.36 697.27L250.51 697.27M250.51 615.03L258.08 628.73L250.51 642.44L258.08 655.97L250.51 669.5L258.08 683.39L250.51 697.27L258.08 710.09L273.23 710.09L280.8 697.27L273.23 683.39L280.8 669.5L273.23 655.97L280.8 642.44L273.23 628.73L280.8 615.03M235.36 669.5L250.51 669.5M235.36 642.44L250.51 642.44M250.51 615.03L258.08 602.21L250.51 589.39L235.36 589.39L227.79 602.21L235.36 615.03L250.51 615.03ZM235.36 589.39L227.79 575.86L235.36 562.33L227.79 548.98L235.36 535.63L227.79 522.28L235.36 508.93L227.79 495.39L235.36 481.86M235.36 562.33L250.51 562.33M280.8 589.39L273.23 575.86L280.8 562.33L273.23 548.8L280.8 535.27L273.23 521.75L258.08 521.75L250.51 535.27L258.08 548.8L250.51 562.33L258.08 575.86L250.51 589.39M258.08 736.43L273.23 736.43M273.23 710.09L280.8 723.08L273.23 736.08L258.08 736.08L250.51 723.08L258.08 710.09M273.23 575.86L280.8 589.21L273.23 602.57L280.8 615.92L273.23 629.27L280.8 642.8L273.23 656.32L280.8 669.68L273.23 683.03L280.8 696.38L273.23 709.73L258.08 709.73L250.51 696.38L258.08 683.03L250.51 669.68L258.08 656.32L250.51 642.8L258.08 629.27L250.51 615.92L258.08 602.57L250.51 589.21L258.08 575.86M258.08 683.03L273.23 683.03M258.08 656.32L273.23 656.32M258.08 629.27L273.23 629.27M258.08 602.57L273.23 602.57M258.08 575.86L273.23 575.86M273.23 710.09L280.8 722.91L295.95 722.91L303.52 710.09M295.95 722.91L303.52 736.43L295.95 749.96L303.52 763.5L318.67 763.5L326.25 749.96L318.67 736.43L326.25 722.91M295.95 749.96L280.8 749.96M280.8 697.27L295.95 697.27M295.95 615.03L303.52 628.73L295.95 642.44L303.52 655.97L295.95 669.5L303.52 683.39L295.95 697.27L303.52 710.09L318.67 710.09L326.25 697.27L318.67 683.39L326.25 669.5L318.67 655.97L326.25 642.44L341.39 642.44L348.97 655.97L341.39 669.5L348.97 683.39L341.39 697.27L348.97 710.09L364.11 710.09L371.69 697.27L364.11 683.39L371.69 669.5L364.11 655.97L371.69 642.44L364.11 628.73L371.69 615.03M280.8 669.5L295.95 669.5M280.8 642.44L295.95 642.44M303.52 602.21L295.95 589.39L280.8 589.39L273.23 602.21L280.8 615.03L295.95 615.03L303.52 602.21L318.67 602.21L326.25 615.56L318.67 628.91L303.52 628.91L295.95 615.56L303.52 602.21M280.8 562.33L295.95 562.33M371.69 589.39L364.11 575.86L371.69 562.33L364.11 548.8L371.69 535.27L364.11 521.75L348.97 521.75L341.39 535.27L348.97 548.8L341.39 562.33L348.97 575.86L341.39 589.39L326.25 589.39L318.67 575.86L326.25 562.33L318.67 548.8L326.25 535.27L318.67 521.75L303.52 521.75L295.95 535.27L303.52 548.8L295.95 562.33L303.52 575.86L295.95 589.39M303.52 736.43L318.67 736.43M318.67 710.09L326.25 723.08L318.67 736.08L303.52 736.08L295.95 723.08L303.52 710.09M303.52 710.09L295.95 696.74L303.52 683.39M303.52 683.39L318.67 683.39M318.67 683.39L326.25 696.74L318.67 710.09M326.25 615.38L318.67 629.09L326.25 642.8L318.67 656.32L326.25 669.68L318.67 683.03L303.52 683.03L295.95 669.68L303.52 656.32L295.95 642.8L303.52 629.27L318.67 629.27L326.25 642.8M303.52 656.32L318.67 656.32M348.97 602.57L341.39 615.38L326.25 615.38L318.67 602.57L303.52 602.57L295.95 589.21L303.52 575.86M303.52 575.86L318.67 575.86M318.67 575.86L326.25 589.21L318.67 602.57M318.67 710.09L326.25 722.91L341.39 722.91L348.97 710.09M341.39 722.91L348.97 736.43L341.39 749.96L348.97 763.5L364.11 763.5L371.69 749.96L364.11 736.43L371.69 722.91M341.39 749.96L326.25 749.96M326.25 697.27L341.39 697.27M326.25 669.5L341.39 669.5M341.39 615.38L348.97 629.09L341.39 642.8L348.97 656.32L341.39 669.68L348.97 683.03L364.11 683.03L371.69 669.68L364.11 656.32L371.69 642.8L364.11 629.27L348.97 629.27L341.39 642.8M341.39 642.8L326.25 642.8M318.67 602.57L326.25 589.75L341.39 589.75L348.97 602.57L364.11 602.57L371.69 589.21L364.11 575.86M326.25 562.33L341.39 562.33M348.97 736.43L364.11 736.43M364.11 710.09L371.69 723.08L364.11 736.08L348.97 736.08L341.39 723.08L348.97 710.09M348.97 710.09L341.39 696.74L348.97 683.39M348.97 683.39L364.11 683.39M364.11 683.39L371.69 696.74L364.11 710.09M348.97 656.32L364.11 656.32M364.11 602.21L371.69 615.56L364.11 628.91L348.97 628.91L341.39 615.56L348.97 602.21L364.11 602.21L371.69 615.03L386.84 615.03L394.41 602.21L386.84 589.39L371.69 589.39L364.11 602.21M348.97 602.57L341.39 589.21L348.97 575.86M348.97 575.86L364.11 575.86M364.11 710.09L371.69 722.91L386.84 722.91L394.41 710.09M386.84 722.91L394.41 736.43L386.84 749.96L394.41 763.5L409.56 763.5L417.13 749.96L409.56 736.43L417.13 722.91M386.84 749.96L371.69 749.96M371.69 697.27L386.84 697.27M386.84 615.03L394.41 628.73L386.84 642.44L394.41 655.97L386.84 669.5L394.41 683.39L386.84 697.27L394.41 710.09L409.56 710.09L417.13 697.27L432.28 697.27L439.85 710.09L455 710.09L462.58 723.08L455 736.08L439.85 736.08L432.28 723.08L439.85 710.09M371.69 669.5L386.84 669.5M371.69 642.44L386.84 642.44M371.69 562.33L386.84 562.33M394.41 494.32L386.84 508.03L394.41 521.75L386.84 535.27L394.41 548.8L386.84 562.33L394.41 575.86L386.84 589.39M394.41 736.43L409.56 736.43M409.56 710.09L417.13 723.08L409.56 736.08L394.41 736.08L386.84 723.08L394.41 710.09M409.56 683.03L417.13 696.38L409.56 709.73L394.41 709.73L386.84 696.38L394.41 683.03L386.84 669.68L394.41 656.32L386.84 642.8L394.41 629.27L386.84 615.92L394.41 602.57L386.84 589.21L394.41 575.86M394.41 683.03L409.56 683.03M394.41 656.32L409.56 656.32M409.56 575.86L417.13 589.21L409.56 602.57L417.13 615.92L409.56 629.27L417.13 642.8L409.56 656.32L417.13 669.68L409.56 683.03M394.41 629.27L409.56 629.27M394.41 602.57L409.56 602.57M394.41 575.86L409.56 575.86M409.56 710.09L417.13 722.91L432.28 722.91L439.85 710.09M432.28 722.91L439.85 736.43L432.28 749.96L439.85 763.5L455 763.5L462.58 749.96L455 736.43L439.85 736.43M432.28 749.96L417.13 749.96M409.56 683.03L417.13 669.14L432.28 669.14L439.85 683.03L432.28 696.92L417.13 696.92L409.56 683.03ZM432.28 615.03L439.85 628.73L432.28 642.44L439.85 655.97L432.28 669.5L417.13 669.5L409.56 655.97L417.13 642.44L409.56 628.73L417.13 615.03M417.13 642.44L432.28 642.44M432.28 615.03L439.85 602.21L432.28 589.39L417.13 589.39L409.56 602.21L417.13 615.03L432.28 615.03ZM417.13 589.39L409.56 575.86L417.13 562.33L409.56 548.8L417.13 535.27L409.56 521.75L417.13 508.03L409.56 494.32M417.13 562.33L432.28 562.33M439.85 494.32L432.28 508.03L439.85 521.75L432.28 535.27L439.85 548.8L432.28 562.33L439.85 575.86L432.28 589.39M439.85 710.09L432.28 696.74L439.85 683.39L455 683.39L462.58 696.74L455 710.09M439.85 683.03L432.28 669.68L439.85 656.32L455 656.32L462.58 669.68L455 683.03L439.85 683.03M432.28 642.44L439.85 628.91L455 628.91L462.58 642.44L455 655.97L439.85 655.97M455 494.32L462.58 508.03L455 521.75L462.58 535.27L455 548.8L462.58 562.33L455 575.86L462.58 589.21L455 602.57L462.58 615.92L455 629.27L439.85 629.27L432.28 615.92L439.85 602.57L432.28 589.21L439.85 575.86M439.85 602.57L455 602.57M439.85 575.86L455 575.86M235.36 535.63L250.51 535.63M250.51 481.86L258.08 495.39L250.51 508.93L258.08 522.28L250.51 535.63L258.08 548.98L250.51 562.33M235.36 508.93L250.51 508.93M250.51 481.86L258.08 469.23L250.51 456.59L235.36 456.59L227.79 469.23L235.36 481.86L250.51 481.86ZM235.36 456.59L227.79 442.53L235.36 428.46L227.79 415.28L235.36 402.11L227.79 388.94L235.36 375.76L227.79 362.24L235.36 348.71L227.79 335.53L235.36 322.35L227.79 308.65L235.36 294.94L227.79 281.77L235.36 268.6L227.79 255.07L235.36 241.53L227.79 228L235.36 214.48L227.79 201.13L235.36 187.78L227.79 174.43L235.36 161.07L227.79 147.72L235.36 134.37L227.79 121.19L235.36 108.02L227.79 94.49L235.36 80.96L227.79 67.25L235.36 53.54L227.79 40.37L235.36 27.2L227.79 13.85L235.36 0.5L250.51 0.5L258.08 13.85L250.51 27.2L258.08 40.37L250.51 53.54L258.08 67.25L250.51 80.96L258.08 94.49L250.51 108.02L258.08 121.19M235.36 428.46L250.51 428.46M258.08 415.28L250.51 428.46L258.08 442.53L250.51 456.59M235.36 402.11L250.51 402.11M250.51 161.07L258.08 174.43L250.51 187.78L258.08 201.13L250.51 214.48L258.08 228L250.51 241.53L258.08 255.07L250.51 268.6L258.08 281.77L250.51 294.94L258.08 308.65L250.51 322.35L258.08 335.53L250.51 348.71L258.08 362.24L250.51 375.76L258.08 388.94L250.51 402.11L258.08 415.28L250.51 429L258.08 442.7L273.23 442.7L280.8 429L273.23 415.28L280.8 402.11L273.23 388.94L280.8 375.76L273.23 362.24L280.8 348.71L273.23 335.53L280.8 322.35L273.23 308.65L280.8 294.94L273.23 281.77L280.8 268.6L273.23 255.07L280.8 241.53L273.23 228L280.8 214.48L273.23 201.13L280.8 187.78L273.23 174.43L280.8 161.07M235.36 375.76L250.51 375.76M258.08 548.8L273.23 548.8M273.23 494.68L280.8 508.39L273.23 522.1L258.08 522.1L250.51 508.39L258.08 494.68M273.23 494.68L280.8 482.22L273.23 469.76L258.08 469.76L250.51 482.22L258.08 494.68L273.23 494.68ZM250.51 456.23L258.08 443.06L273.23 443.06L280.8 456.23L273.23 469.4L258.08 469.4L250.51 456.23ZM258.08 415.28L273.23 415.28M273.23 281.41L280.8 294.59L273.23 307.76L280.8 321.47L273.23 335.18L280.8 348.35L273.23 361.53L280.8 375.41L273.23 389.29L280.8 402.46L273.23 415.64L258.08 415.64L250.51 402.46L258.08 389.29L250.51 375.41L258.08 361.53L250.51 348.35L258.08 335.18L250.51 321.47L258.08 307.76L250.51 294.59L258.08 281.41M258.08 389.29L273.23 389.29M280.8 562.33L273.23 548.98L280.8 535.63L273.23 522.28L280.8 508.93L273.23 495.39L280.8 481.86M280.8 535.63L295.95 535.63M295.95 481.86L303.52 495.39L295.95 508.93L303.52 522.28L295.95 535.63L303.52 548.98L295.95 562.33M280.8 508.93L295.95 508.93M295.95 481.86L303.52 469.23L295.95 456.59L280.8 456.59L273.23 469.23L280.8 481.86L295.95 481.86ZM280.8 456.59L273.23 442.53L280.8 428.46L273.23 415.28M280.8 428.46L295.95 428.46M303.52 415.28L295.95 428.46L303.52 442.53L295.95 456.59M280.8 402.11L295.95 402.11M295.95 161.07L303.52 174.43L295.95 187.78L303.52 201.13L295.95 214.48L303.52 228L295.95 241.53L303.52 255.07L295.95 268.6L303.52 281.77L295.95 294.94L303.52 308.65L295.95 322.35L303.52 335.53L295.95 348.71L303.52 362.24L295.95 375.76L303.52 388.94L295.95 402.11L303.52 415.28L295.95 429L303.52 442.7L318.67 442.7L326.25 429L318.67 415.28L326.25 402.11L318.67 388.94L326.25 375.76L318.67 362.24L326.25 348.71L318.67 335.53L326.25 322.35L318.67 308.65L326.25 294.94L318.67 281.77L326.25 268.6L318.67 255.07L326.25 241.53L318.67 228L326.25 214.48L318.67 201.13L326.25 187.78L318.67 174.43L326.25 161.07M280.8 375.76L295.95 375.76M303.52 548.8L318.67 548.8M318.67 494.68L326.25 508.39L318.67 522.1L303.52 522.1L295.95 508.39L303.52 494.68M318.67 494.68L326.25 482.22L318.67 469.76L303.52 469.76L295.95 482.22L303.52 494.68L318.67 494.68ZM295.95 456.23L303.52 443.06L318.67 443.06L326.25 456.23L318.67 469.4L303.52 469.4L295.95 456.23ZM303.52 415.28L318.67 415.28M318.67 281.41L326.25 294.59L318.67 307.76L326.25 321.47L318.67 335.18L326.25 348.35L318.67 361.53L326.25 375.41L318.67 389.29L326.25 402.46L318.67 415.64L303.52 415.64L295.95 402.46L303.52 389.29L295.95 375.41L303.52 361.53L295.95 348.35L303.52 335.18L295.95 321.47L303.52 307.76L295.95 294.59L303.52 281.41M303.52 389.29L318.67 389.29M326.25 562.33L318.67 548.98L326.25 535.63L318.67 522.28L326.25 508.93L341.39 508.93L348.97 522.28L341.39 535.63L348.97 548.98L341.39 562.33M326.25 535.63L341.39 535.63M318.67 495.04L326.25 481.51L341.39 481.51L348.97 495.04L341.39 508.57L326.25 508.57L318.67 495.04ZM432.28 481.86L439.85 469.4L455 469.4L462.58 481.86L455 494.32L439.85 494.32L432.28 481.86L417.13 481.86L409.56 469.4L394.41 469.4L386.84 481.86L371.69 481.86L364.11 469.4L348.97 469.4L341.39 481.86L326.25 481.86L318.67 469.23L326.25 456.59L341.39 456.59L348.97 469.23L341.39 481.86M326.25 456.59L318.67 442.53L326.25 428.46L318.67 415.28M326.25 428.46L341.39 428.46M341.39 161.07L348.97 174.43L341.39 187.78L348.97 201.13L341.39 214.48L348.97 228L341.39 241.53L348.97 255.07L341.39 268.6L348.97 281.77L341.39 294.94L348.97 308.65L341.39 322.35L348.97 335.53L341.39 348.71L348.97 362.24L341.39 375.76L348.97 388.94L341.39 402.11L348.97 415.28L341.39 428.46L348.97 442.53L341.39 456.59M326.25 402.11L341.39 402.11M326.25 375.76L341.39 375.76M348.97 548.8L364.11 548.8M341.39 508.39L348.97 494.68L364.11 494.68L371.69 508.39L364.11 522.1L348.97 522.1L341.39 508.39ZM371.69 481.86L364.11 494.32L348.97 494.32L341.39 481.86M348.97 469.4L341.39 456.23L348.97 443.06L341.39 429.35L348.97 415.64L341.39 402.46L348.97 389.29L341.39 375.41L348.97 361.53L341.39 348.35L348.97 335.18L341.39 321.47L348.97 307.76L341.39 294.59L348.97 281.41M348.97 443.06L364.11 443.06M371.69 294.59L364.11 307.76L371.69 321.47L364.11 335.18L371.69 348.35L364.11 361.53L371.69 375.41L364.11 389.29L371.69 402.46L364.11 415.64L371.69 429.35L364.11 443.06L371.69 456.23L364.11 469.4M348.97 415.64L364.11 415.64M348.97 389.29L364.11 389.29M371.69 562.33L364.11 548.98L371.69 535.63L364.11 522.28L371.69 508.93L386.84 508.93L394.41 522.28L386.84 535.63L394.41 548.98L386.84 562.33M371.69 535.63L386.84 535.63M364.11 495.04L371.69 481.51L386.84 481.51L394.41 495.04L386.84 508.57L371.69 508.57L364.11 495.04ZM371.69 481.86L364.11 469.23L371.69 456.59L386.84 456.59L394.41 469.23L386.84 481.86M371.69 456.59L364.11 442.53L371.69 428.46L364.11 415.28L371.69 402.11L364.11 388.94L371.69 375.76L364.11 362.24L371.69 348.71L386.84 348.71L394.41 362.24L386.84 375.76L394.41 388.94L386.84 402.11L394.41 415.28L386.84 428.46L394.41 442.53L386.84 456.59M371.69 428.46L386.84 428.46M371.69 402.11L386.84 402.11M371.69 375.76L386.84 375.76M394.41 548.8L409.56 548.8M394.41 521.75L409.56 521.75M386.84 481.86L394.41 494.32L409.56 494.32L417.13 481.86M394.41 469.4L386.84 456.23L394.41 443.06L386.84 429.35L394.41 415.64L386.84 402.46L394.41 389.29L386.84 375.41L394.41 361.53L386.84 348.35L394.41 335.18L386.84 321.47L394.41 307.76L386.84 294.59M394.41 443.06L409.56 443.06M417.13 294.59L409.56 307.76L417.13 321.47L409.56 335.18L417.13 348.35L409.56 361.53L417.13 375.41L409.56 389.29L417.13 402.46L409.56 415.64L417.13 429.35L409.56 443.06L417.13 456.23L409.56 469.4M394.41 415.64L409.56 415.64M394.41 389.29L409.56 389.29M432.28 535.27L439.85 548.62L432.28 561.97L417.13 561.97L409.56 548.62L417.13 535.27M417.13 535.27L432.28 535.27M417.13 535.27L409.56 521.92L417.13 508.57L409.56 495.04L417.13 481.51L432.28 481.51L439.85 495.04L432.28 508.57L439.85 521.92L432.28 535.27M417.13 508.57L432.28 508.57M417.13 481.86L409.56 469.23L417.13 456.59L432.28 456.59L439.85 469.23L432.28 481.86M417.13 456.59L409.56 442.53L417.13 428.46L409.56 415.28L417.13 402.11L409.56 388.94L417.13 375.76L409.56 362.24L417.13 348.71L409.56 335.53L417.13 322.35L432.28 322.35L439.85 335.53L432.28 348.71L439.85 362.24L432.28 375.76L439.85 388.94L432.28 402.11L439.85 415.28L432.28 428.46L439.85 442.53L432.28 456.59M417.13 428.46L432.28 428.46M417.13 402.11L432.28 402.11M417.13 375.76L432.28 375.76M439.85 548.8L455 548.8M439.85 521.75L455 521.75M439.85 469.4L432.28 456.23L439.85 443.06L432.28 429.35L439.85 415.64L432.28 402.46L439.85 389.29L432.28 375.41L439.85 361.53L432.28 348.35L439.85 335.18L432.28 321.47L439.85 307.76L432.28 294.59M439.85 443.06L455 443.06M455 281.41L462.58 294.59L455 307.76L462.58 321.47L455 335.18L462.58 348.35L455 361.53L462.58 375.41L455 389.29L462.58 402.46L455 415.64L462.58 429.35L455 443.06L462.58 456.23L455 469.4M439.85 415.64L455 415.64M439.85 389.29L455 389.29M235.36 348.71L250.51 348.71M235.36 322.35L250.51 322.35M235.36 294.94L250.51 294.94M235.36 268.6L250.51 268.6M235.36 241.53L250.51 241.53M235.36 214.48L250.51 214.48M235.36 187.78L250.51 187.78M258.08 361.53L273.23 361.53M258.08 335.18L273.23 335.18M258.08 307.76L273.23 307.76M273.23 281.41L280.8 268.42L273.23 255.43L258.08 255.43L250.51 268.42L258.08 281.41L273.23 281.41ZM258.08 255.43L250.51 242.07L258.08 228.72L250.51 214.65L258.08 200.59L250.51 187.78M258.08 228.72L273.23 228.72M280.8 187.78L273.23 200.59L280.8 214.65L273.23 228.72L280.8 242.07L273.23 255.43M258.08 200.59L273.23 200.59M280.8 348.71L295.95 348.71M280.8 322.35L295.95 322.35M280.8 294.94L295.95 294.94M280.8 268.6L295.95 268.6M280.8 241.53L295.95 241.53M280.8 214.48L295.95 214.48M280.8 187.78L295.95 187.78M303.52 361.53L318.67 361.53M303.52 335.18L318.67 335.18M303.52 307.76L318.67 307.76M318.67 281.41L326.25 268.42L318.67 255.43L303.52 255.43L295.95 268.42L303.52 281.41L318.67 281.41ZM303.52 255.43L295.95 242.07L303.52 228.72L295.95 214.65L303.52 200.59L295.95 187.78M303.52 228.72L318.67 228.72M326.25 187.78L318.67 200.59L326.25 214.65L318.67 228.72L326.25 242.07L318.67 255.43M303.52 200.59L318.67 200.59M326.25 348.71L341.39 348.71M326.25 322.35L341.39 322.35M326.25 294.94L341.39 294.94M326.25 268.6L341.39 268.6M326.25 241.53L341.39 241.53M326.25 214.48L341.39 214.48M326.25 187.78L341.39 187.78M348.97 361.53L364.11 361.53M348.97 335.18L364.11 335.18M348.97 307.76L364.11 307.76M364.11 281.41L371.69 268.42L364.11 255.43L348.97 255.43L341.39 268.42L348.97 281.41L364.11 281.41ZM364.11 281.41L371.69 294.59L364.11 308.29L371.69 322L364.11 335.18M348.97 255.43L341.39 242.07L348.97 228.72L341.39 214.65L348.97 200.59L341.39 187.78M348.97 228.72L364.11 228.72M371.69 187.78L364.11 200.59L371.69 214.65L364.11 228.72L371.69 242.07L364.11 255.43M348.97 200.59L364.11 200.59M371.69 322L386.84 322M394.41 281.41L386.84 294.59L394.41 308.29L386.84 322L394.41 335.18M386.84 348.35L371.69 348.35M371.69 294.59L386.84 294.59M386.84 161.07L394.41 174.43L386.84 187.78L394.41 201.13L386.84 214.48L394.41 228L386.84 241.53L394.41 255.07L386.84 268.6L394.41 281.77L386.84 294.94L371.69 294.94L364.11 281.77L371.69 268.6L364.11 255.07L371.69 241.53L364.11 228L371.69 214.48L364.11 201.13L371.69 187.78L364.11 174.43L371.69 161.07M371.69 268.6L386.84 268.6M371.69 241.53L386.84 241.53M371.69 214.48L386.84 214.48M371.69 187.78L386.84 187.78M394.41 361.53L409.56 361.53M394.41 335.18L409.56 335.18M394.41 307.76L409.56 307.76M409.56 281.41L417.13 268.42L409.56 255.43L394.41 255.43L386.84 268.42L394.41 281.41L409.56 281.41ZM409.56 281.41L417.13 294.59L409.56 308.29L417.13 322L432.28 322L439.85 308.29L432.28 294.59L439.85 281.41M394.41 255.43L386.84 242.07L394.41 228.72L386.84 214.65L394.41 200.59L386.84 187.78M394.41 228.72L409.56 228.72M417.13 187.78L409.56 200.59L417.13 214.65L409.56 228.72L417.13 242.07L409.56 255.43M394.41 200.59L409.56 200.59M417.13 348.71L432.28 348.71M417.13 294.59L432.28 294.59M432.28 161.07L439.85 174.43L432.28 187.78L439.85 201.13L432.28 214.48L439.85 228L432.28 241.53L439.85 255.07L432.28 268.6L439.85 281.77L432.28 294.94L417.13 294.94L409.56 281.77L417.13 268.6L409.56 255.07L417.13 241.53L409.56 228L417.13 214.48L409.56 201.13L417.13 187.78L409.56 174.43L417.13 161.07M417.13 268.6L432.28 268.6M417.13 241.53L432.28 241.53M417.13 214.48L432.28 214.48M417.13 187.78L432.28 187.78M439.85 361.53L455 361.53M439.85 335.18L455 335.18M439.85 307.76L455 307.76M455 281.41L462.58 268.42L455 255.43L439.85 255.43L432.28 268.42L439.85 281.41L455 281.41ZM439.85 255.43L432.28 242.07L439.85 228.72L432.28 214.65L439.85 200.59L432.28 187.78M439.85 228.72L455 228.72M432.28 161.07L439.85 147.72L432.28 134.37L439.85 121.19L432.28 107.49L439.85 93.78L432.28 80.42L439.85 67.07L432.28 53.9L439.85 40.73L432.28 27.56L439.85 14.38L455 14.38L462.58 27.56L455 40.73L462.58 53.9L455 67.07L462.58 80.42L455 93.78L462.58 107.49L455 121.19L462.58 134.19L455 147.18L462.58 161.07L455 174.96L462.58 187.78L455 200.59L462.58 214.65L455 228.72L462.58 242.07L455 255.43M439.85 200.59L455 200.59M235.36 161.07L250.51 161.07M235.36 134.37L250.51 134.37M280.8 161.07L273.23 147.72L280.8 134.37L273.23 121.19L280.8 107.49L273.23 93.78L280.8 80.42L273.23 67.07L280.8 53.9L273.23 40.73L280.8 27.56L273.23 14.38L258.08 14.38L250.51 27.56L258.08 40.73L250.51 53.9L258.08 67.07L250.51 80.42L258.08 93.78L250.51 107.49L258.08 121.19L250.51 134.37L258.08 147.72L250.51 161.07M235.36 108.02L250.51 108.02M235.36 80.96L250.51 80.96M235.36 53.54L250.51 53.54M235.36 27.2L250.51 27.2M250.51 187.78L258.08 174.96L250.51 161.07L258.08 147.18L250.51 134.19L258.08 121.19M258.08 174.96L273.23 174.96M273.23 121.19L280.8 134.19L273.23 147.18L280.8 161.07L273.23 174.96L280.8 187.78M258.08 147.18L273.23 147.18M258.08 121.19L273.23 121.19M258.08 93.78L273.23 93.78M258.08 67.07L273.23 67.07M258.08 40.73L273.23 40.73M280.8 161.07L295.95 161.07M280.8 134.37L295.95 134.37M326.25 161.07L318.67 147.72L326.25 134.37L318.67 121.19L326.25 107.49L318.67 93.78L326.25 80.42L318.67 67.07L326.25 53.9L318.67 40.73L326.25 27.56L318.67 14.38L303.52 14.38L295.95 27.56L303.52 40.73L295.95 53.9L303.52 67.07L295.95 80.42L303.52 93.78L295.95 107.49L303.52 121.19L295.95 134.37L303.52 147.72L295.95 161.07M273.23 121.19L280.8 108.02L273.23 94.49L280.8 80.96L273.23 67.25L280.8 53.54L273.23 40.37L280.8 27.2L273.23 13.85L280.8 0.5L295.95 0.5L303.52 13.85L295.95 27.2L303.52 40.37L295.95 53.54L303.52 67.25L295.95 80.96L303.52 94.49L295.95 108.02L303.52 121.19M280.8 108.02L295.95 108.02M280.8 80.96L295.95 80.96M280.8 53.54L295.95 53.54M280.8 27.2L295.95 27.2M295.95 187.78L303.52 174.96L295.95 161.07L303.52 147.18L295.95 134.19L303.52 121.19M303.52 174.96L318.67 174.96M318.67 121.19L326.25 134.19L318.67 147.18L326.25 161.07L318.67 174.96L326.25 187.78M303.52 147.18L318.67 147.18M303.52 121.19L318.67 121.19M303.52 93.78L318.67 93.78M303.52 67.07L318.67 67.07M303.52 40.73L318.67 40.73M326.25 161.07L341.39 161.07M326.25 134.37L341.39 134.37M371.69 161.07L364.11 147.72L371.69 134.37L364.11 121.19L371.69 107.49L364.11 93.78L371.69 80.42L364.11 67.07L371.69 53.9L364.11 40.73L371.69 27.56L364.11 14.38L348.97 14.38L341.39 27.56L348.97 40.73L341.39 53.9L348.97 67.07L341.39 80.42L348.97 93.78L341.39 107.49L348.97 121.19L341.39 134.37L348.97 147.72L341.39 161.07M318.67 121.19L326.25 108.02L318.67 94.49L326.25 80.96L318.67 67.25L326.25 53.54L318.67 40.37L326.25 27.2L318.67 13.85L326.25 0.5L341.39 0.5L348.97 13.85L341.39 27.2L348.97 40.37L341.39 53.54L348.97 67.25L341.39 80.96L348.97 94.49L341.39 108.02L348.97 121.19M326.25 108.02L341.39 108.02M326.25 80.96L341.39 80.96M326.25 53.54L341.39 53.54M326.25 27.2L341.39 27.2M341.39 187.78L348.97 174.96L341.39 161.07L348.97 147.18L341.39 134.19L348.97 121.19M348.97 174.96L364.11 174.96M364.11 121.19L371.69 134.19L364.11 147.18L371.69 161.07L364.11 174.96L371.69 187.78M348.97 147.18L364.11 147.18M348.97 121.19L364.11 121.19M348.97 93.78L364.11 93.78M348.97 67.07L364.11 67.07M348.97 40.73L364.11 40.73M371.69 161.07L386.84 161.07M371.69 134.37L386.84 134.37M417.13 161.07L409.56 147.72L417.13 134.37L409.56 121.19L417.13 107.49L409.56 93.78L417.13 80.42L409.56 67.07L417.13 53.9L409.56 40.73L417.13 27.56L409.56 14.38L394.41 14.38L386.84 27.56L394.41 40.73L386.84 53.9L394.41 67.07L386.84 80.42L394.41 93.78L386.84 107.49L394.41 121.19L386.84 134.37L394.41 147.72L386.84 161.07M364.11 121.19L371.69 108.02L364.11 94.49L371.69 80.96L364.11 67.25L371.69 53.54L364.11 40.37L371.69 27.2L364.11 13.85L371.69 0.5L386.84 0.5L394.41 13.85L386.84 27.2L394.41 40.37L386.84 53.54L394.41 67.25L386.84 80.96L394.41 94.49L386.84 108.02L394.41 121.19M371.69 108.02L386.84 108.02M371.69 80.96L386.84 80.96M371.69 53.54L386.84 53.54M371.69 27.2L386.84 27.2M386.84 187.78L394.41 174.96L386.84 161.07L394.41 147.18L386.84 134.19L394.41 121.19M394.41 174.96L409.56 174.96M409.56 121.19L417.13 134.19L409.56 147.18L417.13 161.07L409.56 174.96L417.13 187.78M394.41 147.18L409.56 147.18M394.41 121.19L409.56 121.19M394.41 93.78L409.56 93.78M394.41 67.07L409.56 67.07M394.41 40.73L409.56 40.73M417.13 161.07L432.28 161.07M417.13 134.37L432.28 134.37M409.56 121.19L417.13 108.02L409.56 94.49L417.13 80.96L409.56 67.25L417.13 53.54L409.56 40.37L417.13 27.2L409.56 13.85L417.13 0.5L432.28 0.5L439.85 13.85L432.28 27.2L439.85 40.37L432.28 53.54L439.85 67.25L432.28 80.96L439.85 94.49L432.28 108.02L439.85 121.19M417.13 108.02L432.28 108.02M417.13 80.96L432.28 80.96M417.13 53.54L432.28 53.54M417.13 27.2L432.28 27.2M432.28 187.78L439.85 174.96L432.28 161.07L439.85 147.18L432.28 134.19L439.85 121.19M439.85 174.96L455 174.96M439.85 147.18L455 147.18M439.85 121.19L455 121.19M439.85 93.78L455 93.78M439.85 67.07L455 67.07M439.85 40.73L455 40.73" stroke="url(#paint_Diamond_846_31807_0)" stroke-opacity="1.000000" stroke-width="1.000000"/>
	</g>
</svg>
