<svg width="13.000000" height="12.000000" viewBox="0 0 13 12" fill="none" xmlns="http://www.w3.org/2000/svg" xmlns:xlink="http://www.w3.org/1999/xlink">
	<desc>
			Created with Pixso.
	</desc>
	<defs/>
	<path id="Vector" d="M2.21 1.1C2.46 1.03 2.73 1 3 1L10 1C10.27 1 10.53 1.03 10.78 1.1C10.62 0.77 10.36 0.49 10.05 0.29C9.73 0.1 9.37 0 9 0L4 0C3.62 0 3.26 0.1 2.94 0.29C2.63 0.49 2.37 0.77 2.21 1.1ZM0 6C0 5.46 0.21 4.96 0.58 4.58C0.96 4.21 1.46 4 2 4L11 4C11.53 4 12.03 4.21 12.41 4.58C12.78 4.96 13 5.46 13 6L13 10C13 10.53 12.78 11.03 12.41 11.41C12.03 11.78 11.53 12 11 12L2 12C1.46 12 0.96 11.78 0.58 11.41C0.21 11.03 0 10.53 0 10L0 6ZM2 3C1.72 3 1.46 3.03 1.21 3.1C1.37 2.77 1.63 2.49 1.94 2.29C2.26 2.1 2.62 2 3 2L10 2C10.37 2 10.73 2.1 11.05 2.29C11.36 2.49 11.62 2.77 11.78 3.1C11.53 3.03 11.26 3 11 3L2 3Z" fill="#B9BDCC" fill-opacity="1.000000" fill-rule="nonzero"/>
</svg>
