<svg width="320.000000" height="320.000000" viewBox="0 0 320 320" fill="none" xmlns="http://www.w3.org/2000/svg" xmlns:xlink="http://www.w3.org/1999/xlink">
	<desc>
			Created with Pixso.
	</desc>
	<defs/>
	<path id="Polygon 7" d="M150 5.77L31.43 74.22C25.24 77.79 21.43 84.39 21.43 91.54L21.43 228.45C21.43 235.6 25.24 242.2 31.43 245.77L150 314.22C156.18 317.79 163.81 317.79 170 314.22L288.56 245.77C294.75 242.2 298.56 235.6 298.56 228.45L298.56 91.54C298.56 84.39 294.75 77.79 288.56 74.22L170 5.77C163.81 2.2 156.18 2.2 150 5.77Z" fill="#10C38D" fill-opacity="1.000000" fill-rule="evenodd"/>
	<path id="Vector" d="M197.43 173.43C195.62 171.26 193.56 169.32 191.57 167.44C190.87 166.77 190.14 166.07 189.43 165.39C187.41 163.41 187.34 162.67 188.94 160.42C190.05 158.88 191.22 157.32 192.35 155.83C193.39 154.47 194.45 153.07 195.47 151.65L195.68 151.36C197.63 148.66 199.65 145.87 200.73 142.5C201 141.61 201.3 140.31 200.63 139.21C199.96 138.12 198.66 137.78 197.74 137.64C197.29 137.56 196.84 137.54 196.42 137.54L183.64 137.53L183.53 137.53C181.6 137.53 180.3 138.45 179.55 140.32C178.84 142.1 178.06 144.01 177.17 145.82C175.39 149.43 173.14 153.59 169.87 157.06L169.73 157.21C169.35 157.62 168.91 158.09 168.59 158.09C168.54 158.09 168.49 158.08 168.43 158.06C167.75 157.79 167.3 156.16 167.32 155.39C167.32 155.39 167.32 155.38 167.32 155.36L167.31 140.6C167.31 140.55 167.3 140.5 167.3 140.45C166.97 138.04 166.25 136.55 163.53 136.02C163.46 136 163.39 136 163.32 136L150.03 136C147.86 136 146.67 136.88 145.55 138.19C145.25 138.54 144.62 139.28 144.93 140.17C145.25 141.07 146.27 141.26 146.61 141.32C148.27 141.64 149.21 142.66 149.47 144.43C149.94 147.52 150 150.81 149.65 154.79C149.56 155.9 149.37 156.76 149.06 157.49C148.99 157.66 148.73 158.21 148.47 158.21C148.39 158.21 148.15 158.18 147.71 157.89C146.68 157.17 145.93 156.17 145.05 154.92C142.06 150.7 139.55 146.04 137.37 140.69C136.57 138.71 135.07 137.61 133.14 137.58C131.02 137.55 129.09 137.53 127.26 137.53C125.26 137.53 123.4 137.55 121.59 137.59C120.03 137.61 118.96 138.08 118.39 138.97C117.83 139.86 117.87 141.03 118.5 142.46C123.62 153.82 128.25 162.08 133.53 169.25C137.23 174.26 140.95 177.74 145.21 180.18C149.71 182.75 154.75 184 160.62 184C161.29 184 161.98 183.98 162.67 183.95C166.08 183.78 167.34 182.54 167.5 179.22C167.58 177.53 167.77 175.75 168.6 174.23C169.13 173.28 169.62 173.28 169.78 173.28C170.09 173.28 170.48 173.42 170.89 173.68C171.63 174.17 172.27 174.82 172.79 175.39C173.28 175.93 173.77 176.47 174.25 177.01C175.3 178.19 176.39 179.4 177.52 180.56C180 183.08 182.73 184.19 185.87 183.95L197.59 183.95C197.61 183.95 197.64 183.95 197.66 183.95C198.83 183.87 199.84 183.22 200.44 182.17C201.17 180.86 201.16 179.21 200.39 177.72C199.53 176.04 198.41 174.61 197.43 173.43Z" fill="#FFFFFF" fill-opacity="1.000000" fill-rule="nonzero"/>
</svg>
