<svg width="83.039062" height="48.000000" viewBox="0 0 83.0391 48" fill="none" xmlns="http://www.w3.org/2000/svg" xmlns:xlink="http://www.w3.org/1999/xlink">
	<desc>
			Created with Pixso.
	</desc>
	<defs/>
	<path id="Vector" d="M79.42 37.43C77.62 35.26 75.56 33.32 73.57 31.44C72.87 30.77 72.14 30.07 71.43 29.39C69.41 27.41 69.34 26.67 70.94 24.42C72.05 22.88 73.22 21.32 74.35 19.83C75.39 18.47 76.45 17.07 77.47 15.65L77.68 15.36C79.63 12.66 81.65 9.87 82.73 6.5C83 5.61 83.3 4.31 82.63 3.21C81.96 2.12 80.66 1.78 79.74 1.64C79.29 1.56 78.83 1.54 78.42 1.54L65.64 1.53L65.53 1.53C63.6 1.53 62.3 2.45 61.55 4.32C60.84 6.1 60.06 8.01 59.17 9.82C57.39 13.43 55.14 17.59 51.87 21.06L51.73 21.21C51.35 21.62 50.91 22.09 50.59 22.09C50.54 22.09 50.49 22.08 50.43 22.06C49.75 21.79 49.3 20.16 49.32 19.39C49.32 19.39 49.32 19.38 49.32 19.36L49.31 4.6C49.31 4.55 49.3 4.5 49.3 4.45C48.97 2.04 48.25 0.55 45.53 0.02C45.46 0 45.39 0 45.32 0L32.03 0C29.86 0 28.67 0.88 27.55 2.19C27.25 2.54 26.62 3.28 26.93 4.17C27.25 5.07 28.27 5.26 28.61 5.32C30.27 5.64 31.21 6.66 31.47 8.43C31.94 11.52 32 14.81 31.65 18.79C31.56 19.9 31.37 20.76 31.06 21.49C30.99 21.66 30.73 22.21 30.47 22.21C30.39 22.21 30.15 22.18 29.71 21.89C28.68 21.17 27.93 20.17 27.05 18.92C24.06 14.7 21.55 10.04 19.37 4.69C18.57 2.71 17.07 1.61 15.14 1.58C13.01 1.55 11.09 1.53 9.26 1.53C7.26 1.53 5.4 1.55 3.58 1.59C2.03 1.61 0.96 2.08 0.39 2.97C-0.17 3.86 -0.13 5.03 0.5 6.46C5.62 17.82 10.25 26.08 15.53 33.25C19.23 38.26 22.95 41.74 27.21 44.17C31.71 46.75 36.75 48 42.62 48C43.29 48 43.98 47.98 44.67 47.95C48.08 47.78 49.34 46.54 49.5 43.22C49.58 41.53 49.76 39.75 50.6 38.23C51.13 37.28 51.62 37.28 51.78 37.28C52.09 37.28 52.48 37.42 52.89 37.68C53.63 38.17 54.27 38.82 54.79 39.39C55.28 39.92 55.77 40.47 56.25 41.01C57.3 42.19 58.39 43.4 59.52 44.56C62 47.08 64.73 48.19 67.87 47.95L79.58 47.95C79.61 47.95 79.64 47.95 79.66 47.95C80.83 47.87 81.84 47.22 82.44 46.17C83.17 44.86 83.16 43.21 82.39 41.72C81.53 40.04 80.41 38.61 79.42 37.43Z" fill="#FFFFFF" fill-opacity="1.000000" fill-rule="nonzero"/>
</svg>
