<svg width="24.000000" height="13.875000" viewBox="0 0 24 13.875" fill="none" xmlns="http://www.w3.org/2000/svg" xmlns:xlink="http://www.w3.org/1999/xlink">
	<desc>
			Created with Pixso.
	</desc>
	<defs/>
	<path id="Vector" d="M22.95 10.82C22.43 10.19 21.83 9.63 21.26 9.08C21.06 8.89 20.85 8.69 20.64 8.49C20.06 7.92 20.04 7.71 20.5 7.06C20.82 6.6 21.16 6.16 21.49 5.73C21.78 5.33 22.09 4.92 22.39 4.52L22.45 4.43C23.01 3.66 23.6 2.85 23.91 1.88C23.99 1.62 24.07 1.24 23.88 0.92C23.68 0.61 23.31 0.51 23.04 0.47C22.91 0.45 22.78 0.44 22.66 0.44L18.97 0.44L18.94 0.44C18.38 0.44 18 0.71 17.79 1.25C17.58 1.76 17.35 2.32 17.1 2.84C16.58 3.88 15.93 5.08 14.99 6.08L14.95 6.13C14.83 6.25 14.71 6.38 14.62 6.38C14.6 6.38 14.59 6.38 14.57 6.37C14.37 6.29 14.25 5.82 14.25 5.6C14.25 5.6 14.25 5.6 14.25 5.6L14.25 1.32C14.25 1.31 14.25 1.29 14.25 1.28C14.15 0.59 13.94 0.16 13.16 0C13.14 0 13.12 0 13.09 0L9.25 0C8.63 0 8.28 0.25 7.96 0.63C7.87 0.73 7.69 0.94 7.78 1.2C7.87 1.46 8.17 1.52 8.26 1.53C8.75 1.63 9.01 1.92 9.09 2.43C9.23 3.32 9.25 4.28 9.14 5.42C9.12 5.75 9.06 6 8.97 6.21C8.95 6.25 8.88 6.42 8.8 6.42C8.78 6.42 8.71 6.41 8.58 6.32C8.29 6.12 8.07 5.82 7.82 5.46C6.95 4.25 6.23 2.9 5.6 1.35C5.36 0.78 4.93 0.46 4.37 0.46C3.76 0.44 3.2 0.44 2.67 0.44C2.09 0.44 1.56 0.45 1.03 0.46C0.58 0.46 0.27 0.6 0.11 0.85C-0.05 1.11 -0.04 1.46 0.14 1.86C1.62 5.14 2.96 7.53 4.49 9.6C5.55 11.06 6.63 12.06 7.86 12.76C9.16 13.5 10.62 13.87 12.32 13.87C12.51 13.87 12.71 13.86 12.91 13.85C13.89 13.81 14.26 13.45 14.3 12.49C14.33 12 14.38 11.49 14.62 11.04C14.77 10.77 14.91 10.77 14.96 10.77C15.05 10.77 15.16 10.81 15.28 10.89C15.5 11.03 15.68 11.21 15.83 11.38C15.98 11.53 16.11 11.69 16.25 11.85C16.56 12.19 16.87 12.54 17.2 12.87C17.92 13.6 18.71 13.92 19.61 13.85L23 13.85C23.01 13.85 23.01 13.85 23.02 13.85C23.36 13.83 23.65 13.64 23.82 13.34C24.03 12.96 24.03 12.48 23.81 12.06C23.56 11.57 23.24 11.16 22.95 10.82Z" fill="#8B8E9A" fill-opacity="1.000000" fill-rule="nonzero"/>
</svg>
