<svg width="156.734375" height="56.000000" viewBox="0 0 156.734 56" fill="none" xmlns="http://www.w3.org/2000/svg" xmlns:xlink="http://www.w3.org/1999/xlink">
	<desc>
			Created with Pixso.
	</desc>
	<defs/>
	<path id="Vector" d="M17.74 38.03L17.74 56L12.12 56L12.12 37.84L0 5.26L6.1 5.26L15.03 30.38L25.33 0L30.92 0L17.74 38.03ZM100.82 50.28C99.25 52.25 97.26 53.62 94.35 53.62C87.35 53.62 83.5 47.64 83.5 36.58C83.5 23.31 88.47 16.85 95.65 16.85C97.35 16.85 99.12 17.42 100.17 18.2L100.17 2.37L105.72 2.37L105.72 53.1L101.6 53.1L101.18 50.28L100.82 50.28ZM51.09 28.21L51.09 45.03C51.09 48.42 51.45 51.4 51.72 53.1L47.04 53.1C46.84 52.35 46.62 51.21 46.55 50.28L46.19 50.28C44.62 52.25 42.65 53.62 39.52 53.62C34.42 53.62 30.92 49.79 30.92 42.76C30.92 35.08 34.84 30.27 44.85 30.27L45.63 30.27L45.63 28.14C45.63 23.44 44.06 21.47 40.93 21.47C38.11 21.47 35.69 22.95 33.83 24.58L32.78 19.67C34.42 18.33 37.68 16.85 41.29 16.85C47.6 16.85 51.09 19.54 51.09 28.21ZM69.11 21.82C66.76 21.82 64.79 23.6 63.51 25.36L63.51 53.1L57.96 53.1L57.96 17.28L63.51 17.28L63.51 20.39L63.85 20.39C64.85 19.05 67.54 16.85 70.87 16.85C75.55 16.85 78.04 19.47 78.04 24.94L78.04 53.1L72.44 53.1L72.44 25.43C72.44 22.75 71.23 21.82 69.11 21.82ZM130.48 46.46L131.75 50.71C129.49 52.48 126.71 53.62 123.16 53.62C115.79 53.62 111.25 47.73 111.25 36.71C111.25 25.23 114.45 16.85 122.04 16.85C127.99 16.85 131.89 21.31 131.89 33.45L131.89 36.52L117 36.52C117 44.6 119.26 48.85 123.67 48.85C126.78 48.85 129.07 47.44 130.48 46.46ZM145.65 30.34L150.55 17.35L155.94 17.35L149.28 34.1L156.73 53.1L150.98 53.1L145.45 38.35L140.05 53.1L134.59 53.1L142.05 34.59L135.31 17.35L141.04 17.35L145.65 30.34ZM95 48.92C97.78 48.92 99.25 47.57 100.17 46.17L100.17 23.1C99.05 21.96 97.84 21.4 95.99 21.4C91.53 21.4 89.41 28.14 89.41 35.44C89.41 43.82 90.95 48.92 95 48.92ZM126.22 31.97C126.22 25.85 125.21 21.4 122.04 21.4C118.64 21.4 117.43 25.59 117.07 31.97L126.22 31.97ZM40.8 48.92C42.72 48.92 44.62 47.64 45.63 46.1L45.63 34.46L44.98 34.46C38.11 34.46 36.61 37.5 36.61 42.11C36.61 46.23 37.95 48.92 40.8 48.92Z" fill="#FFFFFF" fill-opacity="1.000000" fill-rule="evenodd"/>
</svg>
