<svg width="320.000000" height="320.000000" viewBox="0 0 320 320" fill="none" xmlns="http://www.w3.org/2000/svg" xmlns:xlink="http://www.w3.org/1999/xlink">
	<desc>
			Created with Pixso.
	</desc>
	<defs/>
	<path id="Polygon 7" d="M150 5.77L31.43 74.22C25.24 77.79 21.43 84.39 21.43 91.54L21.43 228.45C21.43 235.6 25.24 242.2 31.43 245.77L150 314.22C156.18 317.79 163.81 317.79 170 314.22L288.56 245.77C294.75 242.2 298.56 235.6 298.56 228.45L298.56 91.54C298.56 84.39 294.75 77.79 288.56 74.22L170 5.77C163.81 2.2 156.18 2.2 150 5.77Z" fill="#FAC602" fill-opacity="1.000000" fill-rule="evenodd"/>
	<path id="Vector" d="M99.74 170.03L99.74 188L94.12 188L94.12 169.84L82 137.26L88.1 137.26L97.03 162.38L107.33 132L112.93 132L99.74 170.03ZM182.82 182.28C181.25 184.25 179.26 185.62 176.35 185.62C169.35 185.62 165.5 179.64 165.5 168.58C165.5 155.31 170.47 148.85 177.65 148.85C179.35 148.85 181.12 149.42 182.17 150.2L182.17 134.37L187.72 134.37L187.72 185.1L183.6 185.1L183.18 182.28L182.82 182.28ZM133.09 160.21L133.09 177.03C133.09 180.43 133.45 183.4 133.72 185.1L129.04 185.1C128.84 184.35 128.62 183.21 128.55 182.28L128.19 182.28C126.62 184.25 124.65 185.62 121.52 185.62C116.42 185.62 112.93 181.79 112.93 174.76C112.93 167.08 116.84 162.27 126.85 162.27L127.63 162.27L127.63 160.14C127.63 155.44 126.06 153.47 122.93 153.47C120.11 153.47 117.69 154.95 115.84 156.58L114.78 151.67C116.42 150.33 119.68 148.85 123.29 148.85C129.6 148.85 133.09 151.54 133.09 160.21ZM151.11 153.82C148.76 153.82 146.79 155.6 145.51 157.36L145.51 185.1L139.96 185.1L139.96 149.28L145.51 149.28L145.51 152.39L145.85 152.39C146.85 151.05 149.54 148.85 152.87 148.85C157.55 148.85 160.04 151.47 160.04 156.94L160.04 185.1L154.44 185.1L154.44 157.43C154.44 154.75 153.23 153.82 151.11 153.82ZM212.48 178.46L213.75 182.71C211.49 184.48 208.71 185.62 205.16 185.62C197.79 185.62 193.25 179.73 193.25 168.71C193.25 157.23 196.45 148.85 204.04 148.85C209.99 148.85 213.89 153.31 213.89 165.45L213.89 168.52L199 168.52C199 176.6 201.26 180.85 205.67 180.85C208.78 180.85 211.07 179.44 212.48 178.46ZM227.65 162.34L232.55 149.35L237.94 149.35L231.28 166.1L238.73 185.1L232.98 185.1L227.45 170.35L222.05 185.1L216.59 185.1L224.05 166.59L217.31 149.35L223.04 149.35L227.65 162.34ZM177 180.92C179.78 180.92 181.25 179.57 182.17 178.17L182.17 155.1C181.05 153.96 179.84 153.4 177.99 153.4C173.53 153.4 171.41 160.14 171.41 167.44C171.41 175.82 172.95 180.92 177 180.92ZM208.22 163.97C208.22 157.85 207.21 153.4 204.04 153.4C200.64 153.4 199.43 157.59 199.07 163.97L208.22 163.97ZM122.8 180.92C124.72 180.92 126.62 179.64 127.63 178.1L127.63 166.46L126.98 166.46C120.11 166.46 118.61 169.5 118.61 174.11C118.61 178.23 119.95 180.92 122.8 180.92Z" fill="#FFFFFF" fill-opacity="1.000000" fill-rule="evenodd"/>
</svg>
