<svg width="87.062500" height="17.937500" viewBox="0 0 87.0625 17.9375" fill="none" xmlns="http://www.w3.org/2000/svg" xmlns:xlink="http://www.w3.org/1999/xlink">
	<desc>
			Created with Pixso.
	</desc>
	<defs/>
	<path id="Yarkima" d="M35.64 17.73L35.64 0L39.78 0L39.78 9.53L43.24 5.71L47.83 5.71L43.14 10.69L48.34 17.73L43.48 17.73L40.46 13.53L39.78 14.26L39.78 17.73L35.64 17.73ZM48.08 2.31C48.08 1.7 48.28 1.2 48.69 0.79C49.1 0.38 49.68 0.17 50.45 0.17C51.21 0.17 51.8 0.38 52.21 0.79C52.61 1.2 52.82 1.7 52.82 2.31C52.82 2.92 52.61 3.42 52.19 3.84Q52.14 3.89 52.09 3.94Q51.49 4.46 50.44 4.46Q49.41 4.46 48.82 3.96Q48.75 3.9 48.69 3.84C48.28 3.42 48.08 2.92 48.08 2.31ZM5.8 17.73L5.8 11.65L0 0.67L4.71 0.67L7.65 6.44C7.75 6.64 7.83 6.84 7.91 7.04C7.98 7.23 8.06 7.43 8.13 7.64L8.2 7.64Q8.3 7.33 8.41 7.05Q8.53 6.76 8.69 6.44L11.67 0.67L15.76 0.67L10.1 11.46L10.1 17.73L5.8 17.73ZM13.65 14.21Q13.65 13.01 14.2 12.16Q14.57 11.58 15.21 11.17Q16.76 10.14 19.17 10.14L21.56 10.14L21.56 9.53C21.56 9.06 21.44 8.68 21.19 8.4Q20.84 7.96 19.95 7.96Q19.06 7.96 18.67 8.32Q18.53 8.46 18.44 8.62Q18.3 8.89 18.3 9.21L18.3 9.45L14.3 9.44L14.3 9.21Q14.3 8.58 14.53 8.03Q14.91 7.1 15.93 6.44Q17.56 5.39 20.17 5.39C21.93 5.39 23.29 5.73 24.25 6.4Q24.63 6.67 24.91 7.01Q25.69 7.98 25.69 9.59L25.69 15.06C25.69 15.54 25.74 16 25.83 16.43C25.93 16.87 26.05 17.25 26.21 17.55L26.21 17.73L22.12 17.73C22.03 17.54 21.94 17.32 21.87 17.04C21.81 16.76 21.76 16.5 21.73 16.23Q21.39 16.89 20.36 17.41Q19.34 17.93 17.83 17.93Q16.14 17.93 15 17.14L15 17.14Q14.91 17.08 14.82 17.01Q14.57 16.81 14.37 16.57Q13.65 15.67 13.65 14.21ZM74.5 14.21Q74.5 13.01 75.05 12.16Q75.42 11.58 76.05 11.17Q77.61 10.14 80.01 10.14L82.41 10.14L82.41 9.53C82.41 9.06 82.28 8.68 82.04 8.4Q81.69 7.96 80.8 7.96Q79.91 7.96 79.52 8.32Q79.38 8.46 79.29 8.62Q79.15 8.89 79.15 9.21L79.15 9.45L75.15 9.44L75.15 9.21Q75.15 8.58 75.38 8.03Q75.76 7.1 76.78 6.44Q78.41 5.39 81.02 5.39Q83.66 5.39 85.1 6.4Q85.48 6.67 85.75 7.01Q86.54 7.98 86.54 9.59L86.54 15.06Q86.54 15.78 86.68 16.43Q86.82 17.09 87.06 17.55L87.06 17.73L82.97 17.73Q82.83 17.46 82.72 17.04Q82.63 16.62 82.58 16.23Q82.24 16.89 81.21 17.41Q80.19 17.93 78.68 17.93Q76.99 17.93 75.85 17.14L75.84 17.14Q75.75 17.08 75.67 17.01Q75.41 16.81 75.21 16.57Q74.5 15.67 74.5 14.21ZM27.45 17.73L27.45 5.73L31.5 5.73L31.54 7.04L31.6 7.04C31.83 6.59 32.17 6.21 32.61 5.9Q33.02 5.6 33.48 5.49Q33.75 5.42 34.04 5.42Q34.28 5.42 34.51 5.46L34.51 5.46L34.51 5.46Q34.54 5.47 34.57 5.48Q34.82 5.54 34.93 5.59L34.93 8.96Q34.73 8.89 34.48 8.87Q34.24 8.83 33.93 8.83C33.46 8.83 33 8.99 32.57 9.29C32.15 9.59 31.84 9.97 31.64 10.45L31.64 17.73L27.45 17.73ZM54.22 17.73L54.22 5.73L58.22 5.73L58.26 7.14L58.33 7.14Q58.51 6.85 58.74 6.61Q59.17 6.17 59.76 5.9C60.38 5.61 61.05 5.46 61.76 5.46C62.62 5.46 63.36 5.65 64 6.02Q64.48 6.29 64.82 6.68Q65.15 7.07 65.35 7.57L65.39 7.57Q65.56 7.28 65.76 7.04L65.76 7.04Q66.29 6.42 67.09 6.02Q67.75 5.7 68.45 5.57L68.45 5.56Q68.94 5.46 69.44 5.46Q70.71 5.46 71.64 6.03Q72.04 6.26 72.37 6.6Q73.5 7.73 73.5 10.38L73.5 17.73L69.34 17.73L69.34 10.38C69.34 9.77 69.21 9.32 68.96 9.02Q68.89 8.93 68.81 8.86L68.81 8.86Q68.46 8.56 67.85 8.56Q67.43 8.56 67.08 8.71L67.08 8.71Q66.88 8.79 66.7 8.92Q66.21 9.3 65.93 9.98L65.93 17.73L61.78 17.73L61.78 10.42C61.78 9.78 61.65 9.32 61.39 9.02C61.14 8.71 60.76 8.56 60.25 8.56Q59.78 8.56 59.41 8.75Q59.25 8.82 59.11 8.92C58.8 9.16 58.55 9.51 58.37 9.98L58.37 17.73L54.22 17.73ZM48.36 17.73L48.36 5.73L52.53 5.73L52.53 17.73L48.36 17.73ZM17.78 13.84Q17.78 14.39 18.03 14.77L18.03 14.77Q18.1 14.87 18.18 14.96L18.19 14.96Q18.58 15.39 19.42 15.39C20.06 15.39 20.57 15.18 20.96 14.78C21.36 14.39 21.56 13.89 21.56 13.31L21.56 12.39L19.99 12.39C19.23 12.39 18.67 12.51 18.31 12.75Q18.13 12.88 18.01 13.05Q17.78 13.36 17.78 13.84ZM78.63 13.84Q78.63 14.39 78.88 14.77Q78.95 14.87 79.03 14.96L79.03 14.96Q79.43 15.39 80.27 15.39C80.91 15.39 81.42 15.18 81.81 14.78C82.21 14.39 82.41 13.89 82.41 13.31L82.41 12.39L80.83 12.39C80.08 12.39 79.52 12.51 79.16 12.75Q78.98 12.88 78.86 13.05Q78.63 13.36 78.63 13.84Z" fill="#191A26" fill-opacity="1.000000" fill-rule="evenodd"/>
</svg>
