<svg width="122.296875" height="12.289062" viewBox="0 0 122.297 12.2891" fill="none" xmlns="http://www.w3.org/2000/svg" xmlns:xlink="http://www.w3.org/1999/xlink">
	<desc>
			Created with Pixso.
	</desc>
	<defs/>
	<path id="© 2024 YarKiMa" d="M99.35 1.01C99.35 1.57 98.86 2.02 98.28 2.02C97.69 2.02 97.2 1.57 97.2 1.01C97.2 0.46 97.69 0 98.28 0C98.86 0 99.35 0.46 99.35 1.01ZM12 6.28C12.01 9.59 9.32 12.28 6 12.28C2.69 12.28 -0.01 9.59 0 6.28C0.01 2.97 2.69 0.28 6 0.28C9.32 0.28 11.99 2.97 12 6.28ZM26.01 12.1L18.35 12.1L18.35 10.82L22.29 6.75C23.54 5.42 24.16 4.68 24.16 3.66C24.16 2.5 23.26 1.77 22.07 1.77C20.82 1.77 20.01 2.58 20.02 3.83L18.34 3.83C18.34 1.71 19.93 0.3 22.11 0.3C24.3 0.3 25.82 1.73 25.82 3.6C25.82 4.91 25.22 5.93 23.09 8.08L20.77 10.51L20.77 10.59L26.01 10.59L26.01 12.1ZM36.32 6.28C36.32 10.1 34.75 12.29 32.06 12.29C29.36 12.28 27.79 10.09 27.79 6.28C27.8 2.5 29.39 0.3 32.06 0.3C34.72 0.3 36.32 2.5 36.32 6.28ZM45.84 12.1L38.18 12.1L38.18 10.82L42.12 6.75C43.37 5.42 43.98 4.68 43.98 3.66C43.98 2.5 43.08 1.77 41.9 1.77C40.65 1.77 39.84 2.58 39.85 3.83L38.17 3.83C38.17 1.71 39.76 0.3 41.94 0.3C44.13 0.3 45.65 1.73 45.65 3.6C45.65 4.91 45.05 5.93 42.91 8.08L40.6 10.51L40.6 10.59L45.84 10.59L45.84 12.1ZM52.85 9.82L47.34 9.82L47.34 8.41L52.37 0.46L54.53 0.46L54.53 8.33L56.07 8.33L56.07 9.82L54.53 9.82L54.53 12.1L52.85 12.1L52.85 9.82ZM65.45 7.53L61.23 0.46L63.22 0.46L66.26 5.75L66.39 5.75L69.43 0.46L71.42 0.46L67.2 7.53L67.2 12.1L65.45 12.1L65.45 7.53ZM88.3 12.1L86.54 12.1L86.54 0.46L88.3 0.46L88.3 6.02L88.44 6.02L93.32 0.46L95.53 0.46L90.83 5.7L95.55 12.1L93.43 12.1L89.67 6.9L88.3 8.48L88.3 12.1ZM101.38 12.1L101.38 0.46L103.51 0.46L107.21 9.51L107.35 9.51L111.05 0.46L113.19 0.46L113.19 12.1L111.51 12.1L111.51 3.67L111.41 3.67L107.97 12.08L106.59 12.08L103.16 3.67L103.05 3.67L103.05 12.1L101.38 12.1ZM1.51 6.28C1.5 8.75 3.52 10.77 6 10.77C8.49 10.77 10.5 8.76 10.49 6.28C10.48 3.8 8.48 1.79 6 1.79C3.53 1.79 1.51 3.81 1.51 6.28ZM29.53 6.28C29.53 9.19 30.48 10.77 32.06 10.77C33.62 10.77 34.57 9.19 34.57 6.28C34.57 3.39 33.62 1.79 32.06 1.79C30.49 1.79 29.54 3.39 29.53 6.28ZM49.18 8.33L52.87 8.33L52.87 2.55L52.78 2.55L49.18 8.25L49.18 8.33ZM6.05 9.6C4.22 9.6 2.73 8.11 2.73 6.28C2.73 4.45 4.22 2.96 6.05 2.96C7.64 2.96 8.98 4.09 9.18 5.58L7.7 5.58C7.56 4.88 6.85 4.38 6.05 4.38C5 4.38 4.15 5.23 4.15 6.28C4.15 7.32 5 8.17 6.05 8.17C6.85 8.17 7.46 7.67 7.61 6.97L9.09 6.97C8.89 8.47 7.64 9.6 6.05 9.6ZM82.11 12.1L80.41 12.1L80.41 3.37L82.06 3.37L82.06 4.76L82.15 4.76C82.46 3.82 83.34 3.24 84.36 3.24C84.58 3.24 84.91 3.26 85.09 3.28L85.09 4.91C84.95 4.86 84.55 4.8 84.2 4.8C83 4.8 82.11 5.62 82.11 6.77L82.11 12.1ZM76.59 10.91C76.26 11.56 75.45 12.29 74.01 12.29C72.35 12.29 71.06 11.35 71.06 9.63C71.06 7.65 72.75 7.22 74.4 7.02C75.97 6.84 76.61 6.85 76.61 6.23L76.61 6.19C76.61 5.21 76.05 4.63 74.95 4.63C73.81 4.63 73.17 5.23 72.92 5.85L71.32 5.48C71.89 3.89 73.35 3.26 74.93 3.26C76.31 3.26 78.31 3.76 78.31 6.3L78.31 12.1L76.65 12.1L76.65 10.91L76.59 10.91ZM120.57 10.91C120.24 11.56 119.43 12.29 117.99 12.29C116.33 12.29 115.04 11.35 115.04 9.63C115.04 7.65 116.73 7.22 118.38 7.02C119.95 6.84 120.59 6.85 120.59 6.23L120.59 6.19C120.59 5.21 120.03 4.63 118.93 4.63C117.79 4.63 117.15 5.23 116.9 5.85L115.3 5.48C115.87 3.89 117.33 3.26 118.91 3.26C120.29 3.26 122.29 3.76 122.29 6.3L122.29 12.1L120.63 12.1L120.63 10.91L120.57 10.91ZM99.12 12.1L97.42 12.1L97.42 3.37L99.12 3.37L99.12 12.1ZM72.72 9.66C72.72 10.5 73.41 10.92 74.38 10.92C75.79 10.92 76.61 9.98 76.61 8.95L76.61 7.82C76.37 8.07 75.06 8.22 74.51 8.29C73.53 8.42 72.72 8.75 72.72 9.66ZM116.7 9.66C116.7 10.5 117.39 10.92 118.35 10.92C119.77 10.92 120.59 9.98 120.59 8.95L120.59 7.82C120.35 8.07 119.04 8.22 118.49 8.29C117.51 8.42 116.7 8.75 116.7 9.66Z" fill="#8B8E9A" fill-opacity="1.000000" fill-rule="evenodd"/>
</svg>
