<svg width="24.000000" height="24.000000" viewBox="0 0 24 24" fill="none" xmlns="http://www.w3.org/2000/svg" xmlns:xlink="http://www.w3.org/1999/xlink">
	<desc>
			Created with Pixso.
	</desc>
	<defs>
		<clipPath id="clip92_31476">
			<rect id="воин" width="24.000000" height="24.000000" fill="white" fill-opacity="0"/>
		</clipPath>
	</defs>
	<rect id="воин" width="24.000000" height="24.000000" fill="#FFFFFF" fill-opacity="0"/>
	<g clip-path="url(#clip92_31476)">
		<path id="Vector" d="M5.16 10.71C5.45 10.42 5.92 10.42 6.22 10.71L13.28 17.78C13.57 18.07 13.57 18.54 13.28 18.84L12.08 20.03C11.79 20.32 11.32 20.32 11.02 20.03L3.96 12.96C3.67 12.67 3.67 12.2 3.96 11.9L5.16 10.71ZM15 9L9.75 14.25M6.37 15.37L3.21 18.53C3.07 18.67 3 18.85 3 19.06C3 19.25 3.07 19.45 3.21 19.59L4.4 20.78C4.47 20.85 4.55 20.9 4.64 20.94C4.74 20.98 4.83 21 4.93 21C5.03 21 5.13 20.98 5.22 20.94C5.31 20.9 5.39 20.85 5.46 20.78L8.62 17.62M7.73 12.22L14.25 3.75L20.25 3.75L20.25 9.75L11.77 16.27" stroke="#8E35FF" stroke-opacity="1.000000" stroke-width="1.500000" stroke-linejoin="round"/>
	</g>
</svg>
