<svg width="24.000000" height="24.000000" viewBox="0 0 24 24" fill="none" xmlns="http://www.w3.org/2000/svg" xmlns:xlink="http://www.w3.org/1999/xlink">
	<desc>
			Created with Pixso.
	</desc>
	<defs>
		<clipPath id="clip92_31460">
			<rect id="игра" width="24.000000" height="24.000000" fill="white" fill-opacity="0"/>
		</clipPath>
	</defs>
	<rect id="игра" width="24.000000" height="24.000000" fill="#FFFFFF" fill-opacity="0"/>
	<g clip-path="url(#clip92_31460)">
		<path id="Vector" d="M17.5 17.5C20 21 23.94 18.41 23 15C21.57 9.87 20.8 7.01 20.39 5.5C20.16 4.62 19.35 4 18.43 4L5.56 4C4.64 4 3.84 4.62 3.62 5.51C2.78 8.86 2.03 11.8 1.14 15C0.19 18.41 4.14 21 6.64 17.5M18 8.5L18.01 8.5M16.48 7L16.5 7M16.48 10L16.5 10M15 8.5L15.01 8.5M7 7L7 10M5.5 8.5L8.5 8.5M10 14C10 12.89 9.1 12 8 12C6.89 12 6 12.89 6 14C6 15.1 6.89 16 8 16C9.1 16 10 15.1 10 14ZM18 14C18 12.89 17.1 12 16 12C14.89 12 14 12.89 14 14C14 15.1 14.89 16 16 16C17.1 16 18 15.1 18 14Z" stroke="#8E35FF" stroke-opacity="1.000000" stroke-width="1.500000" stroke-linejoin="round"/>
	</g>
</svg>
