<svg width="254.878906" height="16.000000" viewBox="0 0 254.879 16" fill="none" xmlns="http://www.w3.org/2000/svg" xmlns:xlink="http://www.w3.org/1999/xlink">
	<desc>
			Created with Pixso.
	</desc>
	<defs/>
	<path id="Политика конфиденциальности" d="M119.17 4.56Q118.03 3.59 116.2 3.43L116.2 -0.01L114.62 -0.01L114.62 3.43Q112.53 3.57 111.4 4.68Q111.37 4.71 111.34 4.75Q111.1 4.99 110.91 5.27Q110.2 6.32 110.2 7.85Q110.2 9.11 110.74 10.07Q110.92 10.39 111.16 10.68Q111.61 11.21 112.26 11.58Q113.24 12.15 114.59 12.26L114.59 15.99L116.2 15.99L116.2 12.26Q118.22 12.1 119.35 11.01Q119.39 10.96 119.43 10.92Q119.7 10.65 119.9 10.33Q120.57 9.31 120.57 7.85Q120.57 6.42 119.92 5.42Q119.7 5.07 119.39 4.77Q119.29 4.66 119.17 4.56ZM1.51 0.73L1.51 12.15L3.24 12.15L3.24 2.21L8.51 2.21L8.51 12.15L10.22 12.15L10.22 0.73L1.51 0.73ZM19.5 11.05Q20.52 9.9 20.52 7.83Q20.52 6.39 20 5.4Q19.63 4.69 19.05 4.22Q18.83 4.04 18.58 3.89Q18.52 3.86 18.47 3.83Q17.61 3.37 16.49 3.37Q15.06 3.37 14.08 4.03Q13.78 4.25 13.51 4.53Q13.49 4.55 13.48 4.57Q12.43 5.72 12.43 7.83Q12.43 9.26 12.95 10.26Q13.33 11 13.93 11.48Q14.13 11.65 14.37 11.78Q14.48 11.85 14.59 11.9Q15.41 12.31 16.44 12.31Q17.82 12.31 18.78 11.68Q19.13 11.45 19.42 11.14Q19.46 11.1 19.5 11.05ZM75.23 4.08Q74.43 3.37 72.81 3.37Q71.95 3.37 71.15 3.58Q70.36 3.8 69.76 4.12L70.3 5.35Q70.86 5.08 71.47 4.89Q71.61 4.84 71.76 4.81Q72.23 4.69 72.73 4.69Q73.5 4.69 73.93 5.08Q73.94 5.08 73.94 5.09Q74.38 5.48 74.38 6.42L74.38 6.91L72.91 6.95Q70.84 7.01 69.85 7.7Q69.45 7.98 69.21 8.36Q68.86 8.92 68.86 9.7Q68.86 10.87 69.44 11.5Q69.53 11.6 69.63 11.68Q69.76 11.78 69.9 11.87Q70.59 12.31 71.56 12.31Q72.65 12.31 73.26 11.98Q73.88 11.66 74.44 10.95L74.51 10.95L74.84 12.15L76.04 12.15L76.04 6.31Q76.04 4.88 75.33 4.17Q75.28 4.12 75.23 4.08ZM97.56 11.05Q98.59 9.9 98.59 7.83Q98.59 6.39 98.06 5.4Q97.69 4.69 97.12 4.22Q96.89 4.04 96.64 3.89Q96.59 3.86 96.53 3.83Q95.67 3.37 94.55 3.37Q93.12 3.37 92.15 4.03Q91.84 4.25 91.58 4.53Q91.56 4.55 91.54 4.57Q90.49 5.72 90.49 7.83Q90.49 9.26 91.01 10.26Q91.39 11 91.99 11.48Q92.2 11.65 92.43 11.78Q92.54 11.85 92.65 11.9Q93.48 12.31 94.51 12.31Q95.88 12.31 96.84 11.68Q97.19 11.45 97.48 11.14Q97.52 11.1 97.56 11.05ZM148.12 3.96Q147.25 3.37 145.98 3.37Q144.91 3.37 144.09 3.82Q144.01 3.86 143.94 3.91Q143.75 4.02 143.58 4.16Q142.96 4.66 142.58 5.45Q142.09 6.46 142.09 7.91Q142.09 9.35 142.63 10.33Q142.96 10.95 143.45 11.37Q143.75 11.63 144.11 11.82Q145.07 12.31 146.33 12.31Q147.24 12.31 147.9 12.17Q148.55 12.02 149.21 11.74L149.21 10.33Q148.52 10.63 147.88 10.78Q147.23 10.94 146.39 10.94Q145.41 10.94 144.78 10.46Q144.65 10.36 144.53 10.23Q143.87 9.53 143.83 8.2L149.63 8.2L149.63 7.27Q149.63 5.65 148.84 4.64Q148.75 4.52 148.65 4.42Q148.41 4.16 148.12 3.96ZM188.21 4.08Q187.4 3.37 185.79 3.37Q184.92 3.37 184.13 3.58Q183.34 3.8 182.73 4.12L183.27 5.35Q183.83 5.08 184.44 4.89Q184.59 4.84 184.73 4.81Q185.21 4.69 185.71 4.69Q186.48 4.69 186.9 5.08Q186.91 5.08 186.92 5.09Q187.35 5.48 187.35 6.42L187.35 6.91L185.88 6.95Q183.82 7.01 182.83 7.7Q182.42 7.98 182.19 8.36Q181.83 8.92 181.83 9.7Q181.83 10.87 182.42 11.5Q182.5 11.6 182.6 11.68Q182.73 11.78 182.87 11.87Q183.57 12.31 184.54 12.31Q185.63 12.31 186.24 11.98Q186.86 11.66 187.42 10.95L187.48 10.95L187.82 12.15L189.02 12.15L189.02 6.31Q189.02 4.88 188.3 4.17Q188.26 4.12 188.21 4.08ZM227.04 11.05Q228.06 9.9 228.06 7.83Q228.06 6.39 227.54 5.4Q227.16 4.69 226.59 4.22Q226.37 4.04 226.11 3.89Q226.06 3.86 226.01 3.83Q225.14 3.37 224.02 3.37Q222.59 3.37 221.62 4.03Q221.31 4.25 221.05 4.53Q221.03 4.55 221.01 4.57Q219.96 5.72 219.96 7.83Q219.96 9.26 220.48 10.26Q220.87 11 221.46 11.48Q221.67 11.65 221.9 11.78Q222.01 11.85 222.12 11.9Q222.95 12.31 223.98 12.31Q225.35 12.31 226.31 11.68Q226.66 11.45 226.95 11.14Q227 11.1 227.04 11.05ZM231.15 11.67Q232.12 12.31 233.51 12.31Q234.3 12.31 234.84 12.18Q235.35 12.06 235.79 11.82Q235.82 11.8 235.85 11.78L235.85 10.31Q235.39 10.57 234.83 10.73Q234.28 10.89 233.56 10.89Q232.79 10.89 232.27 10.52Q232.04 10.36 231.86 10.12Q231.29 9.35 231.29 7.88Q231.29 5.93 232.23 5.22Q232.77 4.81 233.62 4.81Q234.07 4.81 234.58 4.94Q235.08 5.06 235.53 5.24L236.04 3.86Q235.62 3.67 234.99 3.52Q234.36 3.37 233.64 3.37Q232.46 3.37 231.53 3.84Q231.26 3.97 231.03 4.15Q230.45 4.6 230.07 5.3Q229.55 6.3 229.55 7.89Q229.55 10.18 230.63 11.25Q230.88 11.49 231.15 11.67ZM27.71 12.15L29.42 12.15L29.42 3.53L23.82 3.53Q23.64 6.2 23.36 7.82Q23.08 9.45 22.69 10.18Q22.34 10.82 21.9 10.9Q21.85 10.91 21.79 10.91Q21.48 10.91 21.26 10.82L21.26 12.12Q21.59 12.28 22.17 12.28Q22.66 12.28 23.05 12.09Q23.44 11.91 23.74 11.54Q24.35 10.79 24.71 9.17Q25.07 7.54 25.28 4.89L27.71 4.89L27.71 12.15ZM33.5 8.92Q33.53 8.49 33.53 8.23L33.53 3.53L31.92 3.53L31.92 12.15L33.99 12.15L38.4 5.29Q38.38 5.51 38.35 5.94Q38.33 6.36 38.31 6.81Q38.3 7.26 38.3 7.56L38.3 12.15L39.9 12.15L39.9 3.53L37.83 3.53L33.4 10.41Q33.43 10.2 33.46 9.78Q33.48 9.35 33.5 8.92ZM45.9 4.89L48.72 4.89L48.72 3.53L41.42 3.53L41.42 4.89L44.22 4.89L44.22 12.15L45.9 12.15L45.9 4.89ZM51.83 8.92Q51.85 8.49 51.85 8.23L51.85 3.53L50.24 3.53L50.24 12.15L52.31 12.15L56.72 5.29Q56.7 5.51 56.67 5.94Q56.65 6.36 56.63 6.81Q56.62 7.26 56.62 7.56L56.62 12.15L58.22 12.15L58.22 3.53L56.15 3.53L51.72 10.41Q51.75 10.2 51.78 9.78Q51.8 9.35 51.83 8.92ZM67.85 3.53L66 3.53L62.43 7.72L62.43 3.53L60.73 3.53L60.73 12.15L62.43 12.15L62.43 7.78L66.2 12.15L68.16 12.15L64.25 7.67L67.85 3.53ZM89.69 3.53L87.84 3.53L84.27 7.72L84.27 3.53L82.57 3.53L82.57 12.15L84.27 12.15L84.27 7.78L88.04 12.15L90 12.15L86.09 7.67L89.69 3.53ZM102.27 7.03L102.27 3.53L100.57 3.53L100.57 12.15L102.27 12.15L102.27 8.39L106.52 8.39L106.52 12.15L108.22 12.15L108.22 3.53L106.52 3.53L106.52 7.03L102.27 7.03ZM124.16 8.92Q124.19 8.49 124.19 8.23L124.19 3.53L122.57 3.53L122.57 12.15L124.65 12.15L129.05 5.29Q129.03 5.51 129.01 5.94Q128.98 6.36 128.97 6.81Q128.95 7.26 128.95 7.56L128.95 12.15L130.55 12.15L130.55 3.53L128.49 3.53L124.06 10.41Q124.09 10.2 124.11 9.78Q124.14 9.35 124.16 8.92ZM139.87 10.81L139.87 3.53L134.87 3.53Q134.86 4.09 134.8 4.65Q134.66 6.05 134.28 7.42Q133.75 9.33 132.71 10.81L132.03 10.81L132.03 15.17L133.59 15.17L133.59 12.15L139.55 12.15L139.55 15.17L141.13 15.17L141.13 10.81L139.87 10.81ZM153.27 7.03L153.27 3.53L151.58 3.53L151.58 12.15L153.27 12.15L153.27 8.39L157.53 8.39L157.53 12.15L159.23 12.15L159.23 3.53L157.53 3.53L157.53 7.03L153.27 7.03ZM168.91 15.17L170.51 15.17L170.51 10.81L169.27 10.81L169.27 3.53L167.58 3.53L167.58 10.79L163.42 10.79L163.42 3.53L161.72 3.53L161.72 12.15L168.91 12.15L168.91 15.17ZM173.54 8.92Q173.56 8.49 173.56 8.23L173.56 3.53L171.95 3.53L171.95 12.15L174.02 12.15L178.43 5.29Q178.41 5.51 178.38 5.94Q178.36 6.36 178.34 6.81Q178.33 7.26 178.33 7.56L178.33 12.15L179.93 12.15L179.93 3.53L177.86 3.53L173.43 10.41Q173.47 10.2 173.49 9.78Q173.51 9.35 173.54 8.92ZM196.67 12.15L198.38 12.15L198.38 3.53L192.78 3.53Q192.6 6.2 192.32 7.82Q192.04 9.45 191.65 10.18Q191.3 10.82 190.86 10.9Q190.81 10.91 190.75 10.91Q190.44 10.91 190.22 10.82L190.22 12.12Q190.55 12.28 191.13 12.28Q191.61 12.28 192.01 12.09Q192.4 11.91 192.7 11.54Q193.31 10.79 193.67 9.17Q194.02 7.54 194.24 4.89L196.67 4.89L196.67 12.15ZM207.99 8.11Q207.21 7 204.86 7L202.57 7L202.57 3.53L200.87 3.53L200.87 12.15L204.84 12.15Q206.7 12.15 207.54 11.42Q207.85 11.15 208.05 10.81Q208.38 10.24 208.38 9.48Q208.38 8.66 207.99 8.11ZM212.01 7.03L212.01 3.53L210.31 3.53L210.31 12.15L212.01 12.15L212.01 8.39L216.27 8.39L216.27 12.15L217.96 12.15L217.96 3.53L216.27 3.53L216.27 7.03L212.01 7.03ZM241.21 4.89L244.03 4.89L244.03 3.53L236.73 3.53L236.73 4.89L239.53 4.89L239.53 12.15L241.21 12.15L241.21 4.89ZM247.14 8.92Q247.16 8.49 247.16 8.23L247.16 3.53L245.55 3.53L245.55 12.15L247.62 12.15L252.03 5.29Q252.01 5.51 251.98 5.94Q251.96 6.36 251.94 6.81Q251.93 7.26 251.93 7.56L251.93 12.15L253.53 12.15L253.53 3.53L251.46 3.53L247.03 10.41Q247.07 10.2 247.09 9.78Q247.11 9.35 247.14 8.92ZM144.91 4.95Q145.36 4.68 145.98 4.68Q146.74 4.68 147.2 5.05Q147.33 5.17 147.44 5.31Q147.91 5.94 147.93 6.95L143.87 6.95Q143.96 5.86 144.51 5.27Q144.69 5.08 144.91 4.95ZM14.72 10.1Q14.17 9.29 14.17 7.83Q14.17 6.36 14.71 5.57Q14.85 5.36 15.04 5.21Q15.57 4.78 16.46 4.78Q17.34 4.78 17.88 5.21Q18.07 5.36 18.22 5.57Q18.78 6.36 18.78 7.83Q18.78 9.29 18.22 10.1Q18.07 10.34 17.86 10.5Q17.33 10.92 16.47 10.92Q15.62 10.92 15.09 10.5Q14.88 10.34 14.72 10.1ZM92.78 10.1Q92.23 9.29 92.23 7.83Q92.23 6.36 92.77 5.57Q92.92 5.36 93.1 5.21Q93.63 4.78 94.52 4.78Q95.41 4.78 95.94 5.21Q96.13 5.36 96.28 5.57Q96.84 6.36 96.84 7.83Q96.84 9.29 96.29 10.1Q96.13 10.34 95.92 10.5Q95.39 10.92 94.54 10.92Q93.68 10.92 93.15 10.5Q92.94 10.34 92.78 10.1ZM112.71 5.61Q113.37 4.91 114.62 4.78L114.62 10.92Q113.38 10.79 112.73 10.1Q112.67 10.04 112.62 9.98Q112.61 9.97 112.6 9.96Q111.96 9.16 111.96 7.85Q111.96 6.5 112.62 5.71Q112.66 5.66 112.71 5.61ZM222.26 10.1Q221.7 9.29 221.7 7.83Q221.7 6.36 222.25 5.57Q222.39 5.36 222.57 5.21Q223.1 4.78 223.99 4.78Q224.88 4.78 225.42 5.21Q225.61 5.36 225.75 5.57Q226.31 6.36 226.31 7.83Q226.31 9.29 225.76 10.1Q225.6 10.34 225.39 10.5Q224.87 10.92 224.01 10.92Q223.15 10.92 222.62 10.5Q222.41 10.34 222.26 10.1ZM118.08 10.08Q117.44 10.77 116.2 10.92L116.2 4.79Q117.42 4.94 118.07 5.63Q118.12 5.68 118.17 5.74L118.18 5.74Q118.83 6.52 118.83 7.85Q118.83 9.17 118.18 9.97Q118.13 10.02 118.08 10.08ZM136.01 6.98Q136.25 5.89 136.35 4.84L138.2 4.84L138.2 10.81L134.49 10.81Q135 10.04 135.39 9.05Q135.77 8.05 136.01 6.98ZM71.17 8.53Q71.74 8.1 73.21 8.04L74.36 8.01L74.36 8.76Q74.36 9.69 73.91 10.23Q73.81 10.34 73.7 10.44Q73.55 10.57 73.38 10.66Q72.81 11 72.04 11Q71.4 11 71 10.69Q70.94 10.65 70.89 10.59Q70.6 10.28 70.6 9.72Q70.6 9.26 70.81 8.92Q70.94 8.7 71.17 8.53ZM184.15 8.53Q184.72 8.1 186.18 8.04L187.34 8.01L187.34 8.76Q187.34 9.69 186.88 10.23Q186.79 10.34 186.67 10.44Q186.52 10.57 186.36 10.66Q185.79 11 185.02 11Q184.38 11 183.98 10.69Q183.91 10.65 183.86 10.59Q183.58 10.28 183.58 9.72Q183.58 9.26 183.78 8.92Q183.92 8.7 184.15 8.53ZM206.46 8.82Q206.68 9.09 206.68 9.54Q206.68 10 206.46 10.29Q206.33 10.46 206.14 10.57Q205.59 10.87 204.76 10.87L202.57 10.87L202.57 8.31L204.73 8.31Q205.66 8.31 206.17 8.58Q206.35 8.68 206.46 8.82Z" fill="#8B8E9A" fill-opacity="1.000000" fill-rule="evenodd"/>
</svg>
