<svg width="191.406250" height="15.242188" viewBox="0 0 191.406 15.2422" fill="none" xmlns="http://www.w3.org/2000/svg" xmlns:xlink="http://www.w3.org/1999/xlink">
	<desc>
			Created with Pixso.
	</desc>
	<defs/>
	<path id="Условия использования" d="M5.52 10.03Q6.04 9.27 6.55 8.14L10.17 -0.01L8.36 -0.01L5.83 5.88Q5.74 6.09 5.62 6.41Q5.5 6.73 5.42 6.92L5.35 6.92Q5.28 6.68 5.14 6.38Q5 6.07 4.91 5.88L2.04 -0.01L0.17 -0.01L4.43 8.41Q4.06 9.26 3.58 9.64Q3.12 10.03 2.25 10.03Q1.45 10.03 0.77 9.75Q0.74 9.73 0.71 9.72L0.71 11.34Q1.45 11.58 2.35 11.58Q3.51 11.58 4.26 11.19Q4.36 11.13 4.46 11.07Q5.08 10.69 5.52 10.03ZM12.13 10.94Q13.1 11.58 14.49 11.58Q15.28 11.58 15.82 11.45Q16.33 11.33 16.77 11.08Q16.8 11.07 16.83 11.05L16.83 9.58Q16.36 9.83 15.81 9.99Q15.26 10.15 14.54 10.15Q13.76 10.15 13.25 9.79Q13.02 9.62 12.84 9.39Q12.27 8.62 12.27 7.14Q12.27 5.2 13.2 4.49Q13.74 4.07 14.6 4.07Q15.05 4.07 15.55 4.2Q16.06 4.33 16.51 4.51L17.02 3.13Q16.6 2.94 15.97 2.78Q15.34 2.63 14.62 2.63Q13.43 2.63 12.5 3.1Q12.24 3.24 12 3.42Q11.43 3.86 11.05 4.57Q10.52 5.56 10.52 7.16Q10.52 9.45 11.61 10.51Q11.85 10.75 12.13 10.94ZM34.68 10.32Q35.71 9.16 35.71 7.1Q35.71 5.66 35.19 4.67Q34.81 3.95 34.24 3.48Q34.01 3.3 33.76 3.16Q33.71 3.13 33.66 3.1Q32.79 2.63 31.67 2.63Q30.24 2.63 29.27 3.3Q28.96 3.51 28.7 3.79Q28.68 3.81 28.66 3.83Q27.61 4.99 27.61 7.1Q27.61 8.52 28.13 9.52Q28.52 10.26 29.11 10.74Q29.32 10.91 29.55 11.05Q29.66 11.11 29.77 11.17Q30.6 11.58 31.63 11.58Q33 11.58 33.96 10.95Q34.31 10.72 34.6 10.41Q34.64 10.37 34.68 10.32ZM82.13 10.94Q83.1 11.58 84.49 11.58Q85.28 11.58 85.82 11.45Q86.33 11.33 86.77 11.08Q86.8 11.07 86.83 11.05L86.83 9.58Q86.36 9.83 85.81 9.99Q85.26 10.15 84.54 10.15Q83.76 10.15 83.25 9.79Q83.02 9.62 82.84 9.39Q82.26 8.62 82.26 7.14Q82.26 5.2 83.2 4.49Q83.74 4.07 84.6 4.07Q85.05 4.07 85.55 4.2Q86.06 4.33 86.51 4.51L87.02 3.13Q86.6 2.94 85.97 2.78Q85.34 2.63 84.62 2.63Q83.43 2.63 82.5 3.1Q82.24 3.24 82 3.42Q81.42 3.86 81.05 4.57Q80.52 5.56 80.52 7.16Q80.52 9.45 81.61 10.51Q81.85 10.75 82.13 10.94ZM105.23 10.32Q106.25 9.16 106.25 7.1Q106.25 5.66 105.73 4.67Q105.35 3.95 104.78 3.48Q104.56 3.3 104.3 3.16Q104.25 3.13 104.2 3.1Q103.33 2.63 102.22 2.63Q100.78 2.63 99.81 3.3Q99.5 3.51 99.24 3.79Q99.22 3.81 99.2 3.83Q98.15 4.99 98.15 7.1Q98.15 8.52 98.67 9.52Q99.06 10.26 99.65 10.74Q99.86 10.91 100.1 11.05Q100.2 11.11 100.31 11.17Q101.14 11.58 102.17 11.58Q103.54 11.58 104.51 10.95Q104.85 10.72 105.15 10.41Q105.19 10.37 105.23 10.32ZM132 3.22Q131.07 2.63 129.61 2.63Q128.68 2.63 127.89 2.79Q127.1 2.95 126.39 3.24L126.95 4.52Q127.59 4.26 128.18 4.12Q128.78 3.98 129.47 3.98Q130.89 3.98 131.25 4.59Q131.37 4.8 131.37 5.08Q131.37 5.38 131.24 5.6Q131.07 5.87 130.71 6.02Q130.04 6.28 128.92 6.28L128.01 6.28L128.01 7.58L129.1 7.58Q130.99 7.58 131.42 8.37Q131.55 8.6 131.55 8.91Q131.55 9.26 131.39 9.51Q131.22 9.77 130.88 9.92Q130.22 10.22 129.26 10.22Q128.36 10.22 127.6 10.01Q126.84 9.8 126.3 9.55L126.3 11.02Q127.39 11.58 129.36 11.58Q130.68 11.58 131.54 11.23Q132.39 10.89 132.8 10.3Q133.04 9.96 133.14 9.58Q133.21 9.3 133.21 9Q133.21 8.35 132.95 7.93Q132.82 7.73 132.65 7.57Q132.47 7.4 132.25 7.28Q131.82 7.03 131.29 6.89L131.29 6.82Q132.04 6.62 132.49 6.16Q132.57 6.07 132.63 5.98Q132.94 5.55 132.94 4.91Q132.94 4.35 132.7 3.93Q132.47 3.51 132 3.22ZM141.64 10.32Q142.67 9.16 142.67 7.1Q142.67 5.66 142.14 4.67Q141.77 3.95 141.2 3.48Q140.97 3.3 140.72 3.16Q140.67 3.13 140.61 3.1Q139.75 2.63 138.63 2.63Q137.2 2.63 136.23 3.3Q135.92 3.51 135.66 3.79Q135.64 3.81 135.62 3.83Q134.57 4.99 134.57 7.1Q134.57 8.52 135.09 9.52Q135.47 10.26 136.07 10.74Q136.28 10.91 136.51 11.05Q136.62 11.11 136.73 11.17Q137.56 11.58 138.59 11.58Q139.96 11.58 140.92 10.95Q141.27 10.72 141.56 10.41Q141.6 10.37 141.64 10.32ZM159.73 3.35Q158.92 2.63 157.31 2.63Q156.44 2.63 155.65 2.85Q154.86 3.07 154.25 3.39L154.79 4.62Q155.35 4.35 155.96 4.16Q156.11 4.11 156.25 4.07Q156.73 3.96 157.23 3.96Q158 3.96 158.42 4.34Q158.43 4.35 158.44 4.35Q158.87 4.75 158.87 5.69L158.87 6.17L157.4 6.22Q155.34 6.28 154.35 6.97Q153.94 7.25 153.71 7.62Q153.35 8.18 153.35 8.97Q153.35 10.14 153.94 10.77Q154.02 10.86 154.12 10.94Q154.25 11.05 154.39 11.14Q155.09 11.58 156.06 11.58Q157.14 11.58 157.76 11.25Q158.38 10.92 158.94 10.22L159 10.22L159.34 11.42L160.54 11.42L160.54 5.58Q160.54 4.15 159.82 3.44Q159.78 3.39 159.73 3.35ZM23.9 11.42L25.61 11.42L25.61 2.79L20.01 2.79Q19.84 5.46 19.55 7.09Q19.27 8.71 18.88 9.44Q18.54 10.09 18.1 10.16Q18.04 10.17 17.98 10.17Q17.68 10.17 17.45 10.09L17.45 11.39Q17.79 11.55 18.36 11.55Q18.85 11.55 19.24 11.36Q19.63 11.17 19.93 10.8Q20.54 10.06 20.9 8.43Q21.26 6.81 21.47 4.15L23.9 4.15L23.9 11.42ZM44.56 6Q44.84 5.59 44.84 4.98Q44.84 4.26 44.5 3.81Q44.45 3.75 44.4 3.69Q43.96 3.21 43.21 3Q42.46 2.79 41.52 2.79L37.69 2.79L37.69 11.42L41.52 11.42Q43.43 11.42 44.27 10.7Q44.71 10.33 44.92 9.86Q45.12 9.41 45.12 8.87Q45.12 8.19 44.79 7.75Q44.68 7.61 44.53 7.49Q44.46 7.43 44.38 7.38Q43.84 7 43.12 6.91L43.12 6.84Q43.89 6.7 44.36 6.25Q44.36 6.24 44.37 6.23Q44.48 6.13 44.56 6ZM48.59 8.19Q48.62 7.75 48.62 7.5L48.62 2.79L47 2.79L47 11.42L49.08 11.42L53.48 4.55Q53.47 4.78 53.44 5.2Q53.42 5.62 53.4 6.07Q53.39 6.52 53.39 6.82L53.39 11.42L54.99 11.42L54.99 2.79L52.92 2.79L48.49 9.67Q48.52 9.46 48.55 9.04Q48.57 8.62 48.59 8.19ZM56.35 11.42L58.27 11.42L60.39 8.06L62.25 8.06L62.25 11.42L63.95 11.42L63.95 2.79L60.04 2.79Q58.6 2.79 57.73 3.46Q57.44 3.68 57.24 3.97Q56.86 4.54 56.86 5.37Q56.86 6.12 57.13 6.62Q57.35 7.04 57.69 7.31Q57.76 7.37 57.84 7.42Q58.2 7.66 58.59 7.8Q58.68 7.84 58.78 7.87L56.35 11.42ZM72.11 8.19Q72.14 7.75 72.14 7.5L72.14 2.79L70.52 2.79L70.52 11.42L72.6 11.42L77 4.55Q76.99 4.78 76.96 5.2Q76.94 5.62 76.92 6.07Q76.9 6.52 76.9 6.82L76.9 11.42L78.51 11.42L78.51 2.79L76.44 2.79L72.01 9.67Q72.04 9.46 72.06 9.04Q72.09 8.62 72.11 8.19ZM96.15 11.42L96.15 2.79L88.7 2.79L88.7 11.42L90.39 11.42L90.39 4.17L94.46 4.17L94.46 11.42L96.15 11.42ZM113.43 11.42L115.14 11.42L115.14 2.79L109.55 2.79Q109.37 5.46 109.09 7.09Q108.81 8.71 108.42 9.44Q108.07 10.09 107.63 10.16Q107.57 10.17 107.52 10.17Q107.21 10.17 106.98 10.09L106.98 11.39Q107.32 11.55 107.9 11.55Q108.38 11.55 108.78 11.36Q109.16 11.17 109.46 10.8Q110.07 10.06 110.43 8.43Q110.79 6.81 111 4.15L113.43 4.15L113.43 11.42ZM124.76 7.37Q123.98 6.26 121.63 6.26L119.34 6.26L119.34 2.79L117.64 2.79L117.64 11.42L121.61 11.42Q123.47 11.42 124.31 10.69Q124.62 10.42 124.82 10.08Q125.15 9.51 125.15 8.75Q125.15 7.92 124.76 7.37ZM151.52 6Q151.8 5.59 151.8 4.98Q151.8 4.26 151.46 3.81Q151.41 3.75 151.36 3.69Q150.92 3.21 150.17 3Q149.42 2.79 148.47 2.79L144.65 2.79L144.65 11.42L148.47 11.42Q150.39 11.42 151.23 10.7Q151.66 10.33 151.88 9.86Q152.08 9.41 152.08 8.87Q152.08 8.19 151.75 7.75Q151.64 7.61 151.49 7.49Q151.42 7.43 151.34 7.38Q150.8 7 150.08 6.91L150.08 6.84Q150.85 6.7 151.32 6.25Q151.32 6.24 151.33 6.23Q151.44 6.13 151.52 6ZM164.68 6.3L164.68 2.79L162.99 2.79L162.99 11.42L164.68 11.42L164.68 7.66L168.94 7.66L168.94 11.42L170.63 11.42L170.63 2.79L168.94 2.79L168.94 6.3L164.68 6.3ZM174.72 8.19Q174.75 7.75 174.75 7.5L174.75 2.79L173.13 2.79L173.13 11.42L175.21 11.42L179.61 4.55Q179.6 4.78 179.57 5.2Q179.54 5.62 179.53 6.07Q179.51 6.52 179.51 6.82L179.51 11.42L181.11 11.42L181.11 2.79L179.05 2.79L174.62 9.67Q174.65 9.46 174.67 9.04Q174.7 8.62 174.72 8.19ZM182.47 11.42L184.4 11.42L186.52 8.06L188.38 8.06L188.38 11.42L190.08 11.42L190.08 2.79L186.17 2.79Q184.73 2.79 183.86 3.46Q183.56 3.68 183.37 3.97Q182.99 4.54 182.99 5.37Q182.99 6.12 183.26 6.62Q183.48 7.04 183.82 7.31Q183.89 7.37 183.97 7.42Q184.33 7.66 184.72 7.8Q184.81 7.84 184.91 7.87L182.47 11.42ZM29.9 9.37Q29.35 8.55 29.35 7.1Q29.35 5.62 29.9 4.83Q30.04 4.63 30.22 4.48Q30.75 4.04 31.64 4.04Q32.53 4.04 33.07 4.48Q33.25 4.63 33.4 4.83Q33.96 5.62 33.96 7.1Q33.96 8.55 33.41 9.37Q33.25 9.6 33.04 9.77Q32.52 10.19 31.66 10.19Q30.8 10.19 30.27 9.77Q30.06 9.6 29.9 9.37ZM100.45 9.37Q99.9 8.55 99.9 7.1Q99.9 5.62 100.44 4.83Q100.58 4.63 100.76 4.48Q101.3 4.04 102.19 4.04Q103.07 4.04 103.61 4.48Q103.8 4.63 103.94 4.83Q104.51 5.62 104.51 7.1Q104.51 8.55 103.95 9.37Q103.79 9.6 103.58 9.77Q103.06 10.19 102.2 10.19Q101.34 10.19 100.82 9.77Q100.61 9.6 100.45 9.37ZM136.86 9.37Q136.31 8.55 136.31 7.1Q136.31 5.62 136.86 4.83Q137 4.63 137.18 4.48Q137.71 4.04 138.6 4.04Q139.49 4.04 140.02 4.48Q140.21 4.63 140.36 4.83Q140.92 5.62 140.92 7.1Q140.92 8.55 140.37 9.37Q140.21 9.6 140 9.77Q139.47 10.19 138.62 10.19Q137.76 10.19 137.23 9.77Q137.02 9.6 136.86 9.37ZM42.96 4.61Q43.12 4.84 43.12 5.18Q43.12 5.44 43 5.65Q42.65 6.28 41.16 6.28L39.39 6.28L39.39 4.1L41.42 4.1Q42.3 4.1 42.71 4.37Q42.86 4.47 42.96 4.61ZM58.7 6.11Q58.51 5.81 58.51 5.39Q58.51 5.09 58.62 4.85Q58.71 4.65 58.89 4.48Q59.28 4.1 60.16 4.1L62.25 4.1L62.25 6.76L60.44 6.76Q59.53 6.76 59.02 6.42Q58.83 6.29 58.7 6.11ZM149.92 4.61Q150.08 4.84 150.08 5.18Q150.08 5.44 149.96 5.65Q149.6 6.28 148.12 6.28L146.35 6.28L146.35 4.1L148.38 4.1Q149.26 4.1 149.67 4.37Q149.82 4.47 149.92 4.61ZM184.83 6.11Q184.63 5.81 184.63 5.39Q184.63 5.09 184.74 4.85Q184.84 4.65 185.02 4.48Q185.4 4.1 186.28 4.1L188.38 4.1L188.38 6.76L186.57 6.76Q185.66 6.76 185.15 6.42Q184.95 6.29 184.83 6.11ZM155.67 7.8Q156.24 7.37 157.7 7.3L158.86 7.27L158.86 8.03Q158.86 8.95 158.4 9.5Q158.31 9.61 158.19 9.71Q158.04 9.83 157.88 9.93Q157.31 10.26 156.54 10.26Q155.9 10.26 155.5 9.96Q155.43 9.91 155.38 9.85Q155.1 9.55 155.1 8.98Q155.1 8.52 155.3 8.19Q155.44 7.96 155.67 7.8ZM43.16 8.16Q43.36 8.43 43.36 8.84Q43.36 9.3 43.14 9.58Q43.02 9.74 42.83 9.84Q42.3 10.14 41.36 10.14L39.39 10.14L39.39 7.58L41.32 7.58Q42.32 7.58 42.84 7.87Q43.04 7.99 43.16 8.16ZM123.23 8.08Q123.45 8.35 123.45 8.81Q123.45 9.27 123.23 9.56Q123.1 9.72 122.9 9.83Q122.36 10.14 121.53 10.14L119.34 10.14L119.34 7.58L121.5 7.58Q122.43 7.58 122.94 7.85Q123.11 7.94 123.23 8.08ZM150.12 8.16Q150.31 8.43 150.31 8.84Q150.31 9.3 150.1 9.58Q149.97 9.74 149.79 9.84Q149.26 10.14 148.31 10.14L146.35 10.14L146.35 7.58L148.28 7.58Q149.28 7.58 149.79 7.87Q150 7.99 150.12 8.16Z" fill="#8B8E9A" fill-opacity="1.000000" fill-rule="evenodd"/>
</svg>
